<?xml version="1.0" encoding="UTF-8" standalone="no"?>
<svg
   version="1.1"
   viewBox="0 0 548.07446 653.37964"
   id="svg168"
   sodipodi:docname="OIG.svg"
   width="548.07446"
   height="653.37964"
   inkscape:version="1.3 (0e150ed6c4, 2023-07-21)"
   xmlns:inkscape="http://www.inkscape.org/namespaces/inkscape"
   xmlns:sodipodi="http://sodipodi.sourceforge.net/DTD/sodipodi-0.dtd"
   xmlns="http://www.w3.org/2000/svg"
   xmlns:svg="http://www.w3.org/2000/svg">
  <defs
     id="defs168" />
  <sodipodi:namedview
     id="namedview168"
     pagecolor="#505050"
     bordercolor="#ffffff"
     borderopacity="1"
     inkscape:showpageshadow="0"
     inkscape:pageopacity="0"
     inkscape:pagecheckerboard="1"
     inkscape:deskcolor="#505050"
     inkscape:zoom="0.80175781"
     inkscape:cx="272.52619"
     inkscape:cy="333.6419"
     inkscape:window-width="1920"
     inkscape:window-height="1017"
     inkscape:window-x="-8"
     inkscape:window-y="-8"
     inkscape:window-maximized="1"
     inkscape:current-layer="svg168" />
  <g
     stroke-width="2"
     fill="none"
     stroke-linecap="butt"
     id="g112"
     transform="translate(-238.99667,-178.01714)">
    <path
       stroke="#818f9a"
       vector-effect="non-scaling-stroke"
       d="m 769.29,366.33 q 11.6,-11.55 14.94,-26.9 1.28,-5.91 1.26,-19.91 -0.04,-29.36 0.15,-58.71 0.1,-14.59 -0.62,-19.98 c -4.04,-30.43 -27.53,-54.63 -57.59,-60.44 -7.42,-1.43 -15.95,-1.19 -23.93,-1.2 q -194.59,-0.22 -389.19,-0.16 c -19,0 -36.3,5.6 -50.35,18.21 q -24.08,21.61 -23.96,57.02 0.12,38.34 0.33,76.68 c 0.08,13.82 6.89,24.76 15.23,35.76 q 0.33,0.45 -0.05,0.85 -15.5,16.06 -15.5,38.45 -0.02,173.09 -0.01,346.19 0,13.28 1.26,19.92 c 5.31,28.15 27.55,51.17 55.84,56.8 q 6.55,1.3 19.89,1.33 c 130.32,0.31 260.64,0.08 390.95,-0.01 q 13.2,-0.01 19.9,-1.33 c 31.87,-6.28 57.77,-35.24 57.92,-68.4 q 0.66,-149.56 -0.08,-346.69 -0.06,-13.75 -1.48,-19.9 -3.51,-15.2 -14.92,-26.72 -0.42,-0.44 0.01,-0.86"
       id="path1" />
    <path
       stroke="#7c8a90"
       vector-effect="non-scaling-stroke"
       d="m 282.21,219.21 q -13.11,12.61 -13.41,30.3 -0.53,30.68 0.05,75.93 c 0.14,11.19 5.12,20.71 13.06,28.58 q 3.01,2.98 5.6,5.74"
       id="path2" />
    <path
       stroke="#627581"
       vector-effect="non-scaling-stroke"
       d="m 287.51,359.76 -0.25,12.37 a 5.01,4.99 -23 0 1 -1.35,3.31 c -2.92,3.12 -7.13,5.93 -9.57,9.04 q -8.82,11.25 -7.75,27.34"
       id="path3" />
    <path
       stroke="#7c8a90"
       vector-effect="non-scaling-stroke"
       d="m 268.59,411.82 c -0.14,117.11 -0.19,234.25 -0.07,351.37 q 0.01,4.98 3.3,12.08"
       id="path4" />
    <path
       stroke="#627581"
       vector-effect="non-scaling-stroke"
       d="m 271.82,775.27 q 10.16,21.4 31.52,25.55 5.15,1.01 19.93,0.94 c 70.83,-0.31 141.5,0.41 212.23,0.23 q 86.47,-0.21 172.94,-0.25 10.85,-0.01 15.88,-1.37 c 16.32,-4.4 28.12,-16.14 32.24,-32.82"
       id="path5" />
    <path
       stroke="#7c8a90"
       vector-effect="non-scaling-stroke"
       d="m 756.56,767.55 q 0.88,-15.15 0.89,-35.05 c 0.08,-122.92 0.16,-226.88 -0.28,-324.61"
       id="path6" />
    <path
       stroke="#627581"
       vector-effect="non-scaling-stroke"
       d="M 757.17,407.89 Q 756.2,388.62 741.1,378.05 c -6.1,-4.27 -5.39,-10.76 -5.05,-17.89"
       id="path7" />
    <path
       stroke="#7c8a90"
       vector-effect="non-scaling-stroke"
       d="m 736.05,360.16 q 3.36,-2.94 7,-6.06 c 9.21,-7.9 13.2,-16.47 13.82,-28.73 0.92,-18.09 0.41,-37.81 0.38,-64.55 q -0.02,-14.41 -1.37,-19.91 -3.55,-14.5 -16.16,-24.45"
       id="path8" />
    <path
       stroke="#818f9a"
       vector-effect="non-scaling-stroke"
       d="m 739.72,216.46 q -11.17,-8.52 -24.72,-8.47 -48.58,0.14 -97.16,-0.19 c -1.22,-0.01 -2.75,0.32 -4.09,0.32 q -151.53,-0.44 -303.06,-0.01 -16.17,0.05 -28.48,11.1"
       id="path9" />
    <path
       stroke="#f9f9f5"
       vector-effect="non-scaling-stroke"
       d="m 739.72,216.46 q -0.51,0.95 -1.47,1.32 -0.46,0.18 -0.89,-0.08 -9.54,-5.88 -20.85,-5.85 -21.34,0.04 -42.68,-0.32 c -1.96,-0.03 -4.19,0.3 -6.33,0.26 q -36.29,-0.81 -72.58,-0.48 c -24.53,0.21 -49.26,1.28 -73.79,-0.08 -14.22,-0.78 -29.18,-0.11 -43.44,0.36 -7.48,0.25 -17.6,-0.3 -22.51,-0.3 -21.69,0.03 -43.43,-0.44 -65.12,0.12 -20.3,0.52 -33.11,-0.22 -49.58,0.08 -18.82,0.34 -39.93,-3.18 -55.6,9.8 q -0.39,0.32 -0.84,0.08 -1.28,-0.71 -1.83,-2.16"
       id="path10" />
    <path
       stroke="#dadedd"
       vector-effect="non-scaling-stroke"
       d="m 736.05,360.16 q -14.33,7.82 -31.55,7.83 -194.47,0.03 -388.94,0 -13.45,-0.01 -28.05,-8.23"
       id="path11" />
    <path
       stroke="#dadedd"
       vector-effect="non-scaling-stroke"
       d="m 757.17,407.89 q -7.12,-4.53 -21.59,-14.7 -10.92,-7.67 -25.08,-7.8 c -54.28,-0.51 -108.52,-0.17 -162.81,-0.18 q -97.62,-0.03 -195.24,-0.27 -0.05,0 -7.28,0.24 c -11.38,0.38 -29.67,-2.3 -42.19,1.63 -12.68,3.98 -24.18,15.09 -32.58,24.3 q -0.31,0.35 -0.77,0.46 l -1.04,0.25"
       id="path12" />
    <path
       stroke="#dadedd"
       vector-effect="non-scaling-stroke"
       d="m 756.56,767.55 q -5.76,6.5 -11.86,8.63 c -11.32,3.95 -26.45,9.83 -39.95,9.95 -93.55,0.77 -181.49,0.4 -272.17,0.06 q -0.29,0 -0.53,0.18 -0.17,0.12 -0.3,0.12 -55.59,0.11 -111.19,-0.34 c -2.9,-0.02 -6.93,-0.43 -10.37,-1.21 q -13.01,-2.92 -26.19,-4.92 -2.79,-0.43 -12.18,-4.75"
       id="path13" />
    <path
       stroke="#7c8a90"
       vector-effect="non-scaling-stroke"
       d="m 294.08,327.78 c 3.53,11.28 15.23,19.88 26.67,19.97 97.41,0.78 247.59,0.05 376.99,-0.03 q 8.72,-0.01 12.82,-1.03 c 9.83,-2.44 18.53,-9.42 21.86,-19.03 q 1.6,-4.59 1.71,-15 0.29,-26.8 0.01,-53.6 c -0.19,-18.18 -14.43,-30.4 -32.39,-30.42 q -187.97,-0.17 -375.94,-0.34 -13.86,-0.01 -23.25,7.98 -9.69,8.25 -9.75,22.22 -0.12,27.23 -0.03,54.47 0.03,10.73 1.3,14.81"
       id="path14" />
    <path
       stroke="#818f9a"
       vector-effect="non-scaling-stroke"
       d="m 398.7,255.51 -2.64,-0.08"
       id="path15" />
    <path
       stroke="#457b8c"
       vector-effect="non-scaling-stroke"
       d="m 396.06,255.43 q -33.27,-0.37 -65.34,-0.1 c -6.74,0.05 -12.63,0.68 -12.52,8.67 q 0.32,23.66 0.32,47.33 c 0.01,12.51 13.48,8.69 21.63,8.69 q 130.77,-0.1 261.54,-0.12 45.01,-0.01 90.01,0.14 c 5.73,0.02 16.73,2.23 16.79,-7.04 q 0.07,-13.96 -0.02,-48.38 c -0.02,-6.59 -3.32,-9.37 -9.98,-9.37 q -146.66,0 -293.31,0 c -1.82,0 -4.26,0.4 -6.48,0.26"
       id="path16" />
    <path
       stroke="#c1eaf1"
       vector-effect="non-scaling-stroke"
       d="m 396.06,255.43 q -21,22.57 -42.12,43.58 c -7.65,7.6 2.35,16.68 8.75,9.66 q 19.65,-21.57 40.53,-41.95 c 3.38,-3.31 -0.64,-7.71 -2.28,-10.6 q -0.22,-0.38 -0.66,-0.36 -0.82,0.04 -1.58,-0.25"
       id="path17" />
    <path
       stroke="#457b8c"
       vector-effect="non-scaling-stroke"
       d="m 608.01,271.91 c 0.6,3.85 2.53,4.23 4.96,6.68 q 0.35,0.37 0.35,0.87 c -0.09,8.35 0.2,16.8 -0.11,25.13 -0.33,8.71 13.39,8.2 13.42,-0.84 q 0.03,-14.38 -0.25,-28.74 -0.09,-4.92 -1.55,-7.21 c -4.18,-6.58 -18.34,-5.61 -16.82,4.11"
       id="path18" />
    <path
       stroke="#457b8c"
       vector-effect="non-scaling-stroke"
       d="m 660.31,287.82 c -0.1,5.21 -0.57,13.53 0.55,18.48 1.13,5.02 8.66,5.91 11.42,2.23 q 1.26,-1.68 1.25,-4.83 -0.03,-16.07 -0.06,-32.14 c -0.01,-6.73 -8.04,-9.42 -12.38,-4.48 q -7.18,8.16 -14.47,16.2 -3.16,3.48 -3.7,5.24 c -1.5,4.92 3.97,9.56 8.85,7.77 q 2.7,-1 5.3,-2.98 a 1.19,1.15 -16.1 0 0 0.44,-0.77 q 0.3,-2.75 1.77,-5.03 a 0.56,0.56 0 0 1 1.03,0.31"
       id="path19" />
    <path
       stroke="#457b8c"
       vector-effect="non-scaling-stroke"
       d="m 554.0372,271.6536 a 6.51,6.51 0 0 0 -6.4872,-6.5327 l -0.44,-0.002 a 6.51,6.51 0 0 0 -6.5327,6.4872 l -0.1145,32.8198 a 6.51,6.51 0 0 0 6.4872,6.5327 l 0.44,0.002 a 6.51,6.51 0 0 0 6.5327,-6.4872 l 0.1145,-32.8198"
       id="path20" />
    <path
       stroke="#457b8c"
       vector-effect="non-scaling-stroke"
       d="m 586.73,287.93 a 8.08,8.08 0 0 0 -8.08,-8.08 8.08,8.08 0 0 0 -8.08,8.08 8.08,8.08 0 0 0 8.08,8.08 8.08,8.08 0 0 0 8.08,-8.08"
       id="path21" />
    <path
       stroke="#7c8a90"
       vector-effect="non-scaling-stroke"
       d="m 382.65,413.79 a 23.38,23.38 0 0 0 -23.38,-23.38 h -50.98 a 23.38,23.38 0 0 0 -23.38,23.38 v 70.78 a 23.38,23.38 0 0 0 23.38,23.38 h 50.98 a 23.38,23.38 0 0 0 23.38,-23.38 v -70.78"
       id="path22" />
    <path
       stroke="#dadedd"
       vector-effect="non-scaling-stroke"
       d="m 398.53,438.13 q -1.35,9.5 0.32,18.95"
       id="path23" />
    <path
       stroke="#7c8a90"
       vector-effect="non-scaling-stroke"
       d="m 398.85,457.08 q -0.66,1.6 -0.62,4.67 0.11,9.88 0.28,19.75 c 0.29,16.97 12.06,25.91 27.99,25.95 q 82.07,0.22 164.14,-0.21 9.43,-0.05 13.92,-1.51 c 12.58,-4.09 17.3,-14.44 17.35,-27.01 q 0.13,-29.74 0.12,-59.48 C 622.02,406.36 619.39,396 606.37,391.7 q -4.39,-1.45 -13.92,-1.45 -81.23,0 -162.43,0.01 c -14.14,0 -25.85,1.97 -30.29,16.41 -2.55,8.3 -1.18,21.85 -1.2,31.46"
       id="path24" />
    <path
       stroke="#627581"
       vector-effect="non-scaling-stroke"
       d="m 398.85,457.08 q 3.8,-2.99 8.23,-2.78"
       id="path25" />
    <path
       stroke="#4c6272"
       vector-effect="non-scaling-stroke"
       d="m 407.08,454.3 q 8.02,-0.42 11.7,0.67 c 4.02,1.19 3.68,4.74 3.68,8.27 q 0,6.62 0.04,13.72"
       id="path26" />
    <path
       stroke="#3e5667"
       vector-effect="non-scaling-stroke"
       d="m 422.5,476.96 q 0.46,6.43 6.75,6.35 c 53.47,-0.62 107.02,-0.03 160.51,-0.07 q 7.58,-0.01 7.25,-8.42"
       id="path27" />
    <path
       stroke="#4c6272"
       vector-effect="non-scaling-stroke"
       d="m 597.01,474.82 q -0.1,-7.63 -0.55,-16.32 -0.28,-5.46 5.23,-7.18 a 0.84,0.83 86.6 0 0 0.57,-0.65 q 0.73,-4.5 -0.6,-8.86 -0.15,-0.5 -0.64,-0.66 -4.43,-1.55 -4.01,-6.89 0.44,-5.58 -0.27,-16.2"
       id="path28" />
    <path
       stroke="#818f9a"
       vector-effect="non-scaling-stroke"
       d="m 596.74,418.06 q -2.05,-3.87 -6.24,-3.81 -22.63,0.32 -45.24,-0.01 c -17.17,-0.25 -9.89,16.74 -18.26,23.98 q -14.79,12.77 -31.22,2.01 c -9.23,-6.05 -4.86,-23.11 -16.53,-25.46 q -3.45,-0.69 -9.17,-0.51 c -13.12,0.41 -26.25,0.23 -39.37,0.24 -5.67,0.01 -9.19,1.93 -8.44,8.1"
       id="path29" />
    <path
       stroke="#4c6272"
       vector-effect="non-scaling-stroke"
       d="m 422.27,422.6 q 0.06,4.3 -0.07,8.41 c -0.16,5.24 0.33,8.68 -5.61,9.31 q -7.61,0.82 -11.84,0.72"
       id="path30" />
    <path
       stroke="#627581"
       vector-effect="non-scaling-stroke"
       d="m 404.75,441.04 q -3.08,-0.48 -6.22,-2.91"
       id="path31" />
    <path
       stroke="#c9d1d8"
       vector-effect="non-scaling-stroke"
       d="m 596.74,418.06 q -6.69,4.21 -10.49,4.25 -20.11,0.22 -40.28,0.43 -4.54,0.04 -4.52,4.58 c 0.1,21.05 -19.95,31.61 -38.62,27.81 -12,-2.44 -23.57,-11.99 -23.98,-25.15 -0.15,-4.59 -0.88,-7.05 -5.85,-7.13 q -34.39,-0.49 -50.73,-0.25"
       id="path32" />
    <path
       stroke="#8698a5"
       vector-effect="non-scaling-stroke"
       d="m 597.01,474.82 q -46.03,0.35 -91.95,0.08 c -26.69,-0.16 -53.38,0.2 -80.06,0.06 q -0.94,-0.01 -2.5,2"
       id="path33" />
    <path
       stroke="#aab7bf"
       vector-effect="non-scaling-stroke"
       d="m 407.08,454.3 q -0.5,-5.52 -0.39,-10.99 0.04,-2.26 -1.94,-2.27"
       id="path34" />
    <path
       stroke="#7c8a90"
       vector-effect="non-scaling-stroke"
       d="m 740.619,414.5168 a 24.23,24.23 0 0 0 -24.3144,-24.1453 l -50.8997,0.1777 a 24.23,24.23 0 0 0 -24.1453,24.3144 l 0.2414,69.1396 a 24.23,24.23 0 0 0 24.3144,24.1453 l 50.8997,-0.1777 a 24.23,24.23 0 0 0 24.1453,-24.3144 l -0.2414,-69.1396"
       id="path35" />
    <path
       stroke="#7c8a90"
       vector-effect="non-scaling-stroke"
       d="m 285.54,625.24 c 1.77,8.68 10.69,17.46 19.71,17.79 q 15.88,0.57 51.56,0.11 c 12.59,-0.16 25.05,-8.39 25.71,-21.65 q 0.38,-7.67 0.18,-30.18 -0.15,-17.17 -0.06,-34.34 C 382.72,542 382.6,529.76 367.71,524.78 q -4.55,-1.52 -14.58,-1.55 -21.37,-0.07 -42.73,0.15 c -10.85,0.11 -19.92,3.39 -23.81,13.98 q -1.6,4.36 -1.7,14.95 -0.3,30.85 -0.23,61.69 0.01,6.99 0.88,11.24"
       id="path36" />
    <path
       stroke="#dadedd"
       vector-effect="non-scaling-stroke"
       d="m 507.54,752.87 q 2.33,-0.76 2.71,0.36"
       id="path37" />
    <path
       stroke="#7c8a90"
       vector-effect="non-scaling-stroke"
       d="m 510.25,753.23 c -0.53,13.73 8.55,25.98 22.75,26 q 31.63,0.03 63.26,0.02 c 15.88,0 25.51,-8.83 25.72,-25.5 q 0.59,-48.38 0.39,-65.1 -0.2,-16.12 -0.15,-32.24 0.16,-52.7 -0.23,-105.49 -0.06,-8.9 -1.54,-13.04 c -6.22,-17.51 -24.08,-14.42 -39.7,-14.4 -50.26,0.07 -100.57,-0.46 -150.82,-0.04 q -11.07,0.09 -15.73,1.72 c -12.51,4.38 -15.27,15.01 -15.32,27.58 q -0.39,94.9 0.13,189.79 0.08,16.03 0.94,19.36 c 2.91,11.24 12.24,17.37 23.8,17.36 q 29.25,0 58.52,0 c 16.11,0 25.41,-9.41 25.27,-26.38"
       id="path38" />
    <path
       stroke="#627581"
       vector-effect="non-scaling-stroke"
       d="m 510.25,753.23 q 0,-35.09 0,-70.23 0,-10.2 1.46,-14.84 4.79,-15.21 22.97,-16.99"
       id="path39" />
    <path
       stroke="#3e5667"
       vector-effect="non-scaling-stroke"
       d="m 534.68,651.17 c 17.34,0.09 34.94,-0.53 52.16,0.42 10.09,0.55 11.55,-1.27 10.88,-11.11"
       id="path40" />
    <path
       stroke="#4c6272"
       vector-effect="non-scaling-stroke"
       d="m 597.72,640.48 -0.4,-89.49"
       id="path41" />
    <path
       stroke="#818f9a"
       vector-effect="non-scaling-stroke"
       d="m 597.32,550.99 q 0.37,-1.21 -0.07,-2.43 -0.17,-0.47 -0.66,-0.6 -1.25,-0.31 -2.59,-0.3 -39.5,0.45 -79,0.11 c -5.39,-0.04 -7.48,3.84 -7.48,8.94 q 0.06,48.28 -0.33,96.53"
       id="path42" />
    <path
       stroke="#627581"
       vector-effect="non-scaling-stroke"
       d="m 507.19,653.24 0.35,99.63"
       id="path43" />
    <path
       stroke="#9cabb4"
       vector-effect="non-scaling-stroke"
       d="m 534.78,640.94 -0.1,10.23"
       id="path44" />
    <path
       stroke="#c9d1d8"
       vector-effect="non-scaling-stroke"
       d="m 597.32,550.99 c -6.08,3.97 -14.75,5.09 -21.82,5.77 q -7.95,0.77 -28.29,1.13 -8.81,0.16 -12.37,5.97"
       id="path45" />
    <path
       stroke="#dfe4e7"
       vector-effect="non-scaling-stroke"
       d="m 534.84,563.86 q -2.46,-0.16 -3.57,-1.63 c -5.3,-7.06 -21.48,-7.47 -21.61,4.05 -0.37,34.19 0.17,58.05 -0.49,86.75 q -0.01,0.51 -0.49,0.7 -0.72,0.29 -1.49,-0.49"
       id="path46" />
    <path
       stroke="#8698a5"
       vector-effect="non-scaling-stroke"
       d="m 597.72,640.48 -62.94,0.46"
       id="path47" />
    <path
       stroke="#aab7bf"
       vector-effect="non-scaling-stroke"
       d="m 534.78,640.94 0.06,-77.08"
       id="path48" />
    <path
       stroke="#7c8a90"
       vector-effect="non-scaling-stroke"
       d="m 641.51,755.75 c -0.33,12.48 9.5,23.5 22.25,23.5 q 24.51,0 49.03,0 7.77,0 11.75,-1.38 c 10.48,-3.63 16.2,-12.94 16.2,-24.12 q 0,-102.59 0.03,-205.2 c 0,-15.56 -8.24,-25.23 -24.79,-25.16 -17.15,0.07 -31.69,-0.24 -46.31,0 -12.72,0.22 -22.72,2.58 -26.98,15.13 q -1.44,4.22 -1.44,13.14 0,99.84 0.01,199.68 c 0,1.15 0.29,2.81 0.25,4.41"
       id="path49" />
    <path
       stroke="#7c8a90"
       vector-effect="non-scaling-stroke"
       d="m 382.5705,676.8646 a 22.7,22.7 0 0 0 -22.7396,-22.6603 l -52.4799,0.0916 a 22.7,22.7 0 0 0 -22.6604,22.7396 l 0.1389,79.5599 a 22.7,22.7 0 0 0 22.7396,22.6603 l 52.4799,-0.0916 a 22.7,22.7 0 0 0 22.6604,-22.7396 l -0.1389,-79.5599"
       id="path50" />
    <path
       stroke="#136072"
       vector-effect="non-scaling-stroke"
       d="m 308.97,423.45 -0.01,51.28"
       id="path51" />
    <path
       stroke="#0c4f63"
       vector-effect="non-scaling-stroke"
       d="m 308.96,474.73 c -1,10.08 4.81,9.73 12.84,9.78 q 14.97,0.08 29.94,-0.14 c 3.77,-0.05 6.47,-1.33 6.5,-5.37 q 0.19,-23.94 -0.15,-60.57"
       id="path52" />
    <path
       stroke="#818f9a"
       vector-effect="non-scaling-stroke"
       d="m 358.09,418.43 q -1.89,-2.84 -5.11,-2.86 -17.61,-0.07 -35.22,-0.09 c -2.63,-0.01 -5.89,-1 -7.76,1.52 q -1.91,2.58 -1.03,6.45"
       id="path53" />
    <path
       stroke="#88bec8"
       vector-effect="non-scaling-stroke"
       d="m 358.09,418.43 c -5.9,4.02 -8.17,5.25 -15.37,5.05"
       id="path54" />
    <path
       stroke="#8fcfd8"
       vector-effect="non-scaling-stroke"
       d="m 342.72,423.48 -33.75,-0.03"
       id="path55" />
    <path
       stroke="#1a8fa1"
       vector-effect="non-scaling-stroke"
       d="m 308.96,474.73 32.73,-0.75 q 1.84,-0.04 1.84,-1.88 v -46.2 q 0,-0.39 -0.29,-0.65 -0.87,-0.76 -0.52,-1.77"
       id="path56" />
    <path
       stroke="#815555"
       vector-effect="non-scaling-stroke"
       d="m 666.02,423.74 -0.26,53.29"
       id="path57" />
    <path
       stroke="#764949"
       vector-effect="non-scaling-stroke"
       d="m 665.76,477.03 q 0.54,7.57 7.73,7.38 17.75,-0.47 35.51,-0.04 6.27,0.15 6.5,-6.35 0.31,-8.33 0.27,-11.27 -0.29,-23.91 -0.24,-48.54"
       id="path58" />
    <path
       stroke="#818f9a"
       vector-effect="non-scaling-stroke"
       d="m 715.53,418.21 q -2.72,-2.72 -4.53,-2.72 -18.02,0.02 -36.05,0 c -2.81,0 -5.7,-1.27 -7.84,1.38 q -2.23,2.79 -1.09,6.87"
       id="path59" />
    <path
       stroke="#f2b8af"
       vector-effect="non-scaling-stroke"
       d="m 715.53,418.21 q -7.02,5.08 -13.45,5.38"
       id="path60" />
    <path
       stroke="#fec4ba"
       vector-effect="non-scaling-stroke"
       d="m 702.08,423.59 q -17.84,-0.86 -36.06,0.15"
       id="path61" />
    <path
       stroke="#f37d6a"
       vector-effect="non-scaling-stroke"
       d="m 665.76,477.03 2.12,-1.95 a 1.24,1.22 23.4 0 1 0.83,-0.32 l 29.77,-0.03 q 1.76,-0.01 1.98,-1.75 0.2,-1.63 0.14,-4.22 -0.46,-19.01 -0.07,-38.01 0.07,-3.17 1.55,-7.16"
       id="path62" />
    <path
       stroke="#815555"
       vector-effect="non-scaling-stroke"
       d="m 308.83,555.5 0.13,60.58"
       id="path63" />
    <path
       stroke="#764949"
       vector-effect="non-scaling-stroke"
       d="m 308.96,616.08 q 2.64,3.53 5.29,3.48 18.9,-0.32 37.79,-0.34 c 3.19,-0.01 6.35,-1.41 6.43,-4.78 q 0.37,-15.18 -0.16,-62.92"
       id="path64" />
    <path
       stroke="#818f9a"
       vector-effect="non-scaling-stroke"
       d="m 358.31,551.52 q -2.03,-3.67 -4.32,-3.61 -20.91,0.54 -41.93,0.03 a 1.49,1.47 -62.7 0 0 -0.92,0.3 q -3.32,2.56 -2.31,7.26"
       id="path65" />
    <path
       stroke="#f2b8af"
       vector-effect="non-scaling-stroke"
       d="m 358.31,551.52 c -4.71,2.01 -8.52,4.51 -13.52,3.89"
       id="path66" />
    <path
       stroke="#fec4ba"
       vector-effect="non-scaling-stroke"
       d="m 344.79,555.41 c -10.64,-0.9 -25.07,-1.03 -35.96,0.09"
       id="path67" />
    <path
       stroke="#f37d6a"
       vector-effect="non-scaling-stroke"
       d="m 308.96,616.08 q 1.48,0.39 1.56,-0.83 c 0.09,-1.51 -1.38,-2.17 -0.29,-3.87 q 0.28,-0.45 0.8,-0.55 c 1.16,-0.23 2.27,-0.54 3.44,-0.58 q 14.03,-0.46 27.28,-0.53 1.11,0 1.12,-1.11 l 0.45,-50.97 q 0,-0.49 0.32,-0.88 l 1.15,-1.35"
       id="path68" />
    <path
       stroke="#627581"
       vector-effect="non-scaling-stroke"
       d="m 422.26,557.33 -0.01,83.46"
       id="path69" />
    <path
       stroke="#3e5667"
       vector-effect="non-scaling-stroke"
       d="m 422.25,640.79 c -0.21,5.54 0.49,10.45 7.34,10.45 q 25.48,0.03 50.69,0 a 2.69,2.69 0 0 0 2.69,-2.61 l 0.23,-8.26"
       id="path70" />
    <path
       stroke="#4c6272"
       vector-effect="non-scaling-stroke"
       d="m 483.2,640.37 0.04,-84.3"
       id="path71" />
    <path
       stroke="#818f9a"
       vector-effect="non-scaling-stroke"
       d="m 483.24,556.07 -0.43,-6.14 q -0.03,-0.53 -0.47,-0.83 -1.85,-1.26 -3.84,-1.21 -18.36,0.48 -51.25,0.06 c -5.58,-0.07 -5.02,5.52 -4.99,9.38"
       id="path72" />
    <path
       stroke="#c9d1d8"
       vector-effect="non-scaling-stroke"
       d="m 483.24,556.07 -56.61,0.02"
       id="path73" />
    <path
       stroke="#dfe4e7"
       vector-effect="non-scaling-stroke"
       d="m 426.63,556.09 q -2.47,0.11 -4.37,1.24"
       id="path74" />
    <path
       stroke="#9cabb4"
       vector-effect="non-scaling-stroke"
       d="m 426.86,640.59 -4.61,0.2"
       id="path75" />
    <path
       stroke="#8698a5"
       vector-effect="non-scaling-stroke"
       d="m 483.2,640.37 -56.34,0.22"
       id="path76" />
    <path
       stroke="#aab7bf"
       vector-effect="non-scaling-stroke"
       d="m 426.86,640.59 c 1.35,-28.15 -0.38,-54.65 -0.23,-84.5"
       id="path77" />
    <path
       stroke="#627581"
       vector-effect="non-scaling-stroke"
       d="m 422.28,684.77 -0.01,61.57"
       id="path78" />
    <path
       stroke="#3e5667"
       vector-effect="non-scaling-stroke"
       d="m 422.27,746.34 c -0.08,10.9 7.97,9.47 15.31,9.29 13.42,-0.33 26.89,-0.13 40.31,-0.13 5.83,0 5.7,-5.45 5.13,-9.88"
       id="path79" />
    <path
       stroke="#4c6272"
       vector-effect="non-scaling-stroke"
       d="m 483.02,745.62 0.11,-61.67"
       id="path80" />
    <path
       stroke="#818f9a"
       vector-effect="non-scaling-stroke"
       d="m 483.13,683.95 c 0.34,-2.63 1.03,-9.26 -2.88,-9.24 q -26.78,0.18 -53.57,-0.12 c -5.33,-0.06 -4.94,6.46 -4.4,10.18"
       id="path81" />
    <path
       stroke="#c9d1d8"
       vector-effect="non-scaling-stroke"
       d="m 483.13,683.95 -56.72,0.07"
       id="path82" />
    <path
       stroke="#dfe4e7"
       vector-effect="non-scaling-stroke"
       d="m 426.41,684.02 -4.13,0.75"
       id="path83" />
    <path
       stroke="#8698a5"
       vector-effect="non-scaling-stroke"
       d="m 483.02,745.62 -56.45,0.15"
       id="path84" />
    <path
       stroke="#aab7bf"
       vector-effect="non-scaling-stroke"
       d="m 426.57,745.77 q 0.71,-4.55 0.69,-6.59 -0.15,-14.53 -0.29,-29.07 c -0.08,-8.59 0.47,-17.52 -0.56,-26.09"
       id="path85" />
    <path
       stroke="#9cabb4"
       vector-effect="non-scaling-stroke"
       d="m 426.57,745.77 q -1.99,-0.54 -4.3,0.57"
       id="path86" />
    <path
       stroke="#627581"
       vector-effect="non-scaling-stroke"
       d="m 532.81,685.11 -0.15,61.14"
       id="path87" />
    <path
       stroke="#3e5667"
       vector-effect="non-scaling-stroke"
       d="m 532.66,746.25 q -0.16,9.45 9.07,9.48 25.1,0.07 50.21,0.05 c 5.73,-0.01 6.19,-5.38 5.79,-9.7"
       id="path88" />
    <path
       stroke="#4c6272"
       vector-effect="non-scaling-stroke"
       d="m 597.73,746.08 -0.14,-64.81"
       id="path89" />
    <path
       stroke="#818f9a"
       vector-effect="non-scaling-stroke"
       d="m 597.59,681.27 -0.1,-6.21 q 0,-0.51 -0.52,-0.52 -28.75,-0.17 -57.5,0.1 c -6.52,0.06 -7.42,4.9 -6.66,10.47"
       id="path90" />
    <path
       stroke="#c9d1d8"
       vector-effect="non-scaling-stroke"
       d="m 597.59,681.27 q -7.77,2.79 -14.09,2.76 -23.23,-0.09 -46.53,0.02"
       id="path91" />
    <path
       stroke="#dfe4e7"
       vector-effect="non-scaling-stroke"
       d="m 536.97,684.05 q -2.52,1.11 -4.16,1.06"
       id="path92" />
    <path
       stroke="#9cabb4"
       vector-effect="non-scaling-stroke"
       d="m 536.57,745.73 -3.91,0.52"
       id="path93" />
    <path
       stroke="#8698a5"
       vector-effect="non-scaling-stroke"
       d="M 597.73,746.08 536.59,746 q -0.03,0 -0.03,-0.02 0.01,-0.13 0.01,-0.25"
       id="path94" />
    <path
       stroke="#aab7bf"
       vector-effect="non-scaling-stroke"
       d="m 536.57,745.73 0.4,-61.68"
       id="path95" />
    <path
       stroke="#136072"
       vector-effect="non-scaling-stroke"
       d="m 666.44,556.16 -0.29,189.76"
       id="path96" />
    <path
       stroke="#0c4f63"
       vector-effect="non-scaling-stroke"
       d="m 666.15,745.92 q -1.12,6.3 3.66,9.55 a 1.67,1.64 61.4 0 0 0.92,0.28 q 19.16,0 38.3,0 c 3.4,0 6.79,-0.96 6.86,-4.75 0.76,-40.41 -0.34,-102.52 0.27,-153.75 q 0.28,-23.27 -0.54,-46.54"
       id="path97" />
    <path
       stroke="#818f9a"
       vector-effect="non-scaling-stroke"
       d="m 715.62,550.71 q -2.6,-2.83 -4.38,-2.78 -20.61,0.65 -41.33,0.06 a 1.58,1.58 0 0 0 -0.93,0.28 q -3.77,2.56 -2.54,7.89"
       id="path98" />
    <path
       stroke="#88bec8"
       vector-effect="non-scaling-stroke"
       d="m 715.62,550.71 q -6.74,6.26 -15.15,5.29"
       id="path99" />
    <path
       stroke="#8fcfd8"
       vector-effect="non-scaling-stroke"
       d="m 700.47,556 -34.03,0.16"
       id="path100" />
    <path
       stroke="#1a8fa1"
       vector-effect="non-scaling-stroke"
       d="m 666.15,745.92 33.14,-0.82 a 1.09,1.09 0 0 0 1.06,-1.13 c -1.08,-27.4 0.34,-50.28 -0.69,-82.22 -0.52,-16.26 0.53,-33.29 0.54,-48.94 q 0.04,-36.98 0.27,-56.81"
       id="path101" />
    <path
       stroke="#4c6272"
       vector-effect="non-scaling-stroke"
       d="m 568.92,590.61 c -4.51,3.39 -6.66,7.7 0.6,9.77 a 1.35,1.35 0 0 1 0.9,1.76 c -1.8,5 -4.58,4.42 -8.54,2.56 -3.36,-1.58 -10.27,-1.87 -10.41,3.41 -0.3,10.69 14.69,10.65 21.8,8.68 9.56,-2.66 12.06,-13.65 6.16,-21.26 a 0.68,0.67 45.8 0 1 0.01,-0.85 c 5.59,-6.78 3.4,-17.49 -5.16,-20.49 -6.49,-2.28 -20.87,-1.77 -22.03,7.56 -0.89,7.06 7.63,10.16 11.38,4.05 a 1.21,1.16 1.3 0 1 0.46,-0.42 c 3.73,-1.88 9.62,1.64 4.83,5.23"
       id="path102" />
    <path
       stroke="#4c6272"
       vector-effect="non-scaling-stroke"
       d="m 444.08,591.97 c -7.41,1.08 -6.8,13.07 2.43,12.26 q 1.56,-0.14 5.98,0.09 0.53,0.02 0.52,0.55 c -0.09,3.61 -0.86,9.96 3.32,11.55 5.75,2.19 9.69,-1.1 9.81,-6.83 q 0.3,-13.45 0.18,-26.9 c -0.08,-8.4 -11.96,-10.88 -13.13,-0.73 q -0.49,4.3 0.24,8.54 a 0.86,0.86 0 0 1 -0.87,1.01 q -4.27,-0.16 -8.48,0.46"
       id="path103" />
    <path
       stroke="#136072"
       vector-effect="non-scaling-stroke"
       d="m 697.74,650.72 a 9.1,9.1 0 0 0 -9.1,-9.1 9.1,9.1 0 0 0 -9.1,9.1 9.1,9.1 0 0 0 9.1,9.1 9.1,9.1 0 0 0 9.1,-9.1"
       id="path104" />
    <path
       stroke="#815555"
       vector-effect="non-scaling-stroke"
       d="m 308.84,686.77 -0.26,61.18"
       id="path105" />
    <path
       stroke="#764949"
       vector-effect="non-scaling-stroke"
       d="m 308.58,747.95 c 0.26,5.21 2.52,7.1 7.76,7.07 11.01,-0.05 22.29,-0.44 33.26,0.28 3.91,0.26 8.78,-0.83 8.87,-5.37 q 0.4,-20.32 -0.21,-68.04"
       id="path106" />
    <path
       stroke="#818f9a"
       vector-effect="non-scaling-stroke"
       d="m 358.26,681.89 q -2.96,-3.11 -6.28,-3.12 -19.87,-0.03 -39.85,-0.02 a 1.55,1.52 26.6 0 0 -0.9,0.29 q -3.78,2.65 -2.39,7.73"
       id="path107" />
    <path
       stroke="#f2b8af"
       vector-effect="non-scaling-stroke"
       d="m 358.26,681.89 q -7.46,4.55 -14.78,4.49"
       id="path108" />
    <path
       stroke="#fec4ba"
       vector-effect="non-scaling-stroke"
       d="m 343.48,686.38 q -15.04,-0.75 -29.92,-0.33 -2.09,0.06 -4.72,0.72"
       id="path109" />
    <path
       stroke="#f37d6a"
       vector-effect="non-scaling-stroke"
       d="m 308.58,747.95 q 1.09,-0.14 1.61,-1.42 0.21,-0.51 0.77,-0.53 13.86,-0.32 27.73,-0.58 1.64,-0.03 3.31,-0.42 0.53,-0.13 0.62,-0.66 0.43,-2.45 0.41,-3.84 -0.46,-27.04 0.45,-54.12"
       id="path110" />
    <path
       stroke="#4c6272"
       vector-effect="non-scaling-stroke"
       d="m 582.7096,717.0063 a 6,6 0 0 0 -6.0105,-5.9895 l -26.5999,0.0464 a 6,6 0 0 0 -5.9895,6.0105 l 7e-4,0.42 a 6,6 0 0 0 6.0105,5.9895 l 26.5999,-0.0464 a 6,6 0 0 0 5.9895,-6.0105 l -7e-4,-0.42"
       id="path111" />
    <path
       stroke="#4c6272"
       vector-effect="non-scaling-stroke"
       d="m 463.2,718.274 a 9.18,8.93 -0.1 0 0 -9.1956,-8.914 9.18,8.93 -0.1 0 0 -9.1644,8.946 9.18,8.93 -0.1 0 0 9.1956,8.914 9.18,8.93 -0.1 0 0 9.1644,-8.946"
       id="path112" />
  </g>
  <path
     fill="#042034"
     d="m 530.28333,189.17286 q 11.41,11.52 14.92,26.72 1.42,6.15 1.48,19.9 0.74,197.13 0.08,346.69 c -0.15,33.16 -26.05,62.12 -57.92,68.4 q -6.7,1.32 -19.9,1.33 c -130.31,0.09 -260.63,0.32 -390.949997,0.01 q -13.34,-0.03 -19.89,-1.33 c -28.29,-5.63 -50.5299997,-28.65 -55.8399997,-56.8 q -1.26,-6.64 -1.26,-19.92 -0.01,-173.1 0.01,-346.19 0,-22.39 15.4999997,-38.45 0.38,-0.4 0.05,-0.85 c -8.3399997,-11 -15.1499997,-21.94 -15.2299997,-35.76 q -0.21,-38.34 -0.33,-76.680003 -0.11999997,-35.41 23.9599997,-57.02 c 14.05,-12.6099999 31.35,-18.2099999 50.35,-18.2099999 q 194.599997,-0.06 389.189997,0.16 c 7.98,0.01 16.51,-0.22999999 23.93,1.2 30.06,5.81 53.55,30.0099999 57.59,60.4399999 q 0.72,5.39 0.62,19.98 -0.19,29.350003 -0.15,58.710003 0.02,14 -1.26,19.91 -3.34,15.35 -14.94,26.9 -0.43,0.42 -0.01,0.86 z M 43.213333,41.192857 q -13.11,12.61 -13.41,30.3 -0.53,30.680003 0.05,75.930003 c 0.14,11.19 5.12,20.71 13.06,28.58 q 3.01,2.98 5.6,5.74 l -0.25,12.37 a 4.99,5.01 67 0 1 -1.35,3.31 c -2.92,3.12 -7.13,5.93 -9.57,9.04 q -8.82,11.25 -7.75,27.34 c -0.14,117.11 -0.19,234.25 -0.07,351.37 q 0.01,4.98 3.3,12.08 10.16,21.4 31.52,25.55 5.15,1.01 19.93,0.94 c 70.829997,-0.31 141.499997,0.41 212.229997,0.23 q 86.47,-0.21 172.94,-0.25 10.85,-0.01 15.88,-1.37 c 16.32,-4.4 28.12,-16.14 32.24,-32.82 q 0.88,-15.15 0.89,-35.05 c 0.08,-122.92 0.16,-226.88 -0.28,-324.61 q -0.97,-19.27 -16.07,-29.84 c -6.1,-4.27 -5.39,-10.76 -5.05,-17.89 q 3.36,-2.94 7,-6.06 c 9.21,-7.9 13.2,-16.47 13.82,-28.73 0.92,-18.09 0.41,-37.81 0.38,-64.550003 q -0.02,-14.41 -1.37,-19.91 -3.55,-14.5 -16.16,-24.45 -11.17,-8.52 -24.72,-8.47 -48.58,0.14 -97.16,-0.19 c -1.22,-0.01 -2.75,0.32 -4.09,0.32 q -151.53,-0.44 -303.059997,-0.01 -16.17,0.05 -28.48,11.1 z"
     id="path114" />
  <path
     fill="#fdfeff"
     d="m 500.72333,38.442857 q -0.51,0.95 -1.47,1.32 -0.46,0.18 -0.89,-0.08 -9.54,-5.88 -20.85,-5.85 -21.34,0.04 -42.68,-0.32 c -1.96,-0.03 -4.19,0.3 -6.33,0.26 q -36.29,-0.81 -72.58,-0.48 c -24.53,0.21 -49.26,1.28 -73.79,-0.08 -14.22,-0.78 -29.18,-0.11 -43.44,0.36 -7.48,0.25 -17.6,-0.3 -22.51,-0.3 -21.69,0.03 -43.43,-0.44 -65.12,0.12 -20.3,0.52 -33.11,-0.22 -49.58,0.08 -18.819997,0.34 -39.929997,-3.18 -55.599997,9.8 q -0.39,0.32 -0.84,0.08 -1.28,-0.71 -1.83,-2.16 12.31,-11.05 28.48,-11.1 151.529997,-0.43 303.059997,0.01 c 1.34,0 2.87,-0.33 4.09,-0.32 q 48.58,0.33 97.16,0.19 13.55,-0.05 24.72,8.47 z"
     id="path115" />
  <path
     fill="#f4f3eb"
     d="m 500.72333,38.442857 q 12.61,9.95 16.16,24.45 1.35,5.5 1.37,19.91 c 0.03,26.740003 0.54,46.460003 -0.38,64.550003 -0.62,12.26 -4.61,20.83 -13.82,28.73 q -3.64,3.12 -7,6.06 -14.33,7.82 -31.55,7.83 -194.47,0.03 -388.939997,0 -13.45,-0.01 -28.05,-8.23 -2.59,-2.76 -5.6,-5.74 c -7.94,-7.87 -12.92,-17.39 -13.06,-28.58 q -0.58,-45.25 -0.05,-75.930003 0.3,-17.69 13.41,-30.3 0.55,1.45 1.83,2.16 0.45,0.24 0.84,-0.08 c 15.67,-12.98 36.78,-9.46 55.599997,-9.8 16.47,-0.3 29.28,0.44 49.58,-0.08 21.69,-0.56 43.43,-0.09 65.12,-0.12 4.91,0 15.03,0.55 22.51,0.3 14.26,-0.47 29.22,-1.14 43.44,-0.36 24.53,1.36 49.26,0.29 73.79,0.08 q 36.29,-0.33 72.58,0.48 c 2.14,0.04 4.37,-0.29 6.33,-0.26 q 21.34,0.36 42.68,0.32 11.31,-0.03 20.85,5.85 0.43,0.26 0.89,0.08 0.96,-0.37 1.47,-1.32 z M 55.083333,149.76286 c 3.53,11.28 15.23,19.88 26.67,19.97 97.409997,0.78 247.589997,0.05 376.989997,-0.03 q 8.72,-0.01 12.82,-1.03 c 9.83,-2.44 18.53,-9.42 21.86,-19.03 q 1.6,-4.59 1.71,-15 0.29,-26.8 0.01,-53.600003 c -0.19,-18.18 -14.43,-30.4 -32.39,-30.42 q -187.97,-0.17 -375.939997,-0.34 -13.86,-0.01 -23.25,7.98 -9.69,8.25 -9.75,22.22 -0.12,27.230003 -0.03,54.470003 0.03,10.73 1.3,14.81 z"
     id="path116" />
  <path
     fill="#042034"
     d="m 81.753333,169.73286 c -11.44,-0.09 -23.14,-8.69 -26.67,-19.97 q -1.27,-4.08 -1.3,-14.81 -0.09,-27.24 0.03,-54.470003 0.06,-13.97 9.75,-22.22 9.39,-7.99 23.25,-7.98 187.969997,0.17 375.939997,0.34 c 17.96,0.02 32.2,12.24 32.39,30.42 q 0.28,26.800003 -0.01,53.600003 -0.11,10.41 -1.71,15 c -3.33,9.61 -12.03,16.59 -21.86,19.03 q -4.1,1.02 -12.82,1.03 c -129.4,0.08 -279.58,0.81 -376.989997,0.03 z m 77.949997,-92.240003 -2.64,-0.08 q -33.27,-0.37 -65.339997,-0.1 c -6.74,0.05 -12.63,0.68 -12.52,8.67 q 0.32,23.660003 0.32,47.330003 c 0.01,12.51 13.48,8.69 21.629997,8.69 q 130.77,-0.1 261.54,-0.12 45.01,-0.01 90.01,0.14 c 5.73,0.02 16.73,2.23 16.79,-7.04 q 0.07,-13.96 -0.02,-48.380003 c -0.02,-6.59 -3.32,-9.37 -9.98,-9.37 q -146.66,0 -293.31,0 c -1.82,0 -4.26,0.4 -6.48,0.26 z"
     id="path117" />
  <path
     fill="#85d5e3"
     d="m 157.06333,77.412857 q -21,22.57 -42.12,43.580003 c -7.65,7.6 2.35,16.68 8.75,9.66 q 19.65,-21.57 40.53,-41.950003 c 3.38,-3.31 -0.64,-7.71 -2.28,-10.6 q -0.22,-0.38 -0.66,-0.36 -0.82,0.04 -1.58,-0.25 c 2.22,0.14 4.66,-0.26 6.48,-0.26 q 146.65,0 293.31,0 c 6.66,0 9.96,2.78 9.98,9.37 q 0.09,34.420003 0.02,48.380003 c -0.06,9.27 -11.06,7.06 -16.79,7.04 q -45,-0.15 -90.01,-0.14 -130.77,0.02 -261.54,0.12 c -8.149997,0 -21.619997,3.82 -21.629997,-8.69 q 0,-23.67 -0.32,-47.330003 c -0.11,-7.99 5.78,-8.62 12.52,-8.67 q 32.069997,-0.27 65.339997,0.1 z m 211.95,16.48 c 0.6,3.85 2.53,4.23 4.96,6.680003 q 0.35,0.37 0.35,0.87 c -0.09,8.35 0.2,16.8 -0.11,25.13 -0.33,8.71 13.39,8.2 13.42,-0.84 q 0.03,-14.38 -0.25,-28.740003 -0.09,-4.92 -1.55,-7.21 c -4.18,-6.58 -18.34,-5.61 -16.82,4.11 z m 52.3,15.910003 c -0.1,5.21 -0.57,13.53 0.55,18.48 1.13,5.02 8.66,5.91 11.42,2.23 q 1.26,-1.68 1.25,-4.83 -0.03,-16.07 -0.06,-32.140003 c -0.01,-6.73 -8.04,-9.42 -12.38,-4.48 q -7.18,8.16 -14.47,16.200003 -3.16,3.48 -3.7,5.24 c -1.5,4.92 3.97,9.56 8.85,7.77 q 2.7,-1 5.3,-2.98 a 1.15,1.19 73.9 0 0 0.44,-0.77 q 0.3,-2.75 1.77,-5.03 a 0.56,0.56 0 0 1 1.03,0.31 z M 315.04053,93.636457 a 6.51,6.51 0 0 0 -6.4872,-6.5327 l -0.44,-0.002 a 6.51,6.51 0 0 0 -6.5327,6.4872 l -0.1145,32.819803 a 6.51,6.51 0 0 0 6.4872,6.5327 l 0.44,0.002 a 6.51,6.51 0 0 0 6.5327,-6.4872 z m 32.6928,16.276403 a 8.08,8.08 0 0 0 -8.08,-8.08 8.08,8.08 0 0 0 -8.08,8.08 8.08,8.08 0 0 0 8.08,8.08 8.08,8.08 0 0 0 8.08,-8.08 z"
     id="path118" />
  <path
     fill="#fdfeff"
     d="m 157.06333,77.412857 2.64,0.08 q 0.76,0.29 1.58,0.25 0.44,-0.02 0.66,0.36 c 1.64,2.89 5.66,7.29 2.28,10.6 q -20.88,20.380003 -40.53,41.950003 c -6.4,7.02 -16.4,-2.06 -8.75,-9.66 q 21.12,-21.010003 42.12,-43.580003 z"
     id="path119" />
  <path
     fill="#042034"
     d="m 373.97333,100.57286 c -2.43,-2.450003 -4.36,-2.830003 -4.96,-6.680003 -1.52,-9.72 12.64,-10.69 16.82,-4.11 q 1.46,2.29 1.55,7.21 0.28,14.360003 0.25,28.740003 c -0.03,9.04 -13.75,9.55 -13.42,0.84 0.31,-8.33 0.02,-16.78 0.11,-25.13 q 0,-0.5 -0.35,-0.87 z"
     id="path120" />
  <path
     fill="#042034"
     d="m 421.31333,109.80286 a 0.56,0.56 0 0 0 -1.03,-0.31 q -1.47,2.28 -1.77,5.03 a 1.15,1.19 73.9 0 1 -0.44,0.77 q -2.6,1.98 -5.3,2.98 c -4.88,1.79 -10.35,-2.85 -8.85,-7.77 q 0.54,-1.76 3.7,-5.24 7.29,-8.040003 14.47,-16.200003 c 4.34,-4.94 12.37,-2.25 12.38,4.48 q 0.03,16.070003 0.06,32.140003 0.01,3.15 -1.25,4.83 c -2.76,3.68 -10.29,2.79 -11.42,-2.23 -1.12,-4.95 -0.65,-13.27 -0.55,-18.48 z"
     id="path121" />
  <rect
     fill="#042034"
     x="301.90552"
     y="86.026184"
     transform="rotate(0.2)"
     width="13.46"
     height="45.84"
     rx="6.5100002"
     id="rect121" />
  <circle
     fill="#042034"
     cx="339.65335"
     cy="109.91285"
     r="8.0799999"
     id="circle121" />
  <path
     fill="#c0c9ce"
     d="m 48.513333,181.74286 q 14.6,8.22 28.05,8.23 194.469997,0.03 388.939997,0 17.22,-0.01 31.55,-7.83 c -0.34,7.13 -1.05,13.62 5.05,17.89 q 15.1,10.57 16.07,29.84 -7.12,-4.53 -21.59,-14.7 -10.92,-7.67 -25.08,-7.8 c -54.28,-0.51 -108.52,-0.17 -162.81,-0.18 q -97.62,-0.03 -195.24,-0.27 -0.05,0 -7.28,0.24 c -11.379997,0.38 -29.669997,-2.3 -42.189997,1.63 -12.68,3.98 -24.18,15.09 -32.58,24.3 q -0.31,0.35 -0.77,0.46 l -1.04,0.25 q -1.07,-16.09 7.75,-27.34 c 2.44,-3.11 6.65,-5.92 9.57,-9.04 a 4.99,5.01 67 0 0 1.35,-3.31 z"
     id="path122" />
  <path
     fill="#f4f3eb"
     d="m 518.17333,229.87286 c 0.44,97.73 0.36,201.69 0.28,324.61 q -0.01,19.9 -0.89,35.05 -5.76,6.5 -11.86,8.63 c -11.32,3.95 -26.45,9.83 -39.95,9.95 -93.55,0.77 -181.49,0.4 -272.17,0.06 q -0.29,0 -0.53,0.18 -0.17,0.12 -0.3,0.12 -55.59,0.11 -111.189997,-0.34 c -2.9,-0.02 -6.93,-0.43 -10.37,-1.21 q -13.01,-2.92 -26.19,-4.92 -2.79,-0.43 -12.18,-4.75 -3.29,-7.1 -3.3,-12.08 c -0.12,-117.12 -0.07,-234.26 0.07,-351.37 l 1.04,-0.25 q 0.46,-0.11 0.77,-0.46 c 8.4,-9.21 19.9,-20.32 32.58,-24.3 12.52,-3.93 30.81,-1.25 42.189997,-1.63 q 7.23,-0.24 7.28,-0.24 97.62,0.24 195.24,0.27 c 54.29,0.01 108.53,-0.33 162.81,0.18 q 14.16,0.13 25.08,7.8 14.47,10.17 21.59,14.7 z m -374.52,5.9 a 23.38,23.38 0 0 0 -23.38,-23.38 H 69.293333 a 23.38,23.38 0 0 0 -23.38,23.38 v 70.78 a 23.38,23.38 0 0 0 23.38,23.38 h 50.979997 a 23.38,23.38 0 0 0 23.38,-23.38 z m 15.88,24.34 q -1.35,9.5 0.32,18.95 -0.66,1.6 -0.62,4.67 0.11,9.88 0.28,19.75 c 0.29,16.97 12.06,25.91 27.99,25.95 q 82.07,0.22 164.14,-0.21 9.43,-0.05 13.92,-1.51 c 12.58,-4.09 17.3,-14.44 17.35,-27.01 q 0.13,-29.74 0.12,-59.48 c -0.01,-12.88 -2.64,-23.24 -15.66,-27.54 q -4.39,-1.45 -13.92,-1.45 -81.23,0 -162.43,0.01 c -14.14,0 -25.85,1.97 -30.29,16.41 -2.55,8.3 -1.18,21.85 -1.2,31.46 z m 342.089,-23.6132 a 24.23,24.23 0 0 0 -24.3144,-24.1453 l -50.8997,0.1777 a 24.23,24.23 0 0 0 -24.1453,24.3144 l 0.2414,69.1396 a 24.23,24.23 0 0 0 24.3144,24.1453 l 50.8997,-0.1777 a 24.23,24.23 0 0 0 24.1453,-24.3144 z M 46.543333,447.22286 c 1.77,8.68 10.69,17.46 19.71,17.79 q 15.88,0.57 51.559997,0.11 c 12.59,-0.16 25.05,-8.39 25.71,-21.65 q 0.38,-7.67 0.18,-30.18 -0.15,-17.17 -0.06,-34.34 c 0.08,-14.97 -0.04,-27.21 -14.93,-32.19 q -4.55,-1.52 -14.58,-1.55 -21.369997,-0.07 -42.729997,0.15 c -10.85,0.11 -19.92,3.39 -23.81,13.98 q -1.6,4.36 -1.7,14.95 -0.3,30.85 -0.23,61.69 0.01,6.99 0.88,11.24 z m 221.999997,127.63 q 2.33,-0.76 2.71,0.36 c -0.53,13.73 8.55,25.98 22.75,26 q 31.63,0.03 63.26,0.02 c 15.88,0 25.51,-8.83 25.72,-25.5 q 0.59,-48.38 0.39,-65.1 -0.2,-16.12 -0.15,-32.24 0.16,-52.7 -0.23,-105.49 -0.06,-8.9 -1.54,-13.04 c -6.22,-17.51 -24.08,-14.42 -39.7,-14.4 -50.26,0.07 -100.57,-0.46 -150.82,-0.04 q -11.07,0.09 -15.73,1.72 c -12.51,4.38 -15.27,15.01 -15.32,27.58 q -0.39,94.9 0.13,189.79 0.08,16.03 0.94,19.36 c 2.91,11.24 12.24,17.37 23.8,17.36 q 29.25,0 58.52,0 c 16.11,0 25.41,-9.41 25.27,-26.38 z m 133.97,2.88 c -0.33,12.48 9.5,23.5 22.25,23.5 q 24.51,0 49.03,0 7.77,0 11.75,-1.38 c 10.48,-3.63 16.2,-12.94 16.2,-24.12 q 0,-102.59 0.03,-205.2 c 0,-15.56 -8.24,-25.23 -24.79,-25.16 -17.15,0.07 -31.69,-0.24 -46.31,0 -12.72,0.22 -22.72,2.58 -26.98,15.13 q -1.44,4.22 -1.44,13.14 0,99.84 0.01,199.68 c 0,1.15 0.29,2.81 0.25,4.41 z m -258.9395,-78.8854 a 22.7,22.7 0 0 0 -22.7396,-22.6603 l -52.479897,0.0916 a 22.7,22.7 0 0 0 -22.6604,22.7396 l 0.1389,79.5599 a 22.7,22.7 0 0 0 22.7396,22.6603 l 52.479897,-0.0916 a 22.7,22.7 0 0 0 22.6604,-22.7396 z"
     id="path123" />
  <path
     fill="#042034"
     d="m 143.65333,306.55286 a 23.38,23.38 0 0 1 -23.38,23.38 H 69.293333 a 23.38,23.38 0 0 1 -23.38,-23.38 v -70.78 a 23.38,23.38 0 0 1 23.38,-23.38 h 50.979997 a 23.38,23.38 0 0 1 23.38,23.38 z m -73.679997,-61.12 -0.01,51.28 c -1,10.08 4.81,9.73 12.84,9.78 q 14.97,0.08 29.939997,-0.14 c 3.77,-0.05 6.47,-1.33 6.5,-5.37 q 0.19,-23.94 -0.15,-60.57 -1.89,-2.84 -5.11,-2.86 -17.609997,-0.07 -35.219997,-0.09 c -2.63,-0.01 -5.89,-1 -7.76,1.52 q -1.91,2.58 -1.03,6.45 z"
     id="path124" />
  <path
     fill="#042034"
     d="m 159.85333,279.06286 q 3.8,-2.99 8.23,-2.78 8.02,-0.42 11.7,0.67 c 4.02,1.19 3.68,4.74 3.68,8.27 q 0,6.62 0.04,13.72 0.46,6.43 6.75,6.35 c 53.47,-0.62 107.02,-0.03 160.51,-0.07 q 7.58,-0.01 7.25,-8.42 -0.1,-7.63 -0.55,-16.32 -0.28,-5.46 5.23,-7.18 a 0.84,0.83 86.6 0 0 0.57,-0.65 q 0.73,-4.5 -0.6,-8.86 -0.15,-0.5 -0.64,-0.66 -4.43,-1.55 -4.01,-6.89 0.44,-5.58 -0.27,-16.2 -2.05,-3.87 -6.24,-3.81 -22.63,0.32 -45.24,-0.01 c -17.17,-0.25 -9.89,16.74 -18.26,23.98 q -14.79,12.77 -31.22,2.01 c -9.23,-6.05 -4.86,-23.11 -16.53,-25.46 q -3.45,-0.69 -9.17,-0.51 c -13.12,0.41 -26.25,0.23 -39.37,0.24 -5.67,0.01 -9.19,1.93 -8.44,8.1 q 0.06,4.3 -0.07,8.41 c -0.16,5.24 0.33,8.68 -5.61,9.31 q -7.61,0.82 -11.84,0.72 -3.08,-0.48 -6.22,-2.91 c 0.02,-9.61 -1.35,-23.16 1.2,-31.46 4.44,-14.44 16.15,-16.41 30.29,-16.41 q 81.2,-0.01 162.43,-0.01 9.53,0 13.92,1.45 c 13.02,4.3 15.65,14.66 15.66,27.54 q 0.01,29.74 -0.12,59.48 c -0.05,12.57 -4.77,22.92 -17.35,27.01 q -4.49,1.46 -13.92,1.51 -82.07,0.43 -164.14,0.21 c -15.93,-0.04 -27.7,-8.98 -27.99,-25.95 q -0.17,-9.87 -0.28,-19.75 -0.04,-3.07 0.62,-4.67 z"
     id="path125" />
  <path
     fill="#042034"
     d="m 501.86373,305.63926 a 24.23,24.23 0 0 1 -24.1453,24.3144 l -50.8997,0.1777 a 24.23,24.23 0 0 1 -24.3144,-24.1453 l -0.2414,-69.1396 a 24.23,24.23 0 0 1 24.1453,-24.3144 l 50.8997,-0.1777 a 24.23,24.23 0 0 1 24.3144,24.1453 z m -74.8404,-59.9164 -0.26,53.29 q 0.54,7.57 7.73,7.38 17.75,-0.47 35.51,-0.04 6.27,0.15 6.5,-6.35 0.31,-8.33 0.27,-11.27 -0.29,-23.91 -0.24,-48.54 -2.72,-2.72 -4.53,-2.72 -18.02,0.02 -36.05,0 c -2.81,0 -5.7,-1.27 -7.84,1.38 q -2.23,2.79 -1.09,6.87 z"
     id="path126" />
  <path
     fill="#fdfeff"
     d="m 357.74333,240.04286 q -6.69,4.21 -10.49,4.25 -20.11,0.22 -40.28,0.43 -4.54,0.04 -4.52,4.58 c 0.1,21.05 -19.95,31.61 -38.62,27.81 -12,-2.44 -23.57,-11.99 -23.98,-25.15 -0.15,-4.59 -0.88,-7.05 -5.85,-7.13 q -34.39,-0.49 -50.73,-0.25 c -0.75,-6.17 2.77,-8.09 8.44,-8.1 13.12,-0.01 26.25,0.17 39.37,-0.24 q 5.72,-0.18 9.17,0.51 c 11.67,2.35 7.3,19.41 16.53,25.46 q 16.43,10.76 31.22,-2.01 c 8.37,-7.24 1.09,-24.23 18.26,-23.98 q 22.61,0.33 45.24,0.01 4.19,-0.06 6.24,3.81 z"
     id="path127" />
  <path
     fill="#fdfeff"
     d="m 119.09333,240.41286 c -5.9,4.02 -8.17,5.25 -15.37,5.05 l -33.749997,-0.03 q -0.88,-3.87 1.03,-6.45 c 1.87,-2.52 5.13,-1.53 7.76,-1.52 q 17.61,0.02 35.219997,0.09 3.22,0.02 5.11,2.86 z"
     id="path128" />
  <path
     fill="#fdfeff"
     d="m 476.53333,240.19286 q -7.02,5.08 -13.45,5.38 -17.84,-0.86 -36.06,0.15 -1.14,-4.08 1.09,-6.87 c 2.14,-2.65 5.03,-1.38 7.84,-1.38 q 18.03,0.02 36.05,0 1.81,0 4.53,2.72 z"
     id="path129" />
  <path
     fill="#94a4b0"
     d="m 357.74333,240.04286 q 0.71,10.62 0.27,16.2 -0.42,5.34 4.01,6.89 0.49,0.16 0.64,0.66 1.33,4.36 0.6,8.86 a 0.84,0.83 86.6 0 1 -0.57,0.65 q -5.51,1.72 -5.23,7.18 0.45,8.69 0.55,16.32 -46.03,0.35 -91.95,0.08 c -26.69,-0.16 -53.38,0.2 -80.06,0.06 q -0.94,-0.01 -2.5,2 -0.04,-7.1 -0.04,-13.72 c 0,-3.53 0.34,-7.08 -3.68,-8.27 q -3.68,-1.09 -11.7,-0.67 -0.5,-5.52 -0.39,-10.99 0.04,-2.26 -1.94,-2.27 4.23,0.1 11.84,-0.72 c 5.94,-0.63 5.45,-4.07 5.61,-9.31 q 0.13,-4.11 0.07,-8.41 16.34,-0.24 50.73,0.25 c 4.97,0.08 5.7,2.54 5.85,7.13 0.41,13.16 11.98,22.71 23.98,25.15 18.67,3.8 38.72,-6.76 38.62,-27.81 q -0.02,-4.54 4.52,-4.58 20.17,-0.21 40.28,-0.43 3.8,-0.04 10.49,-4.25 z"
     id="path130" />
  <path
     fill="#e7715e"
     d="m 476.53333,240.19286 q -0.05,24.63 0.24,48.54 0.04,2.94 -0.27,11.27 -0.23,6.5 -6.5,6.35 -17.76,-0.43 -35.51,0.04 -7.19,0.19 -7.73,-7.38 l 2.12,-1.95 a 1.24,1.22 23.4 0 1 0.83,-0.32 l 29.77,-0.03 q 1.76,-0.01 1.98,-1.75 0.2,-1.63 0.14,-4.22 -0.46,-19.01 -0.07,-38.01 0.07,-3.17 1.55,-7.16 6.43,-0.3 13.45,-5.38 z"
     id="path131" />
  <path
     fill="#137e91"
     d="m 119.09333,240.41286 q 0.34,36.63 0.15,60.57 c -0.03,4.04 -2.73,5.32 -6.5,5.37 q -14.969997,0.22 -29.939997,0.14 c -8.03,-0.05 -13.84,0.3 -12.84,-9.78 l 32.729997,-0.75 q 1.84,-0.04 1.84,-1.88 v -46.2 q 0,-0.39 -0.29,-0.65 -0.87,-0.76 -0.52,-1.77 c 7.2,0.2 9.47,-1.03 15.37,-5.05 z"
     id="path132" />
  <path
     fill="#219fb0"
     d="m 103.72333,245.46286 q -0.35,1.01 0.52,1.77 0.29,0.26 0.29,0.65 v 46.2 q 0,1.84 -1.84,1.88 l -32.729997,0.75 0.01,-51.28 z"
     id="path133" />
  <path
     fill="#fe8975"
     d="m 463.08333,245.57286 q -1.48,3.99 -1.55,7.16 -0.39,19 0.07,38.01 0.06,2.59 -0.14,4.22 -0.22,1.74 -1.98,1.75 l -29.77,0.03 a 1.24,1.22 23.4 0 0 -0.83,0.32 l -2.12,1.95 0.26,-53.29 q 18.22,-1.01 36.06,-0.15 z"
     id="path134" />
  <path
     fill="#c0c9ce"
     d="m 159.53333,260.11286 q 3.14,2.43 6.22,2.91 1.98,0.01 1.94,2.27 -0.11,5.47 0.39,10.99 -4.43,-0.21 -8.23,2.78 -1.67,-9.45 -0.32,-18.95 z"
     id="path135" />
  <path
     fill="#788c9a"
     d="m 358.01333,296.80286 q 0.33,8.41 -7.25,8.42 c -53.49,0.04 -107.04,-0.55 -160.51,0.07 q -6.29,0.08 -6.75,-6.35 1.56,-2.01 2.5,-2 c 26.68,0.14 53.37,-0.22 80.06,-0.06 q 45.92,0.27 91.95,-0.08 z"
     id="path136" />
  <path
     fill="#042034"
     d="m 66.253333,465.01286 c -9.02,-0.33 -17.94,-9.11 -19.71,-17.79 q -0.87,-4.25 -0.88,-11.24 -0.07,-30.84 0.23,-61.69 0.1,-10.59 1.7,-14.95 c 3.89,-10.59 12.96,-13.87 23.81,-13.98 q 21.36,-0.22 42.729997,-0.15 10.03,0.03 14.58,1.55 c 14.89,4.98 15.01,17.22 14.93,32.19 q -0.09,17.17 0.06,34.34 0.2,22.51 -0.18,30.18 c -0.66,13.26 -13.12,21.49 -25.71,21.65 q -35.679997,0.46 -51.559997,-0.11 z m 3.58,-87.53 0.13,60.58 q 2.64,3.53 5.29,3.48 18.9,-0.32 37.789997,-0.34 c 3.19,-0.01 6.35,-1.41 6.43,-4.78 q 0.37,-15.18 -0.16,-62.92 -2.03,-3.67 -4.32,-3.61 -20.909997,0.54 -41.929997,0.03 a 1.47,1.49 27.3 0 0 -0.92,0.3 q -3.32,2.56 -2.31,7.26 z"
     id="path137" />
  <path
     fill="#042034"
     d="m 271.25333,575.21286 q 0,-35.09 0,-70.23 0,-10.2 1.46,-14.84 4.79,-15.21 22.97,-16.99 c 17.34,0.09 34.94,-0.53 52.16,0.42 10.09,0.55 11.55,-1.27 10.88,-11.11 l -0.4,-89.49 q 0.37,-1.21 -0.07,-2.43 -0.17,-0.47 -0.66,-0.6 -1.25,-0.31 -2.59,-0.3 -39.5,0.45 -79,0.11 c -5.39,-0.04 -7.48,3.84 -7.48,8.94 q 0.06,48.28 -0.33,96.53 l 0.35,99.63 c 0.14,16.97 -9.16,26.38 -25.27,26.38 q -29.27,0 -58.52,0 c -11.56,0.01 -20.89,-6.12 -23.8,-17.36 q -0.86,-3.33 -0.94,-19.36 -0.52,-94.89 -0.13,-189.79 c 0.05,-12.57 2.81,-23.2 15.32,-27.58 q 4.66,-1.63 15.73,-1.72 c 50.25,-0.42 100.56,0.11 150.82,0.04 15.62,-0.02 33.48,-3.11 39.7,14.4 q 1.48,4.14 1.54,13.04 0.39,52.79 0.23,105.49 -0.05,16.12 0.15,32.24 0.2,16.72 -0.39,65.1 c -0.21,16.67 -9.84,25.5 -25.72,25.5 q -31.63,0.01 -63.26,-0.02 c -14.2,-0.02 -23.28,-12.27 -22.75,-26 z m -87.99,-195.9 -0.01,83.46 c -0.21,5.54 0.49,10.45 7.34,10.45 q 25.48,0.03 50.69,0 a 2.69,2.69 0 0 0 2.69,-2.61 l 0.23,-8.26 0.04,-84.3 -0.43,-6.14 q -0.03,-0.53 -0.47,-0.83 -1.85,-1.26 -3.84,-1.21 -18.36,0.48 -51.25,0.06 c -5.58,-0.07 -5.02,5.52 -4.99,9.38 z m 0.02,127.44 -0.01,61.57 c -0.08,10.9 7.97,9.47 15.31,9.29 13.42,-0.33 26.89,-0.13 40.31,-0.13 5.83,0 5.7,-5.45 5.13,-9.88 l 0.11,-61.67 c 0.34,-2.63 1.03,-9.26 -2.88,-9.24 q -26.78,0.18 -53.57,-0.12 c -5.33,-0.06 -4.94,6.46 -4.4,10.18 z m 110.53,0.34 -0.15,61.14 q -0.16,9.45 9.07,9.48 25.1,0.07 50.21,0.05 c 5.73,-0.01 6.19,-5.38 5.79,-9.7 l -0.14,-64.81 -0.1,-6.21 q 0,-0.51 -0.52,-0.52 -28.75,-0.17 -57.5,0.1 c -6.52,0.06 -7.42,4.9 -6.66,10.47 z"
     id="path138" />
  <path
     fill="#042034"
     d="m 424.76333,601.23286 c -12.75,0 -22.58,-11.02 -22.25,-23.5 0.04,-1.6 -0.25,-3.26 -0.25,-4.41 q -0.01,-99.84 -0.01,-199.68 0,-8.92 1.44,-13.14 c 4.26,-12.55 14.26,-14.91 26.98,-15.13 14.62,-0.24 29.16,0.07 46.31,0 16.55,-0.07 24.79,9.6 24.79,25.16 q -0.03,102.61 -0.03,205.2 c 0,11.18 -5.72,20.49 -16.2,24.12 q -3.98,1.38 -11.75,1.38 -24.52,0 -49.03,0 z m 2.68,-223.09 -0.29,189.76 q -1.12,6.3 3.66,9.55 a 1.67,1.64 61.4 0 0 0.92,0.28 q 19.16,0 38.3,0 c 3.4,0 6.79,-0.96 6.86,-4.75 0.76,-40.41 -0.34,-102.52 0.27,-153.75 q 0.28,-23.27 -0.54,-46.54 -2.6,-2.83 -4.38,-2.78 -20.61,0.65 -41.33,0.06 a 1.58,1.58 0 0 0 -0.93,0.28 q -3.77,2.56 -2.54,7.89 z"
     id="path139" />
  <path
     fill="#fdfeff"
     d="m 358.32333,372.97286 c -6.08,3.97 -14.75,5.09 -21.82,5.77 q -7.95,0.77 -28.29,1.13 -8.81,0.16 -12.37,5.97 -2.46,-0.16 -3.57,-1.63 c -5.3,-7.06 -21.48,-7.47 -21.61,4.05 -0.37,34.19 0.17,58.05 -0.49,86.75 q -0.01,0.51 -0.49,0.7 -0.72,0.29 -1.49,-0.49 0.39,-48.25 0.33,-96.53 c 0,-5.1 2.09,-8.98 7.48,-8.94 q 39.5,0.34 79,-0.11 1.34,-0.01 2.59,0.3 0.49,0.13 0.66,0.6 0.44,1.22 0.07,2.43 z"
     id="path140" />
  <path
     fill="#fdfeff"
     d="m 119.31333,373.50286 c -4.71,2.01 -8.52,4.51 -13.52,3.89 -10.639997,-0.9 -25.069997,-1.03 -35.959997,0.09 q -1.01,-4.7 2.31,-7.26 a 1.47,1.49 27.3 0 1 0.92,-0.3 q 21.02,0.51 41.929997,-0.03 2.29,-0.06 4.32,3.61 z"
     id="path141" />
  <path
     fill="#fdfeff"
     d="m 244.24333,378.05286 -56.61,0.02 q -2.47,0.11 -4.37,1.24 c -0.03,-3.86 -0.59,-9.45 4.99,-9.38 q 32.89,0.42 51.25,-0.06 1.99,-0.05 3.84,1.21 0.44,0.3 0.47,0.83 z"
     id="path142" />
  <path
     fill="#fdfeff"
     d="m 476.62333,372.69286 q -6.74,6.26 -15.15,5.29 l -34.03,0.16 q -1.23,-5.33 2.54,-7.89 a 1.58,1.58 0 0 1 0.93,-0.28 q 20.72,0.59 41.33,-0.06 1.78,-0.05 4.38,2.78 z"
     id="path143" />
  <path
     fill="#137e91"
     d="m 476.62333,372.69286 q 0.82,23.27 0.54,46.54 c -0.61,51.23 0.49,113.34 -0.27,153.75 -0.07,3.79 -3.46,4.75 -6.86,4.75 q -19.14,0 -38.3,0 a 1.67,1.64 61.4 0 1 -0.92,-0.28 q -4.78,-3.25 -3.66,-9.55 l 33.14,-0.82 a 1.09,1.09 0 0 0 1.06,-1.13 c -1.08,-27.4 0.34,-50.28 -0.69,-82.22 -0.52,-16.26 0.53,-33.29 0.54,-48.94 q 0.04,-36.98 0.27,-56.81 8.41,0.97 15.15,-5.29 z"
     id="path144" />
  <path
     fill="#94a4b0"
     d="m 358.32333,372.97286 0.4,89.49 -62.94,0.46 0.06,-77.08 q 3.56,-5.81 12.37,-5.97 20.34,-0.36 28.29,-1.13 c 7.07,-0.68 15.74,-1.8 21.82,-5.77 z m -28.4,39.62 c -4.51,3.39 -6.66,7.7 0.6,9.77 a 1.35,1.35 0 0 1 0.9,1.76 c -1.8,5 -4.58,4.42 -8.54,2.56 -3.36,-1.58 -10.27,-1.87 -10.41,3.41 -0.3,10.69 14.69,10.65 21.8,8.68 9.56,-2.66 12.06,-13.65 6.16,-21.26 a 0.68,0.67 45.8 0 1 0.01,-0.85 c 5.59,-6.78 3.4,-17.49 -5.16,-20.49 -6.49,-2.28 -20.87,-1.77 -22.03,7.56 -0.89,7.06 7.63,10.16 11.38,4.05 a 1.21,1.16 1.3 0 1 0.46,-0.42 c 3.73,-1.88 9.62,1.64 4.83,5.23 z"
     id="path145" />
  <path
     fill="#e7715e"
     d="m 119.31333,373.50286 q 0.53,47.74 0.16,62.92 c -0.08,3.37 -3.24,4.77 -6.43,4.78 q -18.889997,0.02 -37.789997,0.34 -2.65,0.05 -5.29,-3.48 1.48,0.39 1.56,-0.83 c 0.09,-1.51 -1.38,-2.17 -0.29,-3.87 q 0.28,-0.45 0.8,-0.55 c 1.16,-0.23 2.27,-0.54 3.44,-0.58 q 14.03,-0.46 27.279997,-0.53 1.11,0 1.12,-1.11 l 0.45,-50.97 q 0,-0.49 0.32,-0.88 l 1.15,-1.35 c 5,0.62 8.81,-1.88 13.52,-3.89 z"
     id="path146" />
  <path
     fill="#fe8975"
     d="m 105.79333,377.39286 -1.15,1.35 q -0.32,0.39 -0.32,0.88 l -0.45,50.97 q -0.01,1.11 -1.12,1.11 -13.249997,0.07 -27.279997,0.53 c -1.17,0.04 -2.28,0.35 -3.44,0.58 q -0.52,0.1 -0.8,0.55 c -1.09,1.7 0.38,2.36 0.29,3.87 q -0.08,1.22 -1.56,0.83 l -0.13,-60.58 c 10.89,-1.12 25.32,-0.99 35.959997,-0.09 z"
     id="path147" />
  <path
     fill="#94a4b0"
     d="m 244.24333,378.05286 -0.04,84.3 -56.34,0.22 c 1.35,-28.15 -0.38,-54.65 -0.23,-84.5 z m -39.16,35.9 c -7.41,1.08 -6.8,13.07 2.43,12.26 q 1.56,-0.14 5.98,0.09 0.53,0.02 0.52,0.55 c -0.09,3.61 -0.86,9.96 3.32,11.55 5.75,2.19 9.69,-1.1 9.81,-6.83 q 0.3,-13.45 0.18,-26.9 c -0.08,-8.4 -11.96,-10.88 -13.13,-0.73 q -0.49,4.3 0.24,8.54 a 0.86,0.86 0 0 1 -0.87,1.01 q -4.27,-0.16 -8.48,0.46 z"
     id="path148" />
  <path
     fill="#219fb0"
     d="m 461.47333,377.98286 q -0.23,19.83 -0.27,56.81 c -0.01,15.65 -1.06,32.68 -0.54,48.94 1.03,31.94 -0.39,54.82 0.69,82.22 a 1.09,1.09 0 0 1 -1.06,1.13 l -33.14,0.82 0.29,-189.76 z m -2.73,94.72 a 9.1,9.1 0 0 0 -9.1,-9.1 9.1,9.1 0 0 0 -9.1,9.1 9.1,9.1 0 0 0 9.1,9.1 9.1,9.1 0 0 0 9.1,-9.1 z"
     id="path149" />
  <path
     fill="#c0c9ce"
     d="m 187.63333,378.07286 c -0.15,29.85 1.58,56.35 0.23,84.5 l -4.61,0.2 0.01,-83.46 q 1.9,-1.13 4.37,-1.24 z"
     id="path150" />
  <path
     fill="#c0c9ce"
     d="m 295.84333,385.84286 -0.06,77.08 -0.1,10.23 q -18.18,1.78 -22.97,16.99 -1.46,4.64 -1.46,14.84 0,35.14 0,70.23 -0.38,-1.12 -2.71,-0.36 l -0.35,-99.63 q 0.77,0.78 1.49,0.49 0.48,-0.19 0.49,-0.7 c 0.66,-28.7 0.12,-52.56 0.49,-86.75 0.13,-11.52 16.31,-11.11 21.61,-4.05 q 1.11,1.47 3.57,1.63 z"
     id="path151" />
  <path
     fill="#042034"
     d="m 329.92333,412.59286 c 4.79,-3.59 -1.1,-7.11 -4.83,-5.23 a 1.21,1.16 1.3 0 0 -0.46,0.42 c -3.75,6.11 -12.27,3.01 -11.38,-4.05 1.16,-9.33 15.54,-9.84 22.03,-7.56 8.56,3 10.75,13.71 5.16,20.49 a 0.68,0.67 45.8 0 0 -0.01,0.85 c 5.9,7.61 3.4,18.6 -6.16,21.26 -7.11,1.97 -22.1,2.01 -21.8,-8.68 0.14,-5.28 7.05,-4.99 10.41,-3.41 3.96,1.86 6.74,2.44 8.54,-2.56 a 1.35,1.35 0 0 0 -0.9,-1.76 c -7.26,-2.07 -5.11,-6.38 -0.6,-9.77 z"
     id="path152" />
  <path
     fill="#042034"
     d="m 207.51333,426.21286 c -9.23,0.81 -9.84,-11.18 -2.43,-12.26 q 4.21,-0.62 8.48,-0.46 a 0.86,0.86 0 0 0 0.87,-1.01 q -0.73,-4.24 -0.24,-8.54 c 1.17,-10.15 13.05,-7.67 13.13,0.73 q 0.12,13.45 -0.18,26.9 c -0.12,5.73 -4.06,9.02 -9.81,6.83 -4.18,-1.59 -3.41,-7.94 -3.32,-11.55 q 0.01,-0.53 -0.52,-0.55 -4.42,-0.23 -5.98,-0.09 z"
     id="path153" />
  <path
     fill="#788c9a"
     d="m 244.20333,462.35286 -0.23,8.26 a 2.69,2.69 0 0 1 -2.69,2.61 q -25.21,0.03 -50.69,0 c -6.85,0 -7.55,-4.91 -7.34,-10.45 l 4.61,-0.2 z"
     id="path154" />
  <path
     fill="#788c9a"
     d="m 358.72333,462.46286 c 0.67,9.84 -0.79,11.66 -10.88,11.11 -17.22,-0.95 -34.82,-0.33 -52.16,-0.42 l 0.1,-10.23 z"
     id="path155" />
  <circle
     fill="#042034"
     cx="449.64334"
     cy="472.70282"
     r="9.1000004"
     id="circle155" />
  <path
     fill="#042034"
     d="m 143.71273,578.40736 a 22.7,22.7 0 0 1 -22.6604,22.7396 l -52.479897,0.0916 a 22.7,22.7 0 0 1 -22.7396,-22.6603 l -0.1389,-79.5599 a 22.7,22.7 0 0 1 22.6604,-22.7396 l 52.479897,-0.0916 a 22.7,22.7 0 0 1 22.7396,22.6603 z m -73.869397,-69.6545 -0.26,61.18 c 0.26,5.21 2.52,7.1 7.76,7.07 11.01,-0.05 22.29,-0.44 33.259997,0.28 3.91,0.26 8.78,-0.83 8.87,-5.37 q 0.4,-20.32 -0.21,-68.04 -2.96,-3.11 -6.28,-3.12 -19.869997,-0.03 -39.849997,-0.02 a 1.55,1.52 26.6 0 0 -0.9,0.29 q -3.78,2.65 -2.39,7.73 z"
     id="path156" />
  <path
     fill="#fdfeff"
     d="m 244.13333,505.93286 -56.72,0.07 -4.13,0.75 c -0.54,-3.72 -0.93,-10.24 4.4,-10.18 q 26.79,0.3 53.57,0.12 c 3.91,-0.02 3.22,6.61 2.88,9.24 z"
     id="path157" />
  <path
     fill="#fdfeff"
     d="m 358.59333,503.25286 q -7.77,2.79 -14.09,2.76 -23.23,-0.09 -46.53,0.02 -2.52,1.11 -4.16,1.06 c -0.76,-5.57 0.14,-10.41 6.66,-10.47 q 28.75,-0.27 57.5,-0.1 0.52,0.01 0.52,0.52 z"
     id="path158" />
  <path
     fill="#fdfeff"
     d="m 119.26333,503.87286 q -7.46,4.55 -14.78,4.49 -15.039997,-0.75 -29.919997,-0.33 -2.09,0.06 -4.72,0.72 -1.39,-5.08 2.39,-7.73 a 1.55,1.52 26.6 0 1 0.9,-0.29 q 19.98,-0.01 39.849997,0.02 3.32,0.01 6.28,3.12 z"
     id="path159" />
  <path
     fill="#94a4b0"
     d="m 358.59333,503.25286 0.14,64.81 -61.14,-0.08 q -0.03,0 -0.03,-0.02 0.01,-0.13 0.01,-0.25 l 0.4,-61.68 q 23.3,-0.11 46.53,-0.02 6.32,0.03 14.09,-2.76 z m -14.8804,35.7363 a 6,6 0 0 0 -6.0105,-5.9895 l -26.5999,0.0464 a 6,6 0 0 0 -5.9895,6.0105 l 7e-4,0.42 a 6,6 0 0 0 6.0105,5.9895 l 26.5999,-0.0464 a 6,6 0 0 0 5.9895,-6.0105 z"
     id="path160" />
  <path
     fill="#e7715e"
     d="m 119.26333,503.87286 q 0.61,47.72 0.21,68.04 c -0.09,4.54 -4.96,5.63 -8.87,5.37 -10.969997,-0.72 -22.249997,-0.33 -33.259997,-0.28 -5.24,0.03 -7.5,-1.86 -7.76,-7.07 q 1.09,-0.14 1.61,-1.42 0.21,-0.51 0.77,-0.53 13.86,-0.32 27.73,-0.58 1.639997,-0.03 3.309997,-0.42 0.53,-0.13 0.62,-0.66 0.43,-2.45 0.41,-3.84 -0.46,-27.04 0.45,-54.12 7.32,0.06 14.78,-4.49 z"
     id="path161" />
  <path
     fill="#94a4b0"
     d="m 244.13333,505.93286 -0.11,61.67 -56.45,0.15 q 0.71,-4.55 0.69,-6.59 -0.15,-14.53 -0.29,-29.07 c -0.08,-8.59 0.47,-17.52 -0.56,-26.09 z m -19.93,34.324 a 8.93,9.18 89.9 0 0 -9.1956,-8.914 8.93,9.18 89.9 0 0 -9.1644,8.946 8.93,9.18 89.9 0 0 9.1956,8.914 8.93,9.18 89.9 0 0 9.1644,-8.946 z"
     id="path162" />
  <path
     fill="#c0c9ce"
     d="m 187.41333,506.00286 c 1.03,8.57 0.48,17.5 0.56,26.09 q 0.14,14.54 0.29,29.07 0.02,2.04 -0.69,6.59 -1.99,-0.54 -4.3,0.57 l 0.01,-61.57 z"
     id="path163" />
  <path
     fill="#c0c9ce"
     d="m 297.97333,506.03286 -0.4,61.68 -3.91,0.52 0.15,-61.14 q 1.64,0.05 4.16,-1.06 z"
     id="path164" />
  <path
     fill="#fe8975"
     d="m 104.48333,508.36286 q -0.91,27.08 -0.45,54.12 0.02,1.39 -0.41,3.84 -0.09,0.53 -0.62,0.66 -1.67,0.39 -3.309997,0.42 -13.87,0.26 -27.73,0.58 -0.56,0.02 -0.77,0.53 -0.52,1.28 -1.61,1.42 l 0.26,-61.18 q 2.63,-0.66 4.72,-0.72 14.88,-0.42 29.919997,0.33 z"
     id="path165" />
  <ellipse
     fill="#042034"
     cx="214.08003"
     cy="540.64734"
     transform="rotate(-0.1)"
     rx="9.1800003"
     ry="8.9300003"
     id="ellipse165" />
  <rect
     fill="#042034"
     x="304.17169"
     y="533.58826"
     transform="rotate(-0.1)"
     width="38.599998"
     height="12.42"
     rx="6"
     id="rect165" />
  <path
     fill="#788c9a"
     d="m 187.57333,567.75286 56.45,-0.15 c 0.57,4.43 0.7,9.88 -5.13,9.88 -13.42,0 -26.89,-0.2 -40.31,0.13 -7.34,0.18 -15.39,1.61 -15.31,-9.29 q 2.31,-1.11 4.3,-0.57 z"
     id="path166" />
  <path
     fill="#788c9a"
     d="m 358.73333,568.06286 c 0.4,4.32 -0.06,9.69 -5.79,9.7 q -25.11,0.02 -50.21,-0.05 -9.23,-0.03 -9.07,-9.48 l 3.91,-0.52 q 0,0.12 -0.01,0.25 0,0.02 0.03,0.02 z"
     id="path167" />
  <path
     fill="#c0c9ce"
     d="m 517.56333,589.53286 c -4.12,16.68 -15.92,28.42 -32.24,32.82 q -5.03,1.36 -15.88,1.37 -86.47,0.04 -172.94,0.25 c -70.73,0.18 -141.4,-0.54 -212.229997,-0.23 q -14.78,0.07 -19.93,-0.94 -21.36,-4.15 -31.52,-25.55 9.39,4.32 12.18,4.75 13.18,2 26.19,4.92 c 3.44,0.78 7.47,1.19 10.37,1.21 q 55.599997,0.45 111.189997,0.34 0.13,0 0.3,-0.12 0.24,-0.18 0.53,-0.18 c 90.68,0.34 178.62,0.71 272.17,-0.06 13.5,-0.12 28.63,-6 39.95,-9.95 q 6.1,-2.13 11.86,-8.63 z"
     id="path168" />
</svg>
