<?xml version="1.0" encoding="UTF-8" standalone="no"?>
<!-- Created with Inkscape (http://www.inkscape.org/) -->

<svg
   width="37.551556mm"
   height="112.27049mm"
   viewBox="0 0 37.551556 112.27049"
   version="1.1"
   id="svg1"
   inkscape:version="1.3 (0e150ed6c4, 2023-07-21)"
   sodipodi:docname="normal_male.svg"
   xmlns:inkscape="http://www.inkscape.org/namespaces/inkscape"
   xmlns:sodipodi="http://sodipodi.sourceforge.net/DTD/sodipodi-0.dtd"
   xmlns="http://www.w3.org/2000/svg"
   xmlns:svg="http://www.w3.org/2000/svg">
  <sodipodi:namedview
     id="namedview1"
     pagecolor="#505050"
     bordercolor="#ffffff"
     borderopacity="1"
     inkscape:showpageshadow="0"
     inkscape:pageopacity="0"
     inkscape:pagecheckerboard="1"
     inkscape:deskcolor="#505050"
     inkscape:document-units="mm"
     inkscape:zoom="0.73139029"
     inkscape:cx="242.68848"
     inkscape:cy="450.51186"
     inkscape:window-width="1920"
     inkscape:window-height="1017"
     inkscape:window-x="1912"
     inkscape:window-y="-8"
     inkscape:window-maximized="1"
     inkscape:current-layer="layer1" />
  <defs
     id="defs1" />
  <g
     inkscape:label="Warstwa 1"
     inkscape:groupmode="layer"
     id="layer1"
     transform="translate(-41.010414,-29.36875)">
    <path
       fill="#dd9576"
       d="m 63.987415,41.069366 -0.150812,-3.013604 q -0.0079,-0.132292 -0.127,-0.1905 -0.240771,-0.119063 -0.579438,-0.105834 0.171979,-0.137583 0.08467,-0.291041 c 0.304271,-0.04498 0.484187,-0.232834 0.465667,-0.563563 q -0.08731,-1.547812 -0.03704,-3.114146 a 0.19314583,0.19314583 0 0 0 -0.359833,-0.103187 l -0.134938,0.232833 q -0.06879,0.116417 -0.187854,0.177271 -2.111375,1.039812 -4.479396,0.878417 c -0.545042,-0.03704 -0.635,-0.518584 -1.053042,-0.724959 -2.357437,-1.169458 -2.471208,1.857375 -2.566458,3.164417 q -0.0344,0.473604 0.137584,1.439333 0.219604,1.232959 -0.177271,2.336271 c -1.85738,0.264583 -2.344214,-2.278062 -0.751422,-2.473854 a 0.20108333,0.1984375 77.6 0 0 0.164042,-0.259292 Q 53.594582,36.49472 53.50727,34.452137 c -0.02646,-0.629709 0.325437,-1.288521 0.111125,-1.992313 a 0.51858333,0.51858333 0 0 1 0.243416,-0.600604 q 2.233084,-1.254125 4.810125,-1.500188 0.224896,-0.02117 0.05292,-0.166687 l -0.537104,-0.455083 a 0.20372916,0.20108333 63.2 0 1 0.116416,-0.357188 c 1.547813,-0.09525 3.27025,0.431271 4.767792,0.796396 q 0.05821,0.01323 0.171979,-0.01587 0.129646,-0.0344 0.235479,0.04763 0.473604,0.373062 0.518584,0.98425 a 0.1190625,0.11641667 75.5 0 0 0.166687,0.100542 l 0.399521,-0.187855 a 0.16404166,0.16404166 0 0 1 0.214312,0.224896 c -0.195791,0.378354 -0.224895,0.650875 -0.09525,1.084792 q 0.90223,3.048 -0.43127,6.008687 a 0.16404166,0.16404166 0 0 0 0.15875,0.232834 c 2.053166,-0.103188 1.254125,3.13002 -0.423334,2.413 z"
       id="path1083"
       style="stroke-width:0.264583" />
    <path
       fill="#feb392"
       d="m 63.709603,37.865262 c 0.07937,0.0388 0.121708,0.102305 0.127,0.1905 l 0.150812,3.013604 c -0.197556,1.522235 -0.610306,2.771952 -1.23825,3.749145 -0.582083,0.15875 -1.134181,0.342194 -1.656291,0.550334 -1.907646,0.759354 -3.52425,0.521229 -5.185834,-0.769938 -0.451556,-0.915458 -0.662339,-1.957916 -0.632354,-3.127375 0.0053,-0.215194 -0.145521,-0.30868 -0.452437,-0.280458 0.264583,-0.735542 0.323672,-1.514298 0.177271,-2.336271 -0.114652,-0.643819 -0.160515,-1.123597 -0.137584,-1.439333 0.09525,-1.307042 0.209021,-4.333875 2.566458,-3.164417 0.418042,0.206375 0.508,0.687917 1.053042,0.724959 1.578682,0.107597 3.071813,-0.185209 4.479396,-0.878417 0.07937,-0.04057 0.141994,-0.09966 0.187854,-0.177271 l 0.134938,-0.232833 c 0.100959,-0.17282 0.365802,-0.09687 0.359833,0.103187 -0.03352,1.044223 -0.02117,2.082271 0.03704,3.114146 z"
       id="path1091"
       sodipodi:nodetypes="ccccccccsccccccccc"
       style="stroke-width:0.264583" />
    <path
       fill="#f3765c"
       d="m 55.90704,44.598907 c 1.661584,1.291167 3.278188,1.529292 5.185834,0.769938 q 0.783166,-0.312209 1.656291,-0.550334 l -0.02381,2.047875 q -2.873375,2.061105 -5.564188,0.182563 c -0.550333,-0.381 -0.68527,-0.960438 -0.881062,-1.561042 z"
       id="path1125"
       style="stroke-width:0.264583" />
    <path
       fill="#feb392"
       d="m 56.280103,45.487907 c 0.195792,0.600604 0.330729,1.180042 0.881062,1.561042 q 2.690813,1.878542 5.564188,-0.182563 0.396875,0.830792 1.849437,1.817688 -3.593041,2.971271 -8.498416,1.182687 -0.674688,-0.246062 -1.30175,-1.158875 c 1.293812,-0.423333 1.30175,-2.11402 1.505479,-3.219979 z"
       id="path1129"
       style="stroke-width:0.264583" />
    <path
       fill="#f3492e"
       d="m 64.57479,48.684074 q 5.929313,1.849437 7.757583,2.63525 1.420813,0.608542 2.055813,2.264833 2.021417,5.278438 2.960687,11.178646 0.129646,0.820208 -0.722312,1.201208 l -2.159,1.042459 -2.645833,0.886354 C 71.636519,67.728782 71.530686,67.65999 71.498936,67.400699 q -0.568854,-4.733396 -0.470958,-6.331479 0.153458,-2.545292 0.195791,-4.48998 0.02117,-1.103312 -0.177271,-0.01852 -0.447145,2.460625 -0.611187,5.35252 -0.1905,3.31523 0.806979,6.294438 0.658813,1.939396 0.518583,4.307416 c 0.03704,3.876146 0.418042,8.424334 0.322792,11.623146 q -0.01058,0.346604 -0.5715,0.661458 -0.127,-0.20902 -0.682625,-0.111125 c -7.551208,1.34673 -14.821958,1.02923 -22.428729,-0.14552 -0.468312,-0.01323 -0.709083,-0.211667 -0.732896,-0.701146 -0.07937,-1.611313 -0.227541,-3.209396 -0.174625,-4.812771 q 0.100542,-3.153833 0.164042,-6.376458 -0.0635,-2.140479 0.322792,-4.328584 0.03704,-0.22225 -0.179917,-0.280458 l -2.979208,-0.791104 -2.156354,-0.915458 c -0.367771,-0.269875 -1.04775,-0.642938 -0.944563,-1.248834 q 1.180042,-6.847416 3.3655,-11.837458 c 0.759354,-1.730375 2.357438,-2.182812 4.439708,-2.88925 q 2.57175,-0.870479 5.249334,-1.653646 0.627062,0.912813 1.30175,1.158875 4.905375,1.788584 8.498416,-1.182687 z m -16.7005,7.455958 c 0.505355,4.577292 0.280459,7.768167 0.166688,11.752792 q -0.0053,0.171979 0.166687,0.169333 0.03969,0 0.08202,0 0.171979,0.01058 0.1905,-0.161396 c 0.201084,-2.008187 0.515938,-4.124854 0.402167,-6.043083 q -0.171979,-2.870729 -0.891646,-5.664729 -0.0053,-0.02381 -0.02117,-0.03969 -0.0291,-0.0291 -0.06085,-0.03969 -0.03969,-0.01323 -0.0344,0.02646 z"
       id="path1135"
       style="stroke-width:0.264583" />
    <path
       fill="#d52515"
       d="m 71.821728,67.892824 -0.579438,0.314854 q -0.997479,-2.979208 -0.806979,-6.294438 0.164042,-2.891895 0.611187,-5.35252 0.198438,-1.084792 0.177271,0.01852 -0.04233,1.944688 -0.195791,4.48998 -0.0979,1.598083 0.470958,6.331479 c 0.03175,0.259291 0.137583,0.328083 0.322792,0.492125 z"
       id="path1144"
       style="stroke-width:0.264583" />
    <path
       fill="#d52515"
       d="m 48.040978,67.892824 c 0.113771,-3.984625 0.338667,-7.1755 -0.166688,-11.752792 q -0.0053,-0.03969 0.0344,-0.02646 0.03175,0.01058 0.06085,0.03969 0.01588,0.01588 0.02117,0.03969 0.719667,2.794 0.891646,5.664729 c 0.113771,1.918229 -0.201083,4.034896 -0.402167,6.043083 q -0.01852,0.171979 -0.1905,0.161396 -0.04233,0 -0.08202,0 -0.171979,0.0026 -0.166687,-0.169333 z"
       id="path1145"
       style="stroke-width:0.264583" />
    <path
       fill="#feb392"
       d="m 76.626561,65.964011 c 0.891646,5.2705 2.066396,10.324042 1.923521,15.790333 q -0.08202,3.090334 -0.846667,7.569729 c -0.566208,3.328459 0.01587,7.339542 -3.775604,8.945563 A 0.27252083,0.27252083 0 0 1 73.56004,97.944198 q 0.04498,-0.150812 0.251354,-0.351896 1.944688,-1.870604 0.775229,-4.222749 a 0.238125,0.238125 0 0 0 -0.447145,0.07144 c -0.113771,0.717021 -0.05027,2.883958 -1.082146,2.725208 a 0.16404166,0.1666875 6.2 0 1 -0.137584,-0.171979 q 0.137584,-2.029354 0.333375,-4.045479 c 0.17198,-1.775354 1.304396,-2.457979 1.119188,-4.423833 q -0.481542,-5.064125 -1.418167,-10.173229 1.045104,-1.754188 2.656417,-3.092979 a 0.17991666,0.17991666 0 0 0 -0.195792,-0.29898 q -1.060979,0.53975 -1.743604,1.513417 a 0.127,0.127 0 0 1 -0.224896,-0.0291 q -1.150937,-3.100917 -1.521354,-6.397625 a 0.3571875,0.35983333 74.4 0 1 0.206375,-0.365125 q 1.293813,-0.587375 2.336271,-1.674812 z"
       id="path1160"
       style="stroke-width:0.264583" />
    <path
       fill="#feb392"
       d="m 42.664645,66.337074 2.156354,0.915458 c 0.124354,0.791104 1.621896,0.994833 2.481791,1.291167 a 0.174625,0.174625 0 0 1 0.116417,0.1905 q -0.193146,1.317625 -0.320146,2.643187 c -0.150812,1.542521 -0.590021,2.873375 -1.010708,4.333875 q -0.0635,0.216958 -0.179917,0.02381 -0.108479,-0.177271 -0.111125,-0.383646 -0.0026,-0.129646 -0.08202,-0.232834 -0.687916,-0.865187 -1.756833,-1.153583 a 0.17991666,0.17991666 0 0 0 -0.182562,0.291042 l 2.690812,3.07975 q -0.283104,2.352146 -0.703792,5.029729 c -0.108479,0.690562 -0.796395,6.217708 -0.04498,7.336896 1.447271,2.159 0.746125,4.053416 1.447271,6.252104 a 0.1666875,0.1666875 0 0 1 -0.161396,0.216958 c -1.312333,-0.02646 -1.000125,-2.026708 -1.344083,-2.915708 a 0.24341666,0.24341666 0 0 0 -0.452438,0 q -1.026583,2.65377 1.039813,4.455583 a 0.34660416,0.34660416 0 0 1 -0.343958,0.590021 C 43.201749,97.348883 42.90277,95.54707 42.497957,92.747779 41.743895,87.551362 40.735832,82.68832 41.079791,77.396654 c 0.211666,-3.267604 1.0795,-7.371292 1.584854,-11.059583 z"
       id="path1165"
       style="stroke-width:0.264583" />
    <path
       fill="#fe8f71"
       d="m 74.467561,67.00647 q -1.042458,1.087437 -2.336271,1.674812 a 0.3571875,0.35983333 74.4 0 0 -0.206375,0.365125 q 0.370417,3.296708 1.521354,6.397625 a 0.127,0.127 0 0 0 0.224896,0.0291 q 0.682625,-0.973667 1.743604,-1.513417 a 0.17991666,0.17991666 0 0 1 0.195792,0.29898 q -1.611313,1.338791 -2.656417,3.092979 -0.277812,-2.3495 -1.193271,-4.836584 0.14023,-2.36802 -0.518583,-4.307416 l 0.579438,-0.314854 z"
       id="path1169"
       style="stroke-width:0.264583" />
    <path
       fill="#fe8f71"
       d="m 44.820999,67.252532 2.979208,0.791104 q 0.216958,0.05821 0.179917,0.280458 -0.386292,2.188105 -0.322792,4.328584 -0.362479,0.132291 -0.346604,0.724958 c 0.02646,1.116542 -0.608542,2.701396 -0.844021,3.958167 l -2.690812,-3.07975 a 0.17991666,0.17991666 0 0 1 0.182562,-0.291042 q 1.068917,0.288396 1.756833,1.153583 0.07937,0.103188 0.08202,0.232834 0.0026,0.206375 0.111125,0.383646 0.116417,0.193145 0.179917,-0.02381 c 0.420687,-1.4605 0.859896,-2.791354 1.010708,-4.333875 q 0.127,-1.325562 0.320146,-2.643187 a 0.174625,0.174625 0 0 0 -0.116417,-0.1905 c -0.859895,-0.296334 -2.357437,-0.500063 -2.481791,-1.291167 z"
       id="path1171"
       style="stroke-width:0.264583" />
    <path
       fill="#02252f"
       d="m 48.400811,84.543053 c 7.606771,1.17475 14.877521,1.49225 22.428729,0.14552 q 0.555625,-0.0979 0.682625,0.111125 l 0.134938,1.389063 q -0.08467,0.510646 -0.505355,0.534458 -2.254249,0.129646 -3.889374,0.362479 c -3.497792,0.497417 -6.672792,0.67998 -10.207625,0.410105 -2.386542,-0.182563 -5.220229,-0.780521 -7.839604,-1.161521 q -0.132292,-0.01852 -0.240771,-0.09525 L 48.26852,85.765428 Z"
       id="path1187"
       style="stroke-width:0.264583" />
    <path
       fill="#03393e"
       d="m 48.26852,85.765428 0.695854,0.473604 q 0.108479,0.07673 0.240771,0.09525 c 2.619375,0.381 5.453062,0.978958 7.839604,1.161521 3.534833,0.269875 6.709833,0.08731 10.207625,-0.410105 q 1.635125,-0.232833 3.889374,-0.362479 0.420688,-0.02381 0.505355,-0.534458 c 0.473604,5.347229 0.01587,11.527896 -0.531813,16.594669 l -1.084791,0.17198 q -4.167188,0.60325 -8.479896,0.21166 l -0.600604,-4.74133 q 0.378354,-0.201083 0.343958,-0.597958 -0.177271,-2.018771 0.529167,-3.913188 c 0.36777,-0.978958 2.172229,-1.449916 3.074458,-1.751541 q 0.09525,-0.03175 0.148167,-0.08467 0.0926,-0.0926 0.08996,-0.161396 -0.0079,-0.211667 -0.219604,-0.219604 -2.76225,-0.100542 -5.484813,-0.03969 c -1.108604,0.02381 -3.164416,-0.134937 -4.7625,0.142875 a 0.079375,0.079375 0 0 0 -0.0053,0.156105 q 2.46327,0.650875 4.519083,2.420937 l -0.889,8.81591 q -4.280958,0.24342 -8.659812,-0.17198 L 48.742117,102.7596 C 48.175915,97.549969 47.686436,91.28199 48.26852,85.765428 Z"
       id="path1192"
       style="stroke-width:0.264583" />
    <path
       fill="#02252f"
       d="m 60.949999,98.42574 -0.595313,-5.323417 a 0.52122916,0.52122916 0 0 0 -1.037167,0.0026 l -0.134937,1.272646 q -2.055813,-1.770062 -4.519083,-2.420937 a 0.079375,0.079375 0 0 1 0.0053,-0.156105 c 1.598084,-0.277812 3.653896,-0.119062 4.7625,-0.142875 q 2.722563,-0.06085 5.484813,0.03969 0.211666,0.0079 0.219604,0.219604 0.0026,0.06879 -0.08996,0.161396 -0.05292,0.05292 -0.148167,0.08467 c -0.902229,0.301625 -2.706688,0.772583 -3.074458,1.751541 q -0.706438,1.894417 -0.529167,3.913188 0.0344,0.396875 -0.343958,0.597958 z"
       id="path1202"
       style="stroke-width:0.264583" />
    <path
       fill="#feb392"
       d="m 48.742124,102.75961 0.891646,0.26194 q 3.952875,1.90236 8.450791,1.07686 c -0.171979,2.46062 -0.767292,5.16466 -0.595312,7.62793 0.267229,3.83646 0.640291,7.39246 -0.05821,11.34798 q -0.955145,5.41338 -2.029354,10.80294 -0.145521,0.7276 -0.129646,2.27542 L 54.49681,135.8537 a 0.22225,0.22225 0 0 0 -0.248708,0.0661 l -0.545042,0.65617 q -0.878416,-0.59002 -1.740958,-0.58208 -0.113771,-0.10848 -0.328083,0.0185 -0.129646,-0.0714 -0.28575,-0.045 l 0.05027,-0.19315 q 0.03175,-0.11641 0.01323,-0.23812 c -1.005417,-7.28134 -2.121959,-14.66321 -2.246313,-21.84929 q -0.09525,-5.50069 -0.423333,-10.9273 z m 2.608791,8.77623 c 0.833438,0.3863 1.373188,0.1614 2.238375,0.20373 q 0.23548,0.0106 0.333375,-0.17462 a 0.127,0.127 0 0 0 -0.127,-0.18521 q -0.820208,0.10319 -1.658937,0.0344 c -1.738313,-0.14288 -1.259417,-2.19075 0.325437,-2.28336 q 1.148292,-0.0714 2.296584,-0.13758 0.134937,-0.008 0.230187,0.0926 l 0.246063,0.26459 q 0.06085,0.0635 0.113771,-0.005 0.280458,-0.35718 0.254,-0.81756 -0.01058,-0.1561 -0.161396,-0.127 c -1.232959,0.23813 -2.405063,0.23813 -3.638021,0.4445 q -0.134938,0.0238 -0.230188,0.11642 c -0.46302,0.46037 -1.082145,2.17752 -0.22225,2.57439 z"
       id="path1208"
       style="stroke-width:0.264583" />
    <path
       fill="#feb392"
       d="m 71.11529,102.78343 q -0.359833,7.41362 -0.500062,14.82196 c -0.03175,1.66158 -0.3175,3.7756 -0.624417,5.72293 q -0.883708,5.56684 -1.833562,11.12573 c -0.0979,0.56886 -0.04233,1.09009 -0.0053,1.66952 q -1.49225,-0.1561 -2.354792,0.50007 -0.785812,-0.17463 -1.592791,-0.84667 c -0.01323,-0.55033 -0.04498,-1.15623 -0.150813,-1.73038 q -0.928687,-5.04825 -1.830917,-10.09914 -0.41275,-2.29923 -0.513291,-3.84175 c -0.238125,-3.66448 0.830791,-7.07496 0.433916,-10.64154 q -0.283104,-2.53207 -0.473604,-5.12498 c 1.320271,0.14816 8.146521,0.14023 8.360834,-1.38377 z"
       id="path1209"
       style="stroke-width:0.264583" />
    <path
       fill="#f3765c"
       d="m 49.63377,103.02155 q 4.378854,0.4154 8.659812,0.17198 l -0.209021,0.90488 q -4.497916,0.8255 -8.450791,-1.07686 z"
       id="path1210"
       style="stroke-width:0.264583" />
    <path
       fill="#fe8f71"
       d="m 70.030499,102.95541 c -0.214313,1.524 -7.040563,1.53193 -8.360834,1.38377 l -0.119062,-1.17211 q 4.312708,0.39159 8.479896,-0.21166 z"
       id="path1211"
       style="stroke-width:0.264583" />
    <path
       fill="#fe8f71"
       d="m 51.350915,111.53584 c -0.859895,-0.39687 -0.24077,-2.11402 0.22225,-2.57439 q 0.09525,-0.0926 0.230188,-0.11642 c 1.232958,-0.20637 2.405062,-0.20637 3.638021,-0.4445 q 0.150812,-0.0291 0.161396,0.127 0.02646,0.46038 -0.254,0.81756 -0.05292,0.0688 -0.113771,0.005 l -0.246063,-0.26459 q -0.09525,-0.10054 -0.230187,-0.0926 -1.148292,0.0661 -2.296584,0.13758 c -1.584854,0.0926 -2.06375,2.14048 -0.325437,2.28336 q 0.838729,0.0688 1.658937,-0.0344 a 0.127,0.127 0 0 1 0.127,0.18521 q -0.0979,0.18521 -0.333375,0.17462 c -0.865187,-0.0423 -1.404937,0.18257 -2.238375,-0.20373 z"
       id="path1222"
       style="stroke-width:0.264583" />
    <path
       fill="#f3765c"
       d="m 55.27204,136.15268 0.254,1.16152 q -0.105833,0.2196 -0.513291,-0.0476 l -1.309688,-0.69056 0.545042,-0.65617 a 0.22225,0.22225 0 0 1 0.248708,-0.0661 z"
       id="path1240"
       style="stroke-width:0.264583" />
    <path
       fill="#f3765c"
       d="m 64.204374,135.77697 q 0.806979,0.67204 1.592791,0.84667 l -1.119187,0.9525 a 0.35189583,0.35189583 0 0 1 -0.550334,-0.40746 q 0.209021,-0.48154 -0.15875,-0.47625 z"
       id="path1241"
       style="stroke-width:0.264583" />
    <path
       fill="#0d586f"
       d="m 51.63402,136.01245 q -0.04498,0.21166 0.187854,0.27252 1.235604,0.54769 2.471208,1.08214 0.481542,0.20638 0.719667,-0.10054 0.407458,0.26723 0.513291,0.0476 l 0.378355,3.19352 q -1.905,0.008 -3.672417,0.68792 l -0.171979,-0.0582 q -0.113771,-0.0397 -0.111125,-0.15875 0.0026,-0.0952 0.0635,-0.16669 0.04762,-0.0582 0.169333,-0.0794 0.333375,-0.0503 0.619125,-0.20108 0.121708,-0.0635 0.121708,-0.20108 c -0.01058,-1.0504 0.251355,-3.76502 -1.386416,-3.683 a 0.32808333,0.34395833 21.9 0 0 -0.227542,0.10319 q -1.190625,1.24883 -2.566458,1.95262 l 2.606146,-2.73579 q 0.156104,-0.0265 0.28575,0.045 z"
       id="path1243"
       style="stroke-width:0.264583" />
    <path
       fill="#dd9576"
       d="m 51.962103,135.99393 q 0.05027,0.28575 -0.140229,0.29104 -0.232834,-0.0609 -0.187854,-0.27252 0.214312,-0.127 0.328083,-0.0185 z"
       id="path1244"
       style="stroke-width:0.264583" />
    <path
       fill="#d52515"
       d="m 51.962103,135.99393 q 0.862542,-0.008 1.740958,0.58208 l 1.309688,0.69056 q -0.238125,0.30692 -0.719667,0.10054 -1.235604,-0.53445 -2.471208,-1.08214 0.1905,-0.005 0.140229,-0.29104 z"
       id="path1248"
       style="stroke-width:0.264583" />
    <path
       fill="#3f798a"
       d="m 68.151957,136.12357 c 0.30339,0.17463 0.624417,0.52123 0.963083,1.03982 1.021292,1.55839 2.926292,1.95262 4.630208,3.13531 1.349899,0.60702 1.269548,0.70755 0.161396,1.06098 -3.90525,0.56621 -6.270625,0.10848 -10.437812,-0.89429 -0.01058,-1.32645 0.156104,-2.5841 0.500062,-3.77296 0.245182,-0.004 0.298099,0.15522 0.15875,0.47625 -0.145843,0.34095 0.266788,0.64646 0.550334,0.40746 l 1.119187,-0.9525 c 0.575027,-0.43745 1.359959,-0.60414 2.354792,-0.50007 z"
       id="path1254"
       sodipodi:nodetypes="cccccccccc"
       style="stroke-width:0.264583" />
    <path
       fill="#3f798a"
       d="m 52.231978,141.19564 c -2.233083,0.67468 -4.595813,0.4101 -7.090833,0.29368 q -0.256646,-0.0132 -0.33073,-0.13758 -0.08731,-0.14817 -0.05292,-0.4154 c 0.762,-0.91016 2.878666,-1.75948 3.984625,-2.23308 q 1.375833,-0.70379 2.566458,-1.95262 a 0.32808333,0.34395833 21.9 0 1 0.227542,-0.10319 c 1.637771,-0.082 1.375833,2.6326 1.386416,3.683 q 0,0.13758 -0.121708,0.20108 -0.28575,0.15081 -0.619125,0.20108 -0.121708,0.0212 -0.169333,0.0794 -0.06085,0.0714 -0.0635,0.16669 -0.0026,0.11906 0.111125,0.15875 z"
       id="path1263"
       style="stroke-width:0.264583" />
  </g>
</svg>
