<?xml version="1.0" encoding="UTF-8" standalone="no"?>
<!-- Created with Inkscape (http://www.inkscape.org/) -->

<svg
   width="44.823761mm"
   height="114.93803mm"
   viewBox="0 0 44.823761 114.93803"
   version="1.1"
   id="svg1"
   inkscape:version="1.3 (0e150ed6c4, 2023-07-21)"
   sodipodi:docname="normal.svg"
   xmlns:inkscape="http://www.inkscape.org/namespaces/inkscape"
   xmlns:sodipodi="http://sodipodi.sourceforge.net/DTD/sodipodi-0.dtd"
   xmlns="http://www.w3.org/2000/svg"
   xmlns:svg="http://www.w3.org/2000/svg">
  <sodipodi:namedview
     id="namedview1"
     pagecolor="#505050"
     bordercolor="#ffffff"
     borderopacity="1"
     inkscape:showpageshadow="0"
     inkscape:pageopacity="0"
     inkscape:pagecheckerboard="1"
     inkscape:deskcolor="#505050"
     inkscape:document-units="mm"
     inkscape:zoom="0.73139029"
     inkscape:cx="178.42731"
     inkscape:cy="371.21083"
     inkscape:window-width="1920"
     inkscape:window-height="1017"
     inkscape:window-x="-8"
     inkscape:window-y="-8"
     inkscape:window-maximized="1"
     inkscape:current-layer="layer1" />
  <defs
     id="defs1" />
  <g
     inkscape:label="Warstwa 1"
     inkscape:groupmode="layer"
     id="layer1"
     transform="translate(-57.94375,-50.270832)">
    <path
       fill="#30568a"
       d="m 89.686681,60.944482 q -0.515937,0.195792 -1.068916,0.111125 c -0.508,-0.492125 -1.325563,-0.460375 -1.621896,0.391583 -0.169334,-0.521229 -0.214313,-0.955145 -0.627063,-1.349375 -1.688041,-1.616604 -3.032125,-3.66977 -4.770437,-5.011208 a 0.13229166,0.13229166 0 0 0 -0.201084,0.05027 c -1.42875,3.148542 -3.743854,4.347104 -6.196541,6.244167 q -1.211792,-1.434042 -1.918229,0.608541 -0.211667,0.891646 -1.870604,0.894292 0.759354,-4.738688 2.219854,-8.003646 c 1.531937,-3.426354 4.569354,-4.802187 8.120062,-4.587875 5.812896,0.34925 7.291917,5.865813 7.934854,10.652125 z"
       id="path471"
       style="stroke-width:0.264583" />
    <path
       fill="#fbb0a0"
       d="m 86.995869,61.44719 -0.280459,3.426355 q -0.119062,0.04233 -0.153458,0.156104 -0.674687,2.256896 -2.19075,4.093104 c -2.915708,1.788583 -4.066646,1.606021 -6.876521,-0.232834 Q 76.068577,67.387086 75.436223,65.363024 75.39389,65.22544 75.258952,65.180461 L 74.692744,64.98467 c 0.693208,-0.830792 0.05292,-2.291292 0.508,-3.603625 2.452687,-1.897063 4.767791,-3.095625 6.196541,-6.244167 a 0.13229166,0.13229166 0 0 1 0.201084,-0.05027 c 1.738312,1.341438 3.082396,3.394604 4.770437,5.011208 0.41275,0.39423 0.457729,0.828146 0.627063,1.349374 z"
       id="path475"
       style="stroke-width:0.264583" />
    <path
       fill="#fca493"
       d="m 88.617765,61.055607 c 0.211666,1.291167 -0.132292,3.852333 -1.902355,3.817938 l 0.280459,-3.426355 c 0.296333,-0.851958 1.113896,-0.883708 1.621896,-0.391583 z"
       id="path483"
       style="stroke-width:0.264583" />
    <path
       fill="#fd9587"
       d="m 75.200744,61.381045 c -0.455083,1.312333 0.185208,2.772833 -0.508,3.603625 q -1.452563,-1.000125 -1.410229,-2.995084 0.706437,-2.042583 1.918229,-0.608541 z"
       id="path484"
       style="stroke-width:0.264583" />
    <path
       fill="#244675"
       d="m 89.686681,60.944482 q 1.092729,4.826 1.497542,9.744604 0.209021,2.550583 -0.812271,4.804833 -0.105833,0.0026 -0.209021,0.06879 c 0.333375,-1.357312 0.709083,-2.682875 0.637646,-4.079875 q -0.08996,-1.730375 -0.396875,-3.442229 -0.0079,-0.03969 -0.05292,-0.05292 -0.07937,-0.02646 -0.07144,0.05556 c 0.08467,1.209146 0.383646,2.550583 0.338666,3.6195 q -0.08467,2.005541 -1.058333,3.804708 a 0.18785416,0.18785416 0 0 1 -0.203729,0.09525 q -0.264583,-0.05292 -0.566208,-0.267229 c -1.161521,-0.267229 -4.392084,-0.960438 -4.429125,-2.50825 q -0.04498,-1.801813 0.01058,-3.664479 1.516063,-1.836208 2.19075,-4.093104 0.0344,-0.113771 0.153458,-0.156104 c 1.770063,0.0344 2.114021,-2.526771 1.902355,-3.817938 q 0.552979,0.08467 1.068916,-0.111125 z"
       id="path485"
       style="stroke-width:0.264583" />
    <path
       fill="#244675"
       d="m 73.282515,61.989586 q -0.04233,1.994959 1.410229,2.995084 l 0.566208,0.195791 q 0.134938,0.04498 0.177271,0.182563 0.632354,2.024062 2.058458,3.526895 c -0.179916,1.370542 0.132292,2.727855 -0.01058,4.246563 -0.08467,0.899583 -2.251604,1.521354 -2.891896,1.738312 l -2.566458,0.558271 q -0.150813,0.03175 -0.219604,-0.103187 -0.759354,-1.457854 -0.828146,-3.108854 -0.0026,-0.10848 -0.113771,-0.105834 -0.195792,0.0053 -0.15875,0.209021 0.08996,0.500063 0.156104,1.002771 c 0.113771,0.830792 0.502709,1.476375 0.396875,2.420937 q -0.150812,0.05292 -0.277812,-0.05292 -0.0053,-0.05821 0.02117,-0.121709 a 0.30427083,0.29104166 50.4 0 0 0.01323,-0.193145 c -0.280459,-1.113896 -0.677334,-2.264834 -0.685271,-3.402542 q -0.0291,-4.468812 1.082146,-9.093729 1.658937,-0.0026 1.870604,-0.894292 z"
       id="path488"
       style="stroke-width:0.264583" />
    <path
       fill="#fbb0a0"
       d="m 90.162931,75.562711 c -0.359833,4.450292 -1.743604,8.720667 -6.741583,9.702271 -2.88925,0.568854 -6.360583,0.195791 -8.741833,-1.542521 -2.00025,-1.4605 -3.106209,-5.622396 -3.421063,-7.974542 0.105834,-0.944562 -0.283104,-1.590145 -0.396875,-2.420937 q -0.06615,-0.502708 -0.156104,-1.002771 -0.03704,-0.203729 0.15875,-0.209021 0.111125,-0.0026 0.113771,0.105834 0.06879,1.651 0.828146,3.108854 0.06879,0.134937 0.219604,0.103187 l 2.566458,-0.558271 c 0.370417,0.762 -0.579437,0.886355 -1.053041,1.084792 a 0.25664583,0.25664583 0 0 0 0.02117,0.478896 c 2.148417,0.693208 4.196292,1.471083 6.352646,2.214562 1.185333,0.407459 2.100792,0.113771 3.193521,-0.34925 q 1.672166,-0.709083 4.979458,-1.86002 0.73025,-0.254 0.703792,-1.148292 0.301625,0.214312 0.566208,0.267229 a 0.18785416,0.18785416 0 0 0 0.203729,-0.09525 q 0.973667,-1.799167 1.058333,-3.804708 c 0.04498,-1.068917 -0.254,-2.410354 -0.338666,-3.6195 q -0.0079,-0.08202 0.07144,-0.05556 0.04498,0.01323 0.05292,0.05292 0.306917,1.711854 0.396875,3.442229 c 0.07144,1.397 -0.304271,2.722563 -0.637646,4.079875 z"
       id="path491"
       style="stroke-width:0.264583" />
    <path
       fill="#fd9587"
       d="m 77.494681,68.889919 c 2.809875,1.838855 3.960813,2.021417 6.876521,0.232834 q -0.05556,1.862666 -0.01058,3.664479 c 0.03704,1.547812 3.267604,2.241021 4.429125,2.50825 q 0.02646,0.894292 -0.703792,1.148292 -3.307292,1.150937 -4.979458,1.86002 c -1.092729,0.463021 -2.008188,0.756709 -3.193521,0.34925 -2.156354,-0.743479 -4.204229,-1.521354 -6.352646,-2.214562 a 0.25664583,0.25664583 0 0 1 -0.02117,-0.478896 c 0.473604,-0.198437 1.423458,-0.322792 1.053041,-1.084792 0.640292,-0.216958 2.807229,-0.838729 2.891896,-1.738312 0.142875,-1.518708 -0.169333,-2.876021 0.01058,-4.246563 z"
       id="path494"
       style="stroke-width:0.264583" />
    <path
       fill="#2ab3a1"
       d="m 90.371952,75.493919 q -0.148167,0.14023 0.0026,0.187855 0.298979,0.08996 1.098021,0.227541 -0.597959,4.148667 0.343958,7.527396 c 0.769937,2.76225 1.722437,5.304896 1.378479,8.371417 q -0.537104,-0.105834 -1.095375,0.08467 -0.124354,0.04233 -0.254,0.01323 -2.153708,-0.510645 -4.347104,-0.394229 c -3.720042,0.201084 -7.416271,0.09525 -11.141604,0.328084 -1.2065,0.07408 -2.690812,-0.03175 -4.056062,0.119062 -0.370417,0.04233 -0.949855,0.330729 -1.479021,0.232833 q -0.129646,-0.02117 -0.259292,-0.01852 l -1.505479,0.04762 q -0.129646,0.0026 -0.198438,-0.10848 -0.523875,-0.865187 -0.261937,-1.928812 0.383646,-1.539875 0.341312,-3.196167 2.04523,-5.326062 1.235605,-11.025187 l 0.806979,-0.267229 q 0.127,0.105833 0.277812,0.05292 c 0.314854,2.352146 1.420813,6.514042 3.421063,7.974542 2.38125,1.738312 5.852583,2.111375 8.741833,1.542521 4.997979,-0.981604 6.38175,-5.251979 6.741583,-9.702271 q 0.103188,-0.06615 0.209021,-0.06879 z"
       id="path501"
       style="stroke-width:0.264583" />
    <path
       fill="#fca493"
       d="m 91.472619,75.909315 q 3.921125,0.592667 5.762625,3.828521 c 1.330854,2.341562 1.36525,4.400021 1.484312,7.612062 0.216958,5.942542 0.0635,11.728979 1.031875,17.835562 1.103309,6.96119 1.434039,12.62063 1.852079,20.98146 q 0.0979,1.9685 1.00807,5.06677 c 0.85196,2.89719 -1.97115,4.56935 -4.008441,5.72558 q -0.132291,0.0741 -0.1905,-0.0661 c -0.796395,-1.92088 2.603501,-1.86002 1.484313,-4.24392 a 0.10583333,0.10847917 45.2 0 0 -0.193146,0 c -0.280458,0.59002 0.116417,1.24354 -0.560917,1.66688 a 0.49741666,0.49741666 0 0 1 -0.756708,-0.34132 c -0.497417,-3.07446 0.264583,-6.18331 -0.195792,-9.23131 q -0.433916,-2.8575 -1.404937,-5.58271 c 0.359833,-0.003 0.521229,-0.29369 0.436562,-0.63235 -0.283104,-1.14036 -0.783166,-2.30188 -1.04775,-3.33111 -0.391583,-1.5187 -0.865187,-3.02683 -0.949854,-4.6011 -0.08731,-1.6801 -0.127,-3.36285 -0.320146,-4.9874 q -0.391583,-3.31787 -0.817562,-6.630454 C 93.98616,98.187232 94.375098,97.533711 93.647494,96.91194 q -0.08731,-2.383896 -0.243417,-4.810125 -0.0053,-0.08467 -0.214313,-0.07673 0.02646,-0.05821 0.0053,-0.216958 C 93.539022,88.741606 92.586522,86.19896 91.816585,83.43671 Q 90.87466,80.057982 91.472619,75.909315 Z"
       id="path509"
       style="stroke-width:0.264583" />
    <path
       fill="#fca493"
       d="m 70.173661,75.962232 q 0.809625,5.699125 -1.235605,11.025187 -0.769937,2.711979 -0.502708,5.503334 -0.439208,3.778249 -0.420687,6.175374 0.05027,6.453183 -0.672042,10.699753 c -0.682625,4.00843 -2.54,8.42698 -3.696229,12.24756 -0.918104,3.03477 -1.140354,5.13292 -0.881063,8.39787 0.124354,1.5584 0.05556,2.77548 -0.293687,4.16719 a 0.33866666,0.33866666 0 0 1 -0.267229,0.25136 c -0.889,0.15875 -0.859896,-1.74096 -0.912813,-2.28336 a 0.09789583,0.09789583 0 0 0 -0.193146,-0.0159 c -0.275166,0.98425 -0.248708,2.11137 0.560917,2.8575 0.521229,0.48418 1.259417,1.18533 0.719667,1.8071 q -0.103188,0.11906 -0.230188,0.0265 -1.129771,-0.82285 -2.431521,-1.35467 A 0.37570833,0.3730625 83.6 0 1 59.55064,135.3321 q -0.841375,-1.23561 -1.537229,-2.80459 -0.111125,-0.25135 -0.04498,-0.45508 c 1.166812,-3.51896 1.354666,-6.97971 1.706562,-10.62831 0.478896,-4.9583 0.812271,-10.15736 1.717146,-15.05215 0.595312,-3.21733 1.063625,-5.969 1.256771,-9.220728 q 0.338666,-5.654146 0.420687,-10.080625 c 0.0926,-4.720167 1.045104,-9.329208 6.056313,-11.004021 0.298979,-0.0979 0.719666,-0.111125 1.04775,-0.124354 z"
       id="path510"
       style="stroke-width:0.264583" />
    <path
       fill="#119e92"
       d="m 68.938056,86.987419 q 0.04233,1.656292 -0.341312,3.196167 -0.261938,1.063625 0.261937,1.928812 0.06879,0.111125 0.198438,0.10848 l 1.505479,-0.04762 q 0.129646,-0.0026 0.259292,0.01852 c 0.529166,0.0979 1.108604,-0.1905 1.479021,-0.232833 1.36525,-0.150812 2.849562,-0.04498 4.056062,-0.119062 3.725333,-0.232834 7.421562,-0.127 11.141604,-0.328084 q 2.193396,-0.116416 4.347104,0.394229 0.129646,0.02911 0.254,-0.01323 0.558271,-0.1905 1.095375,-0.08467 0.02117,0.15875 -0.0053,0.216958 l -0.447145,1.524 q -0.441855,0.34925 -0.613834,0.910166 a 0.3889375,0.37835416 79.5 0 1 -0.132291,0.198438 c -1.444625,1.182687 -2.965979,1.272646 -4.85775,1.084792 -4.299479,-0.42598 -8.429625,-0.201084 -12.723813,0.03704 -2.2225,0.121709 -4.545541,-0.391583 -5.49275,-2.624666 q -0.04233,-0.0979 -0.275166,-0.05292 -0.01587,-0.336021 -0.211667,-0.611187 -0.267229,-2.791355 0.502708,-5.503334 z"
       id="path514"
       style="stroke-width:0.264583" />
    <path
       fill="#0c8c86"
       d="m 68.647015,93.10194 q 0.232833,-0.04498 0.275166,0.05292 c 0.947209,2.233083 3.27025,2.746375 5.49275,2.624666 4.294188,-0.238125 8.424334,-0.463021 12.723813,-0.03704 1.891771,0.187854 3.413125,0.0979 4.85775,-1.084792 a 0.3889375,0.37835416 79.5 0 0 0.132291,-0.198438 q 0.171979,-0.560916 0.613834,-0.910166 l -1.595438,8.29204 -20.862395,-0.11907 z"
       id="path519"
       style="stroke-width:0.264583" />
    <path
       fill="#fd6c61"
       d="m 93.647494,96.91194 c 0.727604,0.621771 0.338666,1.275292 0.439208,2.066396 q 0.425979,3.312584 0.817562,6.630454 c 0.193146,1.62455 0.232834,3.3073 0.320146,4.9874 0.08467,1.57427 0.558271,3.0824 0.949854,4.6011 0.264584,1.02923 0.764646,2.19075 1.04775,3.33111 0.08467,0.33866 -0.07673,0.62971 -0.436562,0.63235 -1.214438,-4.66196 -2.489729,-8.6651 -2.733146,-13.75569 q -0.198437,-4.23068 -0.404812,-8.49312 z"
       id="path523"
       style="stroke-width:0.264583" />
    <path
       fill="#fca493"
       d="m 91.147181,101.84113 c -0.415396,3.50043 0.378354,5.52185 1.801813,8.509 q 0.05556,0.11641 0.129645,0.59002 l -0.11377,0.0767 q -0.07937,0.0556 -0.174625,0.0635 -11.927417,0.92604 -24.331083,-0.14288 1.045104,-2.28864 1.51077,-3.9026 0.693209,-2.413 0.314855,-5.31284 z m -10.734146,7.85812 q 0.534459,0.19844 0.6985,-0.39687 0.02911,-0.11113 -0.0053,-0.21961 c -0.640292,-2.0955 -0.283104,-4.40266 -0.362479,-6.3791 q -0.0053,-0.11906 -0.0635,-0.16933 -0.09525,-0.0767 -0.100542,0.045 c -0.103188,2.23044 0.100542,4.3815 -0.457729,6.56167 a 0.47095833,0.47095833 0 0 0 0.291041,0.55827 z"
       id="path529"
       style="stroke-width:0.264583" />
    <path
       fill="#fd6c61"
       d="m 80.413035,109.69925 a 0.47095833,0.47095833 0 0 1 -0.291041,-0.55827 c 0.558271,-2.18017 0.354541,-4.33123 0.457729,-6.56167 q 0.0053,-0.1217 0.100542,-0.045 0.05821,0.0503 0.0635,0.16933 c 0.07937,1.97644 -0.277813,4.2836 0.362479,6.3791 q 0.0344,0.10848 0.0053,0.21961 -0.164041,0.59531 -0.6985,0.39687 z"
       id="path530"
       style="stroke-width:0.264583" />
    <path
       fill="#326aa5"
       d="m 68.459161,110.9375 q 12.403666,1.06892 24.331083,0.14288 0.09525,-0.008 0.174625,-0.0635 l 0.11377,-0.0767 q 0.20373,0.13229 0.275167,0.32544 1.441979,3.83116 2.754313,7.70731 c 0.256645,0.75671 0.351895,1.63248 0.59002,2.41829 -5.109104,2.15635 -11.382374,5.33135 -15.041562,7.00352 l -1.762125,0.10848 -8.569854,-4.14602 q -2.979208,-1.57427 -6.731,-2.86279 c 0.248708,-0.87048 0.439208,-1.78859 0.695854,-2.58234 q 1.352021,-4.20158 3.169709,-7.97454 z"
       id="path534"
       style="stroke-width:0.264583" />
    <path
       fill="#fca493"
       d="m 64.593598,121.49438 q 3.751792,1.28852 6.731,2.86279 -0.489479,1.06627 -0.309562,2.40506 c 0.312208,2.32569 1.087437,4.02167 0.84402,6.63311 -0.105833,1.11918 0.26723,2.86014 0.325438,4.14866 q 0.100542,2.28336 0.441854,7.27604 c 0.293688,4.30213 0.134938,9.58321 0.227542,15.49136 0.01587,1.05568 -0.232834,2.38918 -0.293688,3.11679 q -0.07408,0.87842 -0.1905,1.75683 l -2.817812,-0.0159 q -0.156104,0 -0.153459,-0.15875 c 0.124355,-6.37381 -1.481666,-12.26079 -2.868083,-18.796 q -1.865312,-8.78946 -2.484437,-17.74825 -0.248709,-3.62215 0.547687,-6.97177 z"
       id="path537"
       style="stroke-width:0.264583" />
    <path
       fill="#fd9587"
       d="m 96.698139,121.39119 c 0.971021,4.48998 0.642938,9.08579 0.02646,13.57577 -0.619125,4.49527 -1.344084,8.83973 -2.286,13.41702 -1.230313,5.96371 -2.457979,10.45104 -2.288646,15.748 q 0.01058,0.31221 -0.111125,0.88371 -0.03175,0.14287 -0.177271,0.14287 l -8.895291,0.0503 q -0.206375,0 -0.211667,-0.20637 -0.505354,-15.81944 -1.103313,-31.64152 -0.121708,-3.28877 0.0053,-4.96623 c 3.659188,-1.67217 9.932458,-4.84717 15.041562,-7.00352 z"
       id="path538"
       style="stroke-width:0.264583" />
    <path
       fill="#fd9587"
       d="m 71.324598,124.35717 8.569854,4.14602 c -0.280458,12.14173 -0.679979,24.30198 -0.833437,36.42783 a 0.25929166,0.2619375 0.3 0 1 -0.259292,0.25929 l -6.432021,-0.005 q 0.116417,-0.87841 0.1905,-1.75683 c 0.06085,-0.72761 0.309563,-2.06111 0.293688,-3.11679 -0.0926,-5.90815 0.06615,-11.18923 -0.227542,-15.49136 q -0.341312,-4.99268 -0.441854,-7.27604 c -0.05821,-1.28852 -0.431271,-3.02948 -0.325438,-4.14866 0.243417,-2.61144 -0.531812,-4.30742 -0.84402,-6.63311 q -0.179917,-1.33879 0.309562,-2.40506 z"
       id="path539"
       style="stroke-width:0.264583" />
  </g>
</svg>
