<?xml version="1.0" encoding="UTF-8" standalone="no"?>
<!-- Created with Inkscape (http://www.inkscape.org/) -->

<svg
   width="41.239353mm"
   height="106.94287mm"
   viewBox="0 0 41.239353 106.94287"
   version="1.1"
   id="svg1"
   inkscape:version="1.3 (0e150ed6c4, 2023-07-21)"
   sodipodi:docname="obese_male.svg"
   xmlns:inkscape="http://www.inkscape.org/namespaces/inkscape"
   xmlns:sodipodi="http://sodipodi.sourceforge.net/DTD/sodipodi-0.dtd"
   xmlns="http://www.w3.org/2000/svg"
   xmlns:svg="http://www.w3.org/2000/svg">
  <sodipodi:namedview
     id="namedview1"
     pagecolor="#505050"
     bordercolor="#ffffff"
     borderopacity="1"
     inkscape:showpageshadow="0"
     inkscape:pageopacity="0"
     inkscape:pagecheckerboard="1"
     inkscape:deskcolor="#505050"
     inkscape:document-units="mm"
     inkscape:zoom="0.73139029"
     inkscape:cx="274.13544"
     inkscape:cy="427.26846"
     inkscape:window-width="1920"
     inkscape:window-height="1017"
     inkscape:window-x="1912"
     inkscape:window-y="-8"
     inkscape:window-maximized="1"
     inkscape:current-layer="layer1" />
  <defs
     id="defs1" />
  <g
     inkscape:label="Warstwa 1"
     inkscape:groupmode="layer"
     id="layer1"
     transform="translate(-32.543752,-35.454177)">
    <path
       fill="#dd9576"
       d="m 57.747182,44.842504 q -0.0291,0.259292 -0.195792,0.238125 -0.269875,-0.515938 -0.791104,-0.931333 0.161396,-0.0026 0.15875,-0.07937 -0.0026,-0.124355 -0.140229,-0.259292 0.298979,0.03175 0.330729,-0.140229 0.248708,-1.412875 -0.07144,-2.815167 -0.153458,-0.661458 -0.706437,-0.41275 -2.008188,0.910167 -3.709458,0.764646 c -0.889,-0.07673 -1.529292,-0.98425 -2.241021,-1.156229 -1.579563,-0.383646 -2.084917,2.468562 -2.193396,3.696229 q -0.03704,0.404812 0.611187,0.328083 -0.05292,0.05821 0.02646,0.156104 l -0.53975,1.91823 Q 48.145453,44.816046 47.61364,44.760483 47.153265,42.903108 46.917786,41.0669 c -0.113771,-0.883709 0.351896,-1.510771 0.145521,-2.502959 q -0.02646,-0.132291 0.07937,-0.219604 c 1.2065,-0.986896 3.749146,-1.711854 5.437187,-2.25425 a 0.11641667,0.11641667 0 0 0 0.02646,-0.211666 l -0.447146,-0.269875 q -0.134938,-0.07937 0.01323,-0.134938 0.0926,-0.0344 0.246062,-0.0079 c 1.272646,0.22225 3.508375,0.878416 4.296834,0.66675 a 0.30691666,0.31220833 52.7 0 1 0.230187,0.0291 q 0.550334,0.314854 0.579438,0.923396 0.0079,0.11377 0.119062,0.111125 l 0.584729,-0.0079 a 0.14552083,0.142875 9 0 1 0.14023,0.1905 l -0.17198,0.494771 q -0.03439,0.105833 0.0053,0.211667 c 0.899583,2.360083 0.494771,4.503208 -0.455083,6.757458 z"
       id="path1332"
       style="stroke-width:0.264583" />
    <path
       fill="#feb392"
       d="m 57.55139,45.080629 c 0.198438,0.447146 -0.08202,1.553104 -0.132292,2.050521 l -0.899583,3.51102 c -2.391833,1.182688 -4.206875,1.867959 -6.609292,0.230188 -0.08114,-0.05468 -0.148166,-0.04057 -0.201083,0.04233 l -0.105833,0.169334 c -0.566209,-1.19239 -0.971902,-2.455334 -1.217084,-3.788834 l -0.100541,-1.145645 -0.0979,-2.402417 c 0.108479,-1.227667 0.613833,-4.079875 2.193396,-3.696229 0.711729,0.171979 1.352021,1.0795 2.241021,1.156229 1.134181,0.09701 2.370666,-0.157869 3.709458,-0.764646 0.368652,-0.165806 0.604131,-0.02822 0.706437,0.41275 0.213432,0.93486 0.237244,1.87325 0.07144,2.815167 z"
       id="path1338"
       sodipodi:nodetypes="ccccccccccccccc"
       style="stroke-width:0.264583" />
    <path
       fill="#f3765c"
       d="m 47.61364,44.760483 q 0.531813,0.05556 0.672042,1.389063 l 0.100541,1.145645 q -1.944687,0.02646 -1.709208,-1.852083 c 0.07673,-0.605896 0.402167,-0.640292 0.936625,-0.682625 z"
       id="path1363"
       style="stroke-width:0.264583" />
    <path
       fill="#f3765c"
       d="m 57.419098,47.13115 c 0.05027,-0.497417 0.33073,-1.603375 0.132292,-2.050521 q 0.166688,0.02117 0.195792,-0.238125 l 0.161396,0.03969 q 0.08202,0.02117 0.164041,-0.0026 c 1.748896,-0.515938 1.529292,3.024187 -0.653521,2.251604 z"
       id="path1366"
       style="stroke-width:0.264583" />
    <path
       fill="#f3765c"
       d="m 56.519515,50.64217 q -0.439208,0.748771 -0.03704,1.754188 -3.947583,3.235854 -6.7945,-0.817563 0.06086,-0.195791 -0.08467,-0.49477 l 0.105833,-0.169334 q 0.07937,-0.124354 0.201083,-0.04233 c 2.402417,1.637771 4.217459,0.9525 6.609292,-0.230188 z"
       id="path1377"
       style="stroke-width:0.264583" />
    <path
       fill="#feb392"
       d="m 49.687973,51.578795 q 2.846917,4.053417 6.7945,0.817563 0.291042,1.076854 1.148292,1.624542 -0.325437,1.203854 -1.251479,1.740958 -3.550708,2.066396 -7.064375,-0.320146 -0.576792,-0.391583 -0.836083,-1.105958 0.873125,-1.209146 1.209145,-2.756959 z"
       id="path1382"
       style="stroke-width:0.264583" />
    <path
       fill="#788f9f"
       d="m 57.630765,54.0209 q 6.178021,1.931458 8.138583,2.614083 c 0.812271,0.283104 1.336146,0.926042 1.785938,1.735667 q 3.71475,6.709833 5.640916,14.139333 0.07144,0.272521 -0.07144,0.592666 c -0.841375,-0.592666 -3.013604,0.28575 -3.796771,0.682625 q -0.129646,0.06879 -0.182562,0.20373 -0.04498,0.116416 -0.156105,0.11377 -0.11377,-0.0026 -0.169333,-0.103187 c -0.772583,-1.439333 -1.706562,-2.894542 -2.002896,-4.503208 q -0.642937,-3.503084 -0.494771,-7.077604 0.0026,-0.103188 -0.0979,-0.08202 -0.05027,0.01058 -0.08467,0.04763 -0.04498,0.04762 -0.05556,0.161396 c -0.22225,2.55852 -0.05821,5.132916 -0.185208,7.696729 a 0.35454166,0.3571875 26.8 0 0 0.07673,0.235479 q 1.68275,2.132541 2.397125,4.585229 0.272521,2.201333 0.886354,4.108979 -0.03704,1.497542 0.09525,2.931583 c 0.238125,2.577042 -1.54252,3.725334 -3.685645,4.524375 -4.111625,1.539875 -8.059209,2.082271 -12.591521,2.024063 Q 46.941598,88.575483 40.861474,87.72617 a 0.09789583,0.09789583 0 0 1 -0.02646,-0.185208 q 1.30175,-0.574146 2.111375,-1.748896 a 0.10054167,0.10054167 0 0 0 -0.0979,-0.156104 c -1.486958,0.224896 -2.931583,0.232833 -4.296833,0.926041 a 0.44185416,0.44185416 0 0 1 -0.582083,-0.17727 l -1.563688,-2.77548 a 0.10847917,0.1190625 31.1 0 1 -0.01323,-0.0635 l 0.206375,-2.894541 1.172104,-5.233458 q 0.878417,-2.651125 2.717271,-4.802188 a 0.31220833,0.31220833 0 0 0 0.07144,-0.238125 C 40.337595,68.456566 40.44872,66.339899 40.255574,64.64392 q -0.134938,-1.169458 -0.381,-2.532062 -0.03175,-0.161396 -0.121709,-0.224896 -0.153458,-0.108479 -0.127,0.07673 c 0.420688,2.878667 0.333375,7.257521 -1.150937,9.707563 q -0.936625,1.547812 -1.865313,2.651125 a 0.25929166,0.25929166 0 0 1 -0.291041,0.07408 l -2.037292,-0.804333 a 0.2143125,0.20902083 43.4 0 0 -0.161396,0.0026 q -0.174625,0.07937 -0.145521,0.272521 l -0.944562,-0.457729 q -0.132292,-0.0635 -0.111125,-0.209021 c 0.738187,-4.781021 2.947458,-9.68375 5.360458,-13.991166 0.875771,-1.563688 0.965729,-2.0955 2.513542,-2.619375 q 3.6195,-1.232959 7.265458,-2.38125 0.283104,-0.08996 0.420688,0.127 0.259291,0.714375 0.836083,1.105958 3.513667,2.386542 7.064375,0.320146 0.926042,-0.537104 1.251479,-1.740958 z m 1.439333,14.522979 c -4.497916,-0.129646 -11.71575,1.397 -13.631333,6.270625 q -0.07673,0.201083 0.108479,0.08996 c 0.206375,-0.124354 0.362479,-0.41275 0.500063,-0.531813 3.516312,-3.029479 8.453437,-4.815416 13.033375,-5.685895 a 0.07163322,0.07163322 0 0 0 -0.01058,-0.142875 z m 2.569104,17.536583 c 2.759605,-0.325438 4.93448,-1.558396 7.297209,-3.463396 q 0.121708,-0.0979 0.103187,-0.142875 a 0.20902083,0.206375 62.9 0 0 -0.306916,-0.100542 c -2.286,1.508125 -4.868334,2.405063 -7.395105,3.542771 a 0.13229166,0.13229166 0 0 0 0.0053,0.246063 q 0.05292,0.02117 0.153458,-0.0344 0.07673,-0.03969 0.142875,-0.04762 z"
       id="path1386"
       style="stroke-width:0.264583" />
    <path
       fill="#567486"
       d="m 37.77114,75.417754 q -0.219604,-0.08996 -0.449791,-0.08202 -1.690688,-0.452438 -3.167063,-1.314979 -0.08731,-0.01323 -0.179917,-0.153459 -0.0291,-0.193146 0.145521,-0.272521 a 0.2143125,0.20902083 43.4 0 1 0.161396,-0.0026 l 2.037292,0.804333 a 0.25929166,0.25929166 0 0 0 0.291041,-0.07408 q 0.928688,-1.103313 1.865313,-2.651125 c 1.484312,-2.450042 1.571625,-6.828896 1.150937,-9.707563 q -0.02646,-0.185208 0.127,-0.07673 0.08996,0.0635 0.121709,0.224896 0.246062,1.362604 0.381,2.532062 c 0.193146,1.695979 0.08202,3.812646 0.304271,5.733521 a 0.31220833,0.31220833 0 0 1 -0.07144,0.238125 q -1.838854,2.151063 -2.717271,4.802188 z"
       id="path1390"
       style="stroke-width:0.264583" />
    <path
       fill="#567486"
       d="m 73.124765,73.102649 -1.272646,0.814917 -3.103562,1.317625 -0.375709,-0.171979 q -0.714375,-2.452688 -2.397125,-4.585229 a 0.35454166,0.3571875 26.8 0 1 -0.07673,-0.235479 c 0.127,-2.563813 -0.03704,-5.138209 0.185208,-7.696729 q 0.01058,-0.113771 0.05556,-0.161396 0.0344,-0.03704 0.08467,-0.04763 0.100541,-0.02117 0.0979,0.08202 -0.148166,3.57452 0.494771,7.077604 c 0.296334,1.608666 1.230313,3.063875 2.002896,4.503208 q 0.05556,0.100542 0.169333,0.103187 0.111125,0.0026 0.156105,-0.11377 0.05292,-0.134938 0.182562,-0.20373 c 0.783167,-0.396875 2.955396,-1.275291 3.796771,-0.682625 z"
       id="path1392"
       style="stroke-width:0.264583" />
    <path
       fill="#567486"
       d="m 45.438765,74.814504 c 1.915583,-4.873625 9.133417,-6.400271 13.631333,-6.270625 a 0.07163322,0.07163322 0 0 1 0.01058,0.142875 c -4.579938,0.870479 -9.517063,2.656416 -13.033375,5.685895 -0.137584,0.119063 -0.293688,0.407459 -0.500063,0.531813 q -0.185208,0.111125 -0.108479,-0.08996 z"
       id="path1400"
       style="stroke-width:0.264583" />
    <path
       fill="#feb392"
       d="m 71.852119,73.917566 q 2.103437,6.855354 1.915583,13.87475 c -0.07144,2.69875 -0.624416,5.794375 -1.042458,8.665104 -0.383646,2.627312 -0.817562,5.02444 -3.672417,6.00604 a 0.14816666,0.14816666 0 0 1 -0.1905,-0.0952 l -0.03969,-0.12964 a 0.127,0.13229166 58.1 0 1 0.0344,-0.13494 q 2.217208,-2.156356 1.280583,-5.238752 a 0.05027083,0.05027083 0 0 0 -0.09525,-0.0053 q -0.722312,1.651 -1.121833,3.413122 -0.0344,0.15346 -0.0635,0.16933 a 0.39158333,0.39158333 0 0 1 -0.566209,-0.452432 c 0.354542,-1.185333 0.28575,-2.521479 0.500063,-3.553354 q 0.341312,-1.656291 0.762,-3.2385 0.597958,-1.415521 0.960437,-2.910416 c 1.090083,-4.4715 0.579437,-10.482833 -1.711855,-14.689708 a 0.206375,0.22489583 24.2 0 1 -0.0291,-0.08731 l -0.02381,-0.275167 z"
       id="path1407"
       style="stroke-width:0.264583" />
    <path
       fill="#feb392"
       d="m 34.154286,74.020754 q 1.476375,0.862541 3.167063,1.314979 c -1.693334,4.08252 -3.556,10.797645 -1.571625,14.906624 q 0.690562,1.431396 0.701145,2.55323 0.0026,0.137583 0.124355,0.07937 0.06879,-0.0344 0.124354,-0.129646 c 0.201083,1.391708 0.711729,2.640541 0.899583,4.045479 0.111125,0.838729 -0.07673,2.076979 0.325438,3.164417 a 0.22489583,0.22489583 0 0 1 -0.322792,0.272523 c -0.661458,-0.378357 -0.870479,-1.820336 -1.090083,-2.526773 a 0.16404166,0.16404166 0 0 0 -0.306917,-0.01852 c -0.894292,1.989666 0.124354,2.754313 1.124479,4.265083 a 0.25664583,0.25929166 79.3 0 1 -0.269875,0.39423 C 34.813099,101.85757 34.11989,100.03194 33.781224,97.976128 32.810203,92.083857 32.074661,85.908483 32.902807,80.185545 q 0.235479,-1.616604 1.251479,-6.164791 z"
       id="path1408"
       style="stroke-width:0.264583" />
    <path
       fill="#f3765c"
       d="m 68.372848,75.063212 0.375709,0.171979 0.02381,0.275167 a 0.206375,0.22489583 24.2 0 0 0.0291,0.08731 c 2.291292,4.206875 2.801938,10.218208 1.711854,14.689667 q -0.362479,1.494895 -0.960437,2.910416 -0.03969,-1.743604 -0.648229,-3.304646 -0.05556,-0.142875 0.05292,-0.36777 c 0.142875,-0.03969 0.251355,-0.07144 0.322792,-0.214313 1.526646,-3.063875 0.690563,-6.897687 -0.02117,-10.138833 Q 68.645364,77.264543 68.372843,75.06321 Z"
       id="path1409"
       style="stroke-width:0.264583" />
    <path
       fill="#f3765c"
       d="m 37.321349,75.335733 q 0.230187,-0.0079 0.449791,0.08202 l -1.172104,5.233458 q -0.73025,2.275416 -0.627062,5.024437 0.05821,1.579563 0.62177,2.876021 0.283105,0.457729 0.238125,0.658813 c 0.256646,1.373187 -0.283104,2.349499 -0.132291,3.534833 q -0.05556,0.09525 -0.124354,0.129646 -0.121709,0.05821 -0.124355,-0.07937 -0.01058,-1.121834 -0.701145,-2.55323 C 33.765349,86.133378 35.628015,79.418253 37.321349,75.335733 Z"
       id="path1410"
       style="stroke-width:0.264583" />
    <path
       fill="#567486"
       d="m 69.259202,79.172191 c 0.71173,3.241146 1.547813,7.074958 0.02117,10.138833 -0.07144,0.142875 -0.179917,0.174625 -0.322792,0.214313 q 0.0344,-0.608542 -0.43127,-1.053042 -4.122209,1.317625 -8.382,2.005542 c -1.616604,0.259291 -3.518959,0.283104 -5.291667,0.492125 q -0.41275,0.33602 -1.000125,0.373062 -0.134937,-0.201083 -0.298979,-0.269875 -0.182563,-0.07408 -0.124354,0.113771 l 0.394229,1.330854 q -0.859896,0.566208 -0.939271,1.031875 c -0.256646,1.468438 -0.624417,2.796646 -0.365125,4.370917 l -0.338667,-0.08202 -0.373062,-0.947208 q 0.912812,-2.883959 0.743479,-5.79173 l -1.920878,-0.29898 q 0.06085,-0.0926 0.06615,-0.1905 A 0.13229166,0.12964583 0.5 0 0 50.558453,90.472545 C 47.29614,90.573087 43.93064,90.197378 40.689494,89.295149 q -0.738187,-0.206375 -1.143,-0.277812 -1.455208,-0.256646 -2.95275,-0.465667 -0.563562,-1.296458 -0.62177,-2.876021 -0.103188,-2.749021 0.627062,-5.024437 l -0.206375,2.894541 a 0.10847917,0.1190625 31.1 0 0 0.01323,0.0635 l 1.563688,2.77548 a 0.44185416,0.44185416 0 0 0 0.582083,0.17727 c 1.36525,-0.693208 2.809875,-0.701145 4.296833,-0.926041 a 0.10054167,0.10054167 0 0 1 0.0979,0.156104 q -0.809625,1.17475 -2.111375,1.748896 a 0.09789583,0.09789583 0 0 0 0.02646,0.185208 q 6.080124,0.849313 12.215812,0.926042 c 4.532312,0.05821 8.479896,-0.484188 12.591521,-2.024063 2.143125,-0.799041 3.92377,-1.947333 3.685645,-4.524375 q -0.132291,-1.434041 -0.09525,-2.931583 z"
       id="path1412"
       style="stroke-width:0.264583" />
    <path
       fill="#567486"
       d="m 61.496327,86.128087 q -0.100541,0.05556 -0.153458,0.0344 a 0.13229166,0.13229166 0 0 1 -0.0053,-0.246063 c 2.526771,-1.137708 5.109105,-2.034646 7.395105,-3.542771 a 0.20902083,0.206375 62.9 0 1 0.306916,0.100542 q 0.01852,0.04498 -0.103187,0.142875 c -2.362729,1.905 -4.537604,3.137958 -7.297209,3.463396 q -0.06614,0.0079 -0.142875,0.04762 z"
       id="path1416"
       style="stroke-width:0.264583" />
    <path
       fill="#0d586f"
       d="m 50.62989,90.800628 -0.441854,0.230188 a 0.42597916,0.41274999 33.4 0 1 -0.238125,0.04498 q -4.894792,-0.452438 -9.768417,-1.090083 -1.521354,-0.201084 -2.76225,0.08996 l -0.587375,-0.865187 q 0.04498,-0.201084 -0.238125,-0.658813 1.497542,0.209021 2.95275,0.465667 0.404813,0.07144 1.143,0.277812 c 3.241146,0.902229 6.606646,1.277938 9.868959,1.177396 a 0.13229166,0.12964583 0.5 0 1 0.137583,0.137583 q -0.0053,0.0979 -0.06615,0.1905 z"
       id="path1425"
       style="stroke-width:0.264583" />
    <path
       fill="#116b76"
       d="m 68.526307,88.472295 0.09525,2.696104 q -0.161396,-0.34925 -0.592667,-0.341312 -4.98475,0.09789 -9.972146,0.238125 -1.820333,0.05027 -3.204104,-0.09525 c 1.772708,-0.209021 3.675063,-0.232834 5.291667,-0.492125 q 4.259791,-0.687917 8.382,-2.005542 z"
       id="path1426"
       style="stroke-width:0.264583" />
    <path
       fill="#1d8890"
       d="m 50.62989,90.800628 1.920875,0.298979 q -0.640292,2.037292 -1.140354,4.68048 -0.156104,0.820208 0.396875,1.11125 l 0.373062,0.947208 q -0.15875,0.153458 -0.291041,0.153458 -2.696104,0.01588 -5.246688,0.4445 a 0.142875,0.142875 0 0 0 -0.02646,0.275167 q 1.132417,0.404812 2.185458,0.836083 c 1.590146,0.650877 2.735792,0.865187 2.944813,2.360087 0.132291,0.9472 0.0026,3.14589 -0.06615,4.00843 q -0.246063,3.06917 -0.251354,3.86292 -5.402792,-0.0185 -10.771188,-0.40746 -0.695854,0.14023 -0.751416,-0.34396 -0.719667,-6.2177 -1.706563,-12.393079 C 37.855807,94.478337 37.678536,92.287587 37.419244,90.07567 q 1.240896,-0.291042 2.76225,-0.08996 4.873625,0.637645 9.768417,1.090083 a 0.42597916,0.41274999 33.4 0 0 0.238125,-0.04498 z"
       id="path1429"
       style="stroke-width:0.264583" />
    <path
       fill="#1d8890"
       d="m 68.621557,91.168399 -2.151063,17.830271 q -0.01588,0.13229 -0.119062,0.21431 -0.22225,0.17727 -0.492125,0.14288 -5.334,0.43656 -10.668,0.39687 l 0.637646,-0.11641 q 0.179916,-0.0318 0.153458,-0.21167 l -1.336146,-9.26042 q -0.02381,-0.166685 0.124354,-0.24606 0.867834,-0.463021 1.74625,-0.904875 c 0.669396,-0.336021 1.481667,-0.433917 2.225146,-0.746125 q 0.293687,-0.121708 -0.02381,-0.142875 c -0.574145,-0.03969 -1.275291,0.275167 -1.785937,0.0079 l -0.619125,-2.12725 a 0.20108333,0.20108333 0 0 1 0.05292,-0.201083 l 0.484187,-0.47625 a 0.15345833,0.15345833 0 0 0 -0.111125,-0.264583 q -0.915458,0.02646 -1.322916,-0.732896 -0.06879,-0.129646 -0.211667,-0.124354 -0.119063,0.0026 -0.238125,0.0926 l -1.113896,-2.955396 q 0.587375,-0.03704 1.000125,-0.373062 1.383771,0.14552 3.204104,0.09525 4.987396,-0.14023 9.972146,-0.238125 0.431271,-0.0079 0.592667,0.341312 z"
       id="path1430"
       style="stroke-width:0.264583" />
    <path
       fill="#d2eefd"
       d="m 53.852515,91.343024 1.113896,2.955396 1.74625,3.886729 q -0.552979,0.15875 -0.804333,-0.05821 L 53.823411,92.517774 53.429182,91.18692 q -0.05821,-0.187854 0.124354,-0.113771 0.164042,0.06879 0.298979,0.269875 z"
       id="path1432"
       style="stroke-width:0.264583" />
    <path
       fill="#d2eefd"
       d="m 51.807286,96.891337 q -0.552979,-0.291042 -0.396875,-1.11125 0.500062,-2.643188 1.140354,-4.68048 0.169333,2.907771 -0.743479,5.79173 z"
       id="path1433"
       style="stroke-width:0.264583" />
    <path
       fill="#3f798a"
       d="m 53.823411,92.517774 2.084917,5.609167 q -1.582209,0.375708 -3.389313,-0.206375 c -0.259292,-1.574271 0.108479,-2.902479 0.365125,-4.370917 q 0.07937,-0.465667 0.939271,-1.031875 z"
       id="path1440"
       style="stroke-width:0.264583" />
    <path
       fill="#0d586f"
       d="m 56.932265,98.132232 q -0.396875,0.02117 -0.219604,0.05292 l -1.74625,-3.886729 q 0.119062,-0.08996 0.238125,-0.0926 0.142875,-0.0053 0.211667,0.124354 0.407458,0.759354 1.322916,0.732896 a 0.15345833,0.15345833 0 0 1 0.111125,0.264583 l -0.484187,0.47625 a 0.20108333,0.20108333 0 0 0 -0.05292,0.201083 z"
       id="path1443"
       style="stroke-width:0.264583" />
    <path
       fill="#116b76"
       d="m 52.180348,97.838545 0.338667,0.08202 q 1.807104,0.582083 3.389313,0.206375 0.251354,0.216958 0.804333,0.05821 -0.177271,-0.03175 0.219604,-0.05292 c 0.510646,0.26723 1.211792,-0.04762 1.785937,-0.0079 q 0.3175,0.02117 0.02381,0.142875 c -0.743479,0.312208 -1.55575,0.410104 -2.225146,0.746125 q -0.878416,0.441854 -1.74625,0.904875 -0.148166,0.07937 -0.124354,0.246065 l 1.336146,9.26041 q 0.02646,0.17992 -0.153458,0.21167 l -0.637646,0.11641 -0.132292,-0.003 q -0.555625,0.0952 -0.624417,-0.47624 -0.690562,-5.94784 -0.92075,-10.538363 a 0.18520833,0.18520833 0 0 0 -0.0926,-0.150812 l -0.0926,-0.05556 a 0.34395833,0.34395833 0 0 0 -0.521229,0.280459 q -0.227542,5.378976 -0.817563,10.726206 -0.0344,0.31486 -0.497416,0.29105 -0.03175,-0.0238 -0.0635,-0.0476 0.0053,-0.79375 0.251354,-3.86292 c 0.06879,-0.86254 0.198437,-3.06123 0.06615,-4.00843 -0.209021,-1.4949 -1.354667,-1.70921 -2.944813,-2.360089 q -1.05305,-0.430979 -2.185467,-0.835791 a 0.142875,0.142875 0 0 1 0.02646,-0.275167 q 2.550584,-0.428625 5.246688,-0.4445 0.132291,0 0.291041,-0.153458 z"
       id="path1446"
       style="stroke-width:0.264583" />
    <path
       fill="#feb392"
       d="m 65.859307,109.35586 -0.07144,0.44714 c -0.592667,0.0688 -1.166812,0.26194 -1.717146,0.30163 q -3.233208,0.23283 -6.477,0.18256 c -0.883708,-0.0159 -1.74625,-0.23283 -2.680229,-0.33867 q 0.169334,0.13494 0.145521,-0.19843 l 0.132292,0.003 q 5.334,0.0397 10.668,-0.39687 z"
       id="path1457"
       style="stroke-width:0.264583" />
    <path
       fill="#feb392"
       d="m 40.657744,109.37173 q 5.368396,0.38894 10.771188,0.40746 0.03175,0.0238 0.0635,0.0476 l -0.105834,0.20372 c -2.865437,0.51065 -5.961062,0.33603 -8.874124,0.3519 -0.5715,0.003 -1.137709,0.082 -1.733021,0.10848 q -0.124354,0.005 -0.132292,0.12965 l -0.01852,0.26458 q -0.153458,-0.69321 0.0291,-1.51342 z"
       id="path1458"
       style="stroke-width:0.264583" />
    <path
       fill="#f3765c"
       d="m 65.787869,109.803 -0.08996,1.82563 q -4.040188,-0.29898 -8.088313,0.17198 c -0.767291,0.09 -1.508125,0.0688 -2.259541,0.0661 l -0.436563,-1.91823 c 0.933979,0.10584 1.796521,0.3228 2.680229,0.33867 q 3.243792,0.0503 6.477,-0.18256 c 0.550334,-0.0397 1.124479,-0.23284 1.717146,-0.30163 z"
       id="path1459"
       style="stroke-width:0.264583" />
    <path
       fill="#f3765c"
       d="m 51.386598,110.03054 -0.33602,1.94998 c -3.405188,-0.19579 -6.847417,-0.41539 -10.242021,-0.17462 q -0.195792,-0.43656 -0.179917,-0.92075 l 0.01852,-0.26458 q 0.0079,-0.12436 0.132292,-0.12965 c 0.595312,-0.0265 1.161521,-0.10583 1.733021,-0.10848 2.913062,-0.0159 6.008687,0.15875 8.874125,-0.3519 z"
       id="path1460"
       style="stroke-width:0.264583" />
    <path
       fill="#feb392"
       d="m 65.697911,111.62863 c -0.07937,0.96308 -0.227542,1.94998 -0.261938,2.90777 -0.224896,6.17008 -1.455208,12.14173 -2.711979,17.57098 q -0.579437,2.49766 -0.735542,4.75721 -0.39952,-0.0344 -0.878416,0.26458 -0.111125,0.0688 -0.243417,0.0688 l -1.137708,-0.003 -1.193271,-0.84138 q -0.746125,-5.16202 -1.788583,-10.38225 c -0.939271,-4.69106 -0.968375,-9.36096 -1.397,-14.10494 0.751416,0.003 1.49225,0.0238 2.259541,-0.0661 q 4.048125,-0.47096 8.088313,-0.17198 z m -4.627563,2.59027 c -0.468312,-0.6059 -1.222375,-0.39158 -1.822979,-0.11642 a 0.21960416,0.21695833 50.4 0 0 -0.0344,0.37571 q 1.733021,1.25148 3.643313,0.46831 c 0.902229,-0.36777 1.558396,-0.61912 1.759479,-1.54516 a 0.11377083,0.11377083 0 0 0 -0.177271,-0.11642 c -0.992187,0.70115 -1.822979,1.38377 -3.177646,1.05833 q -0.116416,-0.0291 -0.1905,-0.12435 z m 0.938954,2.63078 a 0.42862499,0.42862499 0 0 0 -0.427885,-0.42937 l -0.09525,-1.6e-4 a 0.42862499,0.42862499 0 0 0 -0.429365,0.42789 l -0.0047,2.67229 a 0.42862499,0.42862499 0 0 0 0.427884,0.42936 l 0.09525,1.6e-4 a 0.42862499,0.42862499 0 0 0 0.429366,-0.42788 z"
       id="path1463"
       style="stroke-width:0.264583" />
    <path
       fill="#feb392"
       d="m 51.050578,111.98052 c -0.375709,3.40519 -0.468313,6.09336 -0.706438,8.91911 -0.428625,5.13291 -1.754187,10.18116 -2.330979,15.31673 q -0.809625,0.94191 -1.629833,1.08214 l -0.653521,-0.25664 q -0.563563,-0.28311 -1.309688,-0.29898 0.07937,-0.13494 0.05556,-0.26723 -0.806979,-4.572 -1.767417,-9.11754 c -1.095375,-5.17525 -1.698625,-10.27907 -1.899708,-15.55221 3.394604,-0.24077 6.836833,-0.0212 10.242021,0.17462 z m -9.329209,1.78594 c 1.201209,1.89971 3.563938,1.83092 5.336646,0.9869 a 0.42068749,0.42068749 0 0 0 0.07673,-0.71438 q -0.613833,-0.4736 -1.399646,-0.45244 -0.150812,0.003 -0.206375,0.14288 l -0.206374,0.50535 a 0.20372916,0.20902083 7.2 0 1 -0.156105,0.12436 q -1.770062,0.31485 -3.063875,-0.90752 a 0.24870833,0.24870833 0 0 0 -0.381,0.31485 z m 3.595026,2.70256 a 0.1508125,0.1508125 0 0 0 -0.145441,-0.156 l -0.01588,-5.3e-4 a 0.1508125,0.1508125 0 0 0 -0.155998,0.14545 l -0.104696,2.99854 a 0.1508125,0.1508125 0 0 0 0.145441,0.156 l 0.01588,5.3e-4 a 0.1508125,0.1508125 0 0 0 0.155999,-0.14544 z"
       id="path1464"
       style="stroke-width:0.264583" />
    <path
       fill="#fe8f71"
       d="m 61.260848,114.34325 c 1.354667,0.32544 2.185459,-0.35718 3.177646,-1.05833 a 0.11377083,0.11377083 0 0 1 0.177271,0.11642 c -0.201083,0.92604 -0.85725,1.17739 -1.759479,1.54516 q -1.910292,0.78317 -3.643313,-0.46831 a 0.21960416,0.21695833 50.4 0 1 0.0344,-0.37571 c 0.600604,-0.27516 1.354667,-0.48948 1.822979,0.11642 q 0.07408,0.0952 0.1905,0.12435 z"
       id="path1467"
       style="stroke-width:0.264583" />
    <path
       fill="#fe8f71"
       d="m 47.058015,114.75336 c -1.772708,0.84402 -4.135437,0.91281 -5.336646,-0.9869 a 0.24870833,0.24870833 0 0 1 0.381,-0.31485 q 1.293813,1.22237 3.063875,0.90752 a 0.20372916,0.20902083 7.2 0 0 0.156105,-0.12436 l 0.206374,-0.50535 q 0.05556,-0.14023 0.206375,-0.14288 0.785813,-0.0212 1.399646,0.45244 a 0.42068749,0.42068749 0 0 1 -0.07673,0.71438 z"
       id="path1468"
       style="stroke-width:0.264583" />
    <rect
       fill="#f3765c"
       x="49.036007"
       y="114.66573"
       transform="rotate(2.0000011)"
       width="0.3175"
       height="3.3019998"
       rx="0.15081249"
       id="rect1471"
       style="stroke-width:0.264583" />
    <rect
       fill="#fe8f71"
       x="61.260651"
       y="116.31266"
       transform="rotate(0.1)"
       width="0.95249999"
       height="3.5295417"
       rx="0.42862499"
       id="rect1472"
       style="stroke-width:0.264583" />
    <path
       fill="#f3765c"
       d="m 48.013161,136.21636 0.629708,1.90764 q -0.1905,0.15875 -0.452437,0.18257 l -1.807104,-1.00807 q 0.820208,-0.14023 1.629833,-1.08214 z"
       id="path1475"
       style="stroke-width:0.264583" />
    <path
       fill="#f3765c"
       d="m 58.53564,136.35394 1.193271,0.84138 q -0.399521,0.66145 -1.177396,0.96837 -0.137583,0.0556 -0.227542,-0.0609 l -0.288395,-0.35719 z"
       id="path1477"
       style="stroke-width:0.264583" />
    <path
       fill="#dd9576"
       d="m 44.420119,136.74288 q 0.746125,0.0159 1.309688,0.29898 -0.211667,0.11377 0.02646,0.64029 l -0.933979,-0.26988 q 0.08996,-0.30691 -0.484187,-0.35983 0.07937,-0.16404 0.08202,-0.30956 z"
       id="path1480"
       style="stroke-width:0.264583" />
    <path
       fill="#d52515"
       d="m 61.988452,136.86459 q 0.0344,-0.005 0.06879,-0.0132 l -0.584729,0.91281 q -0.07408,0.11642 -0.214313,0.127 l -1.227666,0.082 -1.209146,0.49742 q -0.119063,0.0503 -0.240771,0 l -0.722312,-0.29369 0.177271,-0.43127 0.288395,0.35719 q 0.08996,0.11641 0.227542,0.0609 0.777875,-0.30692 1.177396,-0.96837 l 1.137708,0.003 q 0.132292,0 0.243417,-0.0688 0.478896,-0.29898 0.878416,-0.26458 z"
       id="path1482"
       style="stroke-width:0.264583" />
    <path
       fill="#084964"
       d="m 62.057244,136.85136 2.066396,2.21721 c -0.814917,-0.0106 -2.251604,-0.52388 -3.032125,-0.81228 q -0.568854,-0.26987 -1.060979,-0.2831 l 1.227666,-0.082 q 0.14023,-0.0106 0.214313,-0.127 z"
       id="path1483"
       style="stroke-width:0.264583" />
    <path
       fill="#084964"
       d="m 44.338099,137.05244 q 0.574145,0.0529 0.484187,0.35983 -1.465792,1.23561 -3.042708,2.36802 -0.116417,0.0847 -0.1905,0.0397 -0.07937,-0.0476 -0.150813,-0.17991 1.550459,-0.93398 2.614084,-2.3495 0.121708,-0.15875 0.28575,-0.23813 z"
       id="path1486"
       style="stroke-width:0.264583" />
    <path
       fill="#d52515"
       d="m 45.729807,137.04186 0.653521,0.25664 1.807104,1.00807 q -0.85725,0.42333 -2.569104,-0.70115 0.14552,0.43127 0.134937,0.0767 -0.238125,-0.52652 -0.02646,-0.64029 z"
       id="path1487"
       style="stroke-width:0.264583" />
    <path
       fill="#3f798a"
       d="m 44.822286,137.41227 0.933979,0.26988 q 0.01058,0.35454 -0.134937,-0.0767 0.127,1.76212 0.359833,3.03212 0.124354,0.67734 -0.365125,0.80169 -1.635125,0.42069 -2.579687,0.95779 l -4.852459,-0.10848 q -0.137583,-0.003 -0.150812,-0.14022 l -0.05556,-0.54505 q 1.600729,-1.13506 3.46075,-1.9632 0.07144,0.13229 0.150813,0.17991 0.07408,0.045 0.1905,-0.0397 1.576916,-1.13241 3.042708,-2.36802 z"
       id="path1493"
       style="stroke-width:0.264583" />
    <path
       fill="#116b76"
       d="m 45.621328,137.60542 q 1.711854,1.12448 2.569104,0.70115 0.261937,-0.0238 0.452437,-0.18257 0.415396,1.53723 0.330729,3.30465 -2.248958,0.11112 -4.550833,0.76729 c -0.449791,0.12965 -0.899583,0.14552 -1.386416,0.20108 q 0.944562,-0.5371 2.579687,-0.95779 0.489479,-0.12435 0.365125,-0.80169 -0.232833,-1.27 -0.359833,-3.03212 z"
       id="path1497"
       style="stroke-width:0.264583" />
    <path
       fill="#0d586f"
       d="m 60.030536,137.97319 q 0.492125,0.0132 1.060979,0.2831 -0.182563,-0.0238 -0.325438,0.0132 a 0.17197916,0.17197916 0 0 0 -0.129645,0.16405 l -0.05027,2.93422 a 0.1905,0.1905 0 0 0 0.148166,0.19315 l 1.973792,0.46038 q 0.105833,0.0238 0.0926,0.13229 l -0.02646,0.2196 -5.217583,-0.889 q -0.145521,-1.78064 0.301625,-3.30729 l 0.722312,0.29369 q 0.121708,0.0503 0.240771,0 z"
       id="path1500"
       style="stroke-width:0.264583" />
    <path
       fill="#3f798a"
       d="m 61.091515,138.25629 c 0.780521,0.2884 2.217208,0.80169 3.032125,0.81228 1.156229,0.69056 2.706687,1.27793 3.730625,2.10608 q 0.351896,0.2831 0.627062,0.48683 0.177271,0.30956 -0.256645,0.59267 -0.36248,-0.18521 -0.661459,-0.11377 l -4.788958,0.23283 0.02646,-0.2196 q 0.01323,-0.10848 -0.0926,-0.13229 l -1.973792,-0.46038 a 0.1905,0.1905 0 0 1 -0.148166,-0.19315 l 0.05027,-2.93422 a 0.17197916,0.17197916 0 0 1 0.129645,-0.16405 q 0.142875,-0.037 0.325438,-0.0132 z"
       id="path1501"
       style="stroke-width:0.264583" />
  </g>
</svg>
