<?xml version="1.0" encoding="UTF-8" standalone="no"?>
<!-- Created with Inkscape (http://www.inkscape.org/) -->

<svg
   width="59.583767mm"
   height="118.43742mm"
   viewBox="0 0 59.583767 118.43742"
   version="1.1"
   id="svg1"
   inkscape:version="1.3 (0e150ed6c4, 2023-07-21)"
   sodipodi:docname="obese.svg"
   xmlns:inkscape="http://www.inkscape.org/namespaces/inkscape"
   xmlns:sodipodi="http://sodipodi.sourceforge.net/DTD/sodipodi-0.dtd"
   xmlns="http://www.w3.org/2000/svg"
   xmlns:svg="http://www.w3.org/2000/svg">
  <sodipodi:namedview
     id="namedview1"
     pagecolor="#505050"
     bordercolor="#ffffff"
     borderopacity="1"
     inkscape:showpageshadow="0"
     inkscape:pageopacity="0"
     inkscape:pagecheckerboard="1"
     inkscape:deskcolor="#505050"
     inkscape:document-units="mm"
     inkscape:zoom="0.73139029"
     inkscape:cx="130.57324"
     inkscape:cy="125.1042"
     inkscape:window-width="1920"
     inkscape:window-height="1017"
     inkscape:window-x="-8"
     inkscape:window-y="-8"
     inkscape:window-maximized="1"
     inkscape:current-layer="layer1" />
  <defs
     id="defs1" />
  <g
     inkscape:label="Warstwa 1"
     inkscape:groupmode="layer"
     id="layer1"
     transform="translate(-35.718712,-101.33545)">
    <path
       fill="#30568a"
       d="m 70.630742,126.94673 q -1.084792,-0.36248 -1.164167,-0.8546 -0.243416,-1.53988 -0.142875,-3.8788 c 0.814917,-0.71966 1.772709,-1.52664 2.286,-2.45533 1.965854,-3.55864 -0.531812,-8.90587 -2.741083,-11.98298 -0.912813,-1.26735 -2.738438,-3.05593 -4.368271,-3.10885 a 0.29633333,0.301625 23.8 0 0 -0.214312,0.0847 q -3.989917,3.97668 -5.405438,8.94027 -1.550458,5.43983 2.812521,8.65452 -0.198437,1.75683 -0.113771,3.29935 0.0291,0.52123 -0.230187,0.86519 a 0.36777083,0.36777083 0 0 1 -0.214313,0.13758 l -2.045229,0.41804 c -6.2865,-0.6985 -7.926917,-7.29985 -6.315604,-12.40366 1.436687,-4.54819 5.662083,-13.04661 11.284479,-13.08894 q 0.817562,-0.005 1.518708,-0.12435 c 5.752042,-0.97896 8.815917,4.572 9.813396,9.2366 q 1.254125,5.86846 1.791229,9.28158 c 0.3175,2.0029 -0.351896,3.99786 -1.907646,5.334 q -1.902354,1.63513 -4.643437,1.64571 z"
       id="path590"
       style="stroke-width:0.264583" />
    <path
       fill="#fbb0a0"
       d="m 69.3237,122.21333 q -3.757083,2.30453 -7.630583,0.1323 -4.362979,-3.21469 -2.812521,-8.65452 1.415521,-4.96359 5.405438,-8.94027 a 0.29633333,0.301625 23.8 0 1 0.214312,-0.0847 c 1.629833,0.0529 3.455458,1.8415 4.368271,3.10885 2.209271,3.07711 4.706937,8.42434 2.741083,11.98298 -0.513291,0.92869 -1.471083,1.73567 -2.286,2.45533 z"
       id="path594"
       style="stroke-width:0.264583" />
    <path
       fill="#fd9587"
       d="m 69.3237,122.21333 q -0.100541,2.33892 0.142875,3.8788 0.07937,0.49212 1.164167,0.8546 l 4.590521,0.6985 -0.01323,0.31221 -0.767292,-0.0662 q -0.132292,-0.0132 -0.246063,0.0582 -0.997479,0.61119 -1.452562,0.72231 -3.394604,0.84138 -6.783917,1.71186 c -0.338666,0.0873 -1.108604,0.045 -1.439333,-0.0529 -2.923646,-0.87048 -5.201708,-1.26735 -7.437437,-1.92087 q -0.129646,-0.037 -0.214313,-0.14552 -0.370417,-0.47096 -1.039812,-0.21696 l 0.08996,-0.15875 q 0.05292,-0.0952 -0.05556,-0.11642 -0.07408,-0.0132 -0.116416,-0.0608 1.7145,-0.11907 3.344333,-0.64559 l 2.045229,-0.41804 a 0.36777083,0.36777083 0 0 0 0.214313,-0.13758 q 0.259291,-0.34396 0.230187,-0.86519 -0.08467,-1.54252 0.113771,-3.29935 3.8735,2.17223 7.630583,-0.1323 z"
       id="path603"
       style="stroke-width:0.264583" />
    <path
       fill="#fd6c61"
       d="m 75.221263,127.64523 2.627312,0.61119 q -0.312208,2.46062 0.06085,4.96623 c 0.846667,3.44752 3.024188,5.97958 4.47675,9.32656 0.947209,2.17752 1.145646,4.15131 0.687917,6.40556 -0.272521,1.33615 -1.8415,2.56117 -3.085042,2.96069 -3.249083,1.04246 -6.963833,0.26723 -10.339916,-0.40746 -2.711979,-0.53975 -5.130271,-0.53446 -7.958667,-0.0529 -3.58775,0.61384 -10.69975,2.4474 -13.252979,-1.27529 -0.269875,-0.86518 -0.724958,-1.66952 -0.822854,-2.52677 -0.254,-2.28071 0.791104,-4.67254 1.949979,-6.62252 q 1.608667,-2.70933 2.973917,-5.55096 c 1.211791,-2.52677 1.137708,-4.42912 0.881062,-7.1411 l 2.325688,-0.62706 q 0.04233,0.0476 0.116416,0.0608 0.10848,0.0212 0.05556,0.11642 l -0.08996,0.15875 q -0.03175,0.0291 -0.05027,0.0688 -0.01323,0.0344 -0.0053,0.0847 0.359833,1.83356 0.703792,3.65918 c 1.071562,5.6859 6.344708,8.27882 11.707812,6.94002 5.550958,-1.38377 6.736292,-5.54302 7.119938,-10.63095 q 0.0053,-0.0688 -0.01323,-0.11907 -0.0344,-0.0767 -0.08202,-0.0926 z"
       id="path606"
       style="stroke-width:0.264583" />
    <path
       fill="#fbb0a0"
       d="m 75.208034,127.95744 q 0.04762,0.0159 0.08202,0.0926 0.01852,0.0503 0.01323,0.11907 c -0.383646,5.08793 -1.56898,9.24718 -7.119938,10.63095 -5.363104,1.3388 -10.63625,-1.25412 -11.707812,-6.94002 q -0.343959,-1.82562 -0.703792,-3.65918 -0.0079,-0.0503 0.0053,-0.0847 0.01852,-0.0397 0.05027,-0.0688 0.669395,-0.254 1.039812,0.21696 0.08467,0.10847 0.214313,0.14552 c 2.235729,0.65352 4.513791,1.05039 7.437437,1.92087 0.330729,0.0979 1.100667,0.14023 1.439333,0.0529 q 3.389313,-0.87048 6.783917,-1.71186 0.455083,-0.11112 1.452562,-0.72231 0.113771,-0.0714 0.246063,-0.0582 z"
       id="path609"
       style="stroke-width:0.264583" />
    <path
       fill="#fbb0a0"
       d="m 77.848575,128.25642 c 5.447771,1.35466 8.778875,5.94254 11.001375,10.74208 q 3.119437,6.731 4.804833,13.95677 -0.582083,0.1614 -0.833437,-0.33337 c -0.907521,-1.78594 -1.420813,-4.11692 -2.532063,-5.91609 q -1.222375,-1.97643 -2.420937,-3.97404 -1.074208,-1.78594 -2.108729,-2.95539 -2.770188,-3.12738 -6.183313,-5.58007 -0.108479,-0.0794 -0.156104,-0.20108 -0.341312,-0.84667 -1.510771,-0.77258 -0.373062,-2.50561 -0.06085,-4.96623 z"
       id="path610"
       style="stroke-width:0.264583" />
    <path
       fill="#fca493"
       d="m 53.419596,128.33844 c 0.256646,2.71198 0.330729,4.61433 -0.881062,7.1411 q -1.36525,2.84163 -2.973917,5.55096 c -1.158875,1.94998 -2.203979,4.34181 -1.949979,6.62252 0.0979,0.85725 0.552979,1.66159 0.822854,2.52677 l -0.367771,0.005 q -0.127,0 -0.216958,0.0952 -2.225146,2.37067 -1.852083,5.67003 0.04498,0.381 0.0344,0.76729 0,0.0926 0.08731,0.11906 0.455083,0.13758 0.555625,-0.10583 0.05292,-0.127 0.177271,-0.18257 c 1.415521,-0.635 2.838979,-1.38641 4.235979,-1.85208 q 2.008187,-0.6694 4.082521,-1.12448 c 0.889,-0.19314 1.926166,-0.0635 2.915708,-0.35719 q 1.254125,-0.37306 1.632479,-0.43391 c 1.177396,-0.19579 2.291292,-0.46567 3.46075,-0.48684 q 2.325688,-0.037 4.643438,0.18521 c 0.452437,0.0423 1.180041,-0.0238 1.680104,0.10584 2.344208,0.61118 4.937125,0.77258 6.757458,0.91016 2.653771,0.19844 5.572125,-0.3466 6.799792,-2.78341 a 0.1349375,0.1349375 0 0 1 0.230187,-0.0185 q 2.235729,2.99509 1.420813,6.64105 c -0.523875,0.51858 -1.426105,1.2991 -0.629709,2.032 q 1.508125,1.38906 2.045229,3.27554 l -0.08731,1.16416 q -0.01058,0.14023 -0.142875,0.1905 c -0.854604,0.32015 -1.574271,0.69057 -2.537354,0.56621 q -1.203854,-0.1561 -2.534709,0.0476 -4.407958,0.67998 -9.953624,1.21179 -0.01588,0.003 -0.01588,0.0159 0,0.005 0,0.0132 a 0.03439583,0.047625 88 0 0 0.05027,0.0344 q 2.717271,-0.16404 5.418667,-0.508 0.04763,-0.008 0.05027,0.0159 0,0.008 0.0026,0.0185 0.0026,0.0397 -0.03969,0.045 c -5.376333,0.64294 -8.805333,0.91282 -13.850937,0.68263 -0.611188,-0.0265 -1.098021,-0.3175 -1.740958,-0.38629 q -0.0344,-0.005 -0.04233,0.0291 -0.01058,0.0397 -0.03704,0.0688 -0.01323,0.0159 -0.03704,0.0106 c -1.389063,-0.31486 -2.465917,-0.56621 -4.143375,-0.83873 q -1.455208,-0.23813 -2.838979,-0.78581 a 0.2460625,0.2460625 0 0 0 -0.206375,0.0106 q -0.119063,0.0635 -0.127,-0.0265 -0.01058,-0.12171 -0.121709,-0.17198 c -1.783291,-0.82285 -3.452812,-1.80975 -5.400145,-2.21721 -0.457729,-0.0952 -0.854604,-0.46302 -1.423459,-0.29633 q -0.14552,0.0423 -0.187854,-0.10319 -0.142875,-0.508 0.235479,-0.76994 0.174625,-0.1217 -0.03704,-0.14022 l -0.34925,-0.037 1.211791,-1.43139 a 0.22754166,0.22489583 55.5 0 0 0.03969,-0.21961 q -0.277813,-0.80698 -0.896938,-1.38641 -0.121708,-0.11642 -0.201083,0.0344 -0.66675,1.29646 -1.201208,2.61409 -2.849563,6.99029 -4.455584,14.35893 c -0.195791,0.90223 -0.11377,2.12196 0.124355,3.16177 0.3175,1.38113 1.137708,4.49263 0.195791,5.70442 q -0.08996,0.11642 -0.209021,0.0344 c -0.605895,-0.41011 -0.68527,-1.35467 -0.777875,-1.98438 a 0.1508125,0.1508125 0 0 0 -0.293687,-0.0132 q -0.259292,1.07421 0.235479,1.97909 c 0.420688,0.76993 2.039938,1.44727 1.603375,2.50825 q -0.05821,0.13758 -0.198437,0.0926 c -0.719667,-0.23019 -2.651125,-0.86519 -3.095625,-1.57163 q -0.80698,-1.28587 -1.49225,-2.63524 a 0.47095833,0.48154166 33.1 0 1 -0.05027,-0.254 q 0.1905,-2.6088 0.148166,-3.37873 c -0.171979,-3.11944 -1.015999,-7.05644 -1.000124,-10.60186 0.04498,-10.49866 2.796645,-21.72494 8.104187,-30.7631 2.272771,-3.8735 5.164667,-7.07231 9.596437,-8.39523 z"
       id="path612"
       style="stroke-width:0.264583" />
    <path
       fill="#fd9587"
       d="m 77.909429,133.22265 q 1.169459,-0.0741 1.510771,0.77258 0.04763,0.12171 0.156104,0.20108 3.413125,2.45269 6.183313,5.58007 1.034521,1.16945 2.108729,2.95539 1.198562,1.99761 2.420937,3.97404 c 1.11125,1.79917 1.624542,4.13015 2.532063,5.91609 q 0.251354,0.49477 0.833437,0.33337 2.12725,9.42446 1.508125,17.71915 -0.07937,1.09273 -0.494771,4.826 c -0.187854,1.69333 -0.108479,3.35227 -0.111125,5.07471 -0.0026,2.40506 -2.17752,4.49262 -4.318,5.13556 q -0.568854,0.17198 -0.613833,-0.48684 a 0.333375,0.33072916 60.7 0 1 0.05821,-0.21166 c 1.04775,-1.47638 2.418292,-1.88648 1.719792,-4.13808 a 0.09260417,0.09260417 0 0 0 -0.177271,0.008 c -0.127,0.63236 -0.243416,1.905 -0.801687,2.22779 a 0.29104166,0.29104166 0 0 1 -0.436563,-0.2196 c -0.246062,-2.21192 0.243417,-4.00315 0.767292,-6.11452 0.211667,-0.85196 -0.22225,-3.13796 -0.534458,-4.29419 q -1.508125,-5.58006 -4.050771,-11.98298 -0.828146,-2.08491 -1.455208,-3.16441 0.814916,-3.64596 -1.420813,-6.64105 a 0.1349375,0.1349375 0 0 0 -0.230187,0.0185 c -1.227667,2.43681 -4.146021,2.98185 -6.799792,2.78341 -1.820333,-0.13758 -4.41325,-0.29898 -6.757458,-0.91016 -0.500063,-0.12965 -1.227667,-0.0635 -1.680104,-0.10584 q -2.31775,-0.22225 -4.643438,-0.18521 c -1.169458,0.0212 -2.283354,0.29105 -3.46075,0.48684 q -0.378354,0.0608 -1.632479,0.43391 c -0.989542,0.29369 -2.026708,0.16405 -2.915708,0.35719 q -2.074334,0.45508 -4.082521,1.12448 c -1.397,0.46567 -2.820458,1.21708 -4.235979,1.85208 q -0.124354,0.0556 -0.177271,0.18257 -0.100542,0.24341 -0.555625,0.10583 -0.08731,-0.0265 -0.08731,-0.11906 0.01058,-0.38629 -0.0344,-0.76729 -0.373063,-3.29936 1.852083,-5.67003 0.08996,-0.0952 0.216958,-0.0952 l 0.367771,-0.005 c 2.553229,3.72269 9.665229,1.88913 13.252979,1.27529 2.828396,-0.48154 5.246688,-0.48683 7.958667,0.0529 3.376083,0.67469 7.090833,1.44992 10.339916,0.40746 1.243542,-0.39952 2.812521,-1.62454 3.085042,-2.96069 0.457729,-2.25425 0.259292,-4.22804 -0.687917,-6.40556 -1.452562,-3.34698 -3.630083,-5.87904 -4.47675,-9.32656 z"
       id="path620"
       style="stroke-width:0.264583" />
    <path
       fill="#fd9587"
       d="m 46.03243,160.48531 0.34925,0.037 q 0.211666,0.0185 0.03704,0.14022 -0.378354,0.26194 -0.235479,0.76994 0.04233,0.14552 0.187854,0.10319 c 0.568855,-0.16669 0.96573,0.20108 1.423459,0.29633 1.947333,0.40746 3.616854,1.39436 5.400145,2.21721 q 0.111125,0.0503 0.121709,0.17198 0.0079,0.09 0.127,0.0265 a 0.2460625,0.2460625 0 0 1 0.206375,-0.0106 q 1.383771,0.54768 2.838979,0.78581 c 1.677458,0.27252 2.754312,0.52387 4.143375,0.83873 q 0.02381,0.005 0.03704,-0.0106 0.02646,-0.0291 0.03704,-0.0688 0.0079,-0.0344 0.04233,-0.0291 c 0.642937,0.0688 1.12977,0.35983 1.740958,0.38629 5.045604,0.23019 8.474604,-0.0397 13.850937,-0.68263 q 0.04233,-0.005 0.03969,-0.045 -0.0026,-0.0106 -0.0026,-0.0185 -0.0026,-0.0238 -0.05027,-0.0159 -2.701396,0.34396 -5.418667,0.508 a 0.03439583,0.047625 88 0 1 -0.05027,-0.0344 q 0,-0.008 0,-0.0132 0,-0.0132 0.01588,-0.0159 5.545666,-0.53181 9.953624,-1.21179 1.330855,-0.20373 2.534709,-0.0476 c 0.963083,0.12436 1.68275,-0.24606 2.537354,-0.56621 q 0.132292,-0.0503 0.142875,-0.1905 l 0.08731,-1.16416 q 0.227542,0.45508 0.214313,0.86783 -0.740833,1.27529 -2.338917,2.28865 c -6.503458,4.1275 -14.665854,7.48771 -22.357291,6.21506 q -7.791979,-1.28852 -14.634104,-5.82083 -0.597958,-0.39688 -1.314979,-1.05305 -0.611188,-0.56091 -1.275292,-1.11125 0.256646,-1.78329 1.608667,-3.54277 z"
       id="path640"
       style="stroke-width:0.264583" />
    <path
       fill="#fd6c61"
       d="m 86.344346,163.5095 c 0.500062,2.29129 1.465792,4.55877 1.452562,6.93473 -0.0053,1.37319 -0.375708,3.13002 -0.30427,4.70694 q -3.69623,1.83885 -7.469188,2.93158 -6.543146,2.08227 -13.149791,3.77561 a 0.3571875,0.35983333 85.2 0 0 -0.269875,0.3175 c -0.433917,5.36574 -1.023938,10.7897 -1.129771,16.18456 q 0,0.0317 -0.01587,0.0476 -0.02117,0.0265 -0.05292,0.0423 a 0.04233333,0.04233333 0 0 1 -0.06085,-0.0344 q -0.153458,-4.59846 -0.701146,-9.16517 c -0.288396,-2.39712 -0.436562,-4.71223 -0.679979,-7.05643 a 0.51064583,0.51064583 0 0 0 -0.383646,-0.44186 q -7.022041,-1.78064 -13.977937,-3.98727 -3.156479,-0.89694 -6.140979,-2.30452 c -0.171979,-2.72521 -0.542396,-5.40015 0.145521,-7.99306 q 0.592666,-2.24367 0.817562,-3.43959 0.664104,0.55034 1.275292,1.11125 0.717021,0.65617 1.314979,1.05305 6.842125,4.53231 14.634104,5.82083 c 7.691437,1.27265 15.853833,-2.08756 22.357291,-6.21506 q 1.598084,-1.01336 2.338917,-2.28865 z"
       id="path643"
       style="stroke-width:0.264583" />
    <path
       fill="#fca493"
       d="m 87.492638,175.15117 c -0.04233,9.84779 -3.122084,19.54477 -5.74675,28.94012 q -0.193146,0.68792 -0.07937,2.44475 0.22225,3.43959 -0.01852,6.56167 -1.611313,-0.4789 -3.476625,-0.29369 a 0.23283333,0.23283333 0 0 1 -0.174625,-0.40746 l 0.3175,-0.26987 q 0.08467,-0.0714 -0.02381,-0.0979 l -2.140479,-0.53181 q -0.156104,-0.0397 -0.230187,0.10319 l -0.07144,0.12964 q -0.0926,0.17198 -0.261937,0.0741 l -0.677334,-0.3863 q -0.195791,-0.11377 0.02911,-0.11377 H 75.2054 a 0.04530987,0.04530987 0 0 0 0.01058,-0.09 c -2.267479,-0.60061 -3.976687,-2.60086 -4.863042,-4.75721 q -0.108479,-0.26194 -0.108479,0.0212 v 0.0847 q 0,0.09 -0.08731,0.0688 L 68.9427,206.33496 a 0.13758333,0.1349375 5.4 0 1 -0.105833,-0.12436 c -0.15875,-2.29922 -0.420688,-4.65402 -0.359833,-6.88181 q 0.142875,-5.31283 0.957791,-10.56746 c 0.931334,-6.02191 5.162021,-7.80256 10.152063,-9.85308 0.378354,-0.1561 0.510645,-0.44185 0.436562,-0.8255 q 3.772958,-1.09273 7.469188,-2.93158 z M 76.40395,203.84788 c -0.650875,2.43681 0.05821,3.99785 2.497667,4.62756 a 0.42862499,0.42597916 22.7 0 0 0.473604,-0.19315 c 2.140479,-3.52425 -2.106083,-7.69408 -2.971271,-4.43441 z"
       id="path650"
       style="stroke-width:0.264583" />
    <path
       fill="#fca493"
       d="m 43.46068,175.46073 q 2.9845,1.40758 6.140979,2.30452 c 0.251354,0.29898 0.468312,0.67733 0.8255,0.84667 q 1.576916,0.73819 3.153833,1.46844 c 1.452563,0.67468 2.592917,1.52929 3.817938,2.48443 2.373312,1.85209 3.407833,6.19654 3.63802,8.93763 0.402167,4.74662 0.899584,9.36889 0.8255,14.14198 q -0.03969,2.53735 -0.552979,3.66448 -0.841375,1.84679 -2.894541,2.66964 c -0.777875,0.31221 -2.4765,0.508 -3.325813,0.45508 -0.796396,-0.0503 -1.4605,0.23548 -2.2225,0.15611 q -0.899583,-0.0926 -1.799167,-0.10583 c -0.60325,-0.0106 -1.039812,-0.26194 -1.624541,-0.38894 q -0.140229,-2.921 -0.0926,-5.87904 c 0.01058,-0.76994 -0.08467,-1.72773 -0.298979,-2.46592 -1.830917,-6.34206 -3.590396,-12.65767 -4.818063,-19.15054 q -0.859896,-4.5429 -0.772583,-9.13871 z m 8.411104,32.98031 c 0.751416,0.17198 1.651,-1.02394 2.018771,-1.53458 0.963083,-1.34144 0.656166,-3.09563 -0.4445,-4.23598 a 0.56091666,0.55827083 48.1 0 0 -0.762,-0.0423 q -1.404938,1.17475 -1.902355,2.90512 c -0.20902,0.73025 0.06615,2.67229 1.090084,2.90777 z"
       id="path651"
       style="stroke-width:0.264583" />
    <path
       fill="#fd9587"
       d="m 49.601659,177.76525 q 6.955896,2.20663 13.977937,3.98727 a 0.51064583,0.51064583 0 0 1 0.383646,0.44186 c 0.243417,2.3442 0.391583,4.65931 0.679979,7.05643 q 0.547688,4.56671 0.701146,9.16517 a 0.04233333,0.04233333 0 0 0 0.06085,0.0344 q 0.03175,-0.0159 0.05292,-0.0423 0.01587,-0.0159 0.01587,-0.0476 c 0.105833,-5.39486 0.695854,-10.81882 1.129771,-16.18456 a 0.3571875,0.35983333 85.2 0 1 0.269875,-0.3175 q 6.606645,-1.69334 13.149791,-3.77561 c 0.07408,0.38365 -0.05821,0.6694 -0.436562,0.8255 -4.990042,2.05052 -9.220729,3.83117 -10.152063,9.85308 q -0.814916,5.25463 -0.957791,10.56746 c -0.06086,2.22779 0.201083,4.58259 0.359833,6.88181 a 0.13758333,0.1349375 5.4 0 0 0.105833,0.12436 l 1.214438,0.29633 q 0.08731,0.0212 0.08731,-0.0688 v -0.0847 q 0,-0.2831 0.108479,-0.0212 c 0.886355,2.15635 2.595563,4.1566 4.863042,4.75721 a 0.04530987,0.04530987 0 0 1 -0.01058,0.09 h -0.267229 q -0.224896,0 -0.02911,0.11377 l 0.677334,0.3863 q 0.169333,0.0979 0.261937,-0.0741 l 0.07144,-0.12964 q 0.07408,-0.14288 0.230187,-0.10319 l 2.140479,0.53181 q 0.108479,0.0265 0.02381,0.0979 l -0.3175,0.26987 a 0.23283333,0.23283333 0 0 0 0.174625,0.40746 q 1.865312,-0.18521 3.476625,0.29369 -0.306917,3.45281 -1.002771,6.54579 -0.0291,0.12435 -0.153458,0.12435 l -12.432771,0.005 q -0.150813,0 -0.169333,-0.15082 -0.820209,-7.26281 -2.33098,-14.4145 a 0.047625,0.047625 0 0 0 -0.0926,0.003 q -1.383771,7.17285 -2.270125,14.42244 -0.01588,0.13758 -0.153458,0.13758 h -12.24491 a 0.22754166,0.22754166 0 0 1 -0.22225,-0.17462 q -0.912812,-3.65125 -1.132416,-7.50094 c 0.584729,0.127 1.021291,0.37835 1.624541,0.38894 q 0.899584,0.0132 1.799167,0.10583 c 0.762,0.0794 1.426104,-0.20638 2.2225,-0.15611 0.849313,0.0529 2.547938,-0.14287 3.325813,-0.45508 q 2.053166,-0.82285 2.894541,-2.66964 0.513292,-1.12713 0.552979,-3.66448 c 0.07408,-4.77309 -0.423333,-9.39536 -0.8255,-14.14198 -0.230187,-2.74109 -1.264708,-7.08554 -3.63802,-8.93763 -1.225021,-0.95514 -2.365375,-1.80975 -3.817938,-2.48443 q -1.576917,-0.73025 -3.153833,-1.46844 c -0.357188,-0.16934 -0.574146,-0.54769 -0.8255,-0.84667 z"
       id="path652"
       style="stroke-width:0.264583" />
    <path
       fill="#fd9587"
       d="m 51.871784,208.44104 c -1.023938,-0.23548 -1.299104,-2.17752 -1.090084,-2.90777 q 0.497417,-1.73037 1.902355,-2.90512 a 0.56091666,0.55827083 48.1 0 1 0.762,0.0423 c 1.100666,1.14035 1.407583,2.89454 0.4445,4.23598 -0.367771,0.51064 -1.267355,1.70656 -2.018771,1.53458 z"
       id="path658"
       style="stroke-width:0.264583" />
    <path
       fill="#fd9587"
       d="m 78.901617,208.47544 c -2.439459,-0.62971 -3.148542,-2.19075 -2.497667,-4.62756 0.865188,-3.25967 5.11175,0.91016 2.971271,4.43441 a 0.42862499,0.42597916 22.7 0 1 -0.473604,0.19315 z"
       id="path659"
       style="stroke-width:0.264583" />
  </g>
</svg>
