<?xml version="1.0" encoding="UTF-8" standalone="no"?>
<!-- Created with Inkscape (http://www.inkscape.org/) -->

<svg
   width="59.228367mm"
   height="117.87254mm"
   viewBox="0 0 59.228367 117.87254"
   version="1.1"
   id="svg1"
   inkscape:version="1.3 (0e150ed6c4, 2023-07-21)"
   sodipodi:docname="overweight.svg"
   xmlns:inkscape="http://www.inkscape.org/namespaces/inkscape"
   xmlns:sodipodi="http://sodipodi.sourceforge.net/DTD/sodipodi-0.dtd"
   xmlns="http://www.w3.org/2000/svg"
   xmlns:svg="http://www.w3.org/2000/svg">
  <sodipodi:namedview
     id="namedview1"
     pagecolor="#505050"
     bordercolor="#ffffff"
     borderopacity="1"
     inkscape:showpageshadow="0"
     inkscape:pageopacity="0"
     inkscape:pagecheckerboard="1"
     inkscape:deskcolor="#505050"
     inkscape:document-units="mm"
     inkscape:zoom="0.73139029"
     inkscape:cx="196.20167"
     inkscape:cy="395.8215"
     inkscape:window-width="1920"
     inkscape:window-height="1017"
     inkscape:window-x="-8"
     inkscape:window-y="-8"
     inkscape:window-maximized="1"
     inkscape:current-layer="layer1" />
  <defs
     id="defs1" />
  <g
     inkscape:label="Warstwa 1"
     inkscape:groupmode="layer"
     id="layer1"
     transform="translate(-53.181239,-43.920816)">
    <path
       fill="#30568a"
       d="m 89.131869,69.011888 -2.159,-0.587375 q -0.137584,-0.03704 -0.209021,-0.161396 c -0.53975,-0.928687 -0.261938,-2.968625 -0.404813,-4.064 0.552979,-0.672042 1.320271,-1.341437 1.7145,-2.069042 2.780771,-5.135562 -2.182812,-11.265958 -5.185833,-15.017749 a 0.15875,0.15875 0 0 0 -0.240771,-0.0053 c -3.807354,4.270375 -9.834562,11.922125 -3.450166,17.047104 q -0.06615,1.87325 -0.127,3.661833 -0.02117,0.672042 -1.098021,0.9525 c -2.738438,0.277813 -4.574646,-2.108729 -5.013854,-4.534958 -1.143,-6.344708 -0.02381,-18.576396 8.22325,-20.108333 q 0.973666,-0.179917 2.833687,-0.203729 c 4.320646,-0.05821 6.754812,3.944937 7.913687,7.548562 q 1.865313,5.802313 2.788709,11.826875 0.558271,3.640667 -2.553229,5.291667 -0.129646,0.06879 -0.182563,-0.02911 a 0.06614583,0.06879167 60 0 1 0.02646,-0.0926 c 2.137834,-1.137708 2.42623,-3.071812 2.042584,-5.278437 q -0.02381,-0.132292 -0.07673,-0.0079 -0.08202,0.187854 -0.03704,0.402167 c 0.621771,3.055937 -1.862667,5.289021 -4.804833,5.42925 z"
       id="path591"
       style="stroke-width:0.264583" />
    <path
       fill="#fbb0a0"
       d="m 86.359035,64.199117 c -1.545166,0.732896 -2.899833,1.412875 -4.733395,1.008063 -0.812271,-0.177271 -1.63248,-0.669396 -2.428875,-1.053042 -6.384396,-5.124979 -0.357188,-12.776729 3.450166,-17.047104 a 0.15875,0.15875 0 0 1 0.240771,0.0053 c 3.003021,3.751791 7.966604,9.882187 5.185833,15.017749 -0.394229,0.727605 -1.161521,1.397 -1.7145,2.069042 z"
       id="path595"
       style="stroke-width:0.264583" />
    <path
       fill="#fd9587"
       d="m 79.196765,64.154138 c 0.796395,0.383646 1.616604,0.875771 2.428875,1.053042 1.833562,0.404812 3.188229,-0.275167 4.733395,-1.008063 0.142875,1.095375 -0.134937,3.135313 0.404813,4.064 q 0.07144,0.124354 0.209021,0.161396 l 2.159,0.587375 2.68552,0.701146 q 0.211667,0.338666 0.113771,0.568854 -0.06879,0.171979 -0.404812,0.259292 c -1.725084,0.447145 -3.394604,0.761999 -5.093229,1.365249 -1.193271,0.42598 -3.222625,1.119188 -4.064,0.881063 q -4.09575,-1.158875 -8.204729,-2.304521 -0.367771,-0.103187 -0.251355,-0.695854 l 4.058709,-1.018646 q 1.076854,-0.280458 1.098021,-0.9525 0.06085,-1.788583 0.127,-3.661833 z"
       id="path602"
       style="stroke-width:0.264583" />
    <path
       fill="#fbb0a0"
       d="m 91.817389,69.713034 3.309938,1.066271 c -0.367771,2.677583 -0.801688,5.722937 -2.516188,7.757583 C 88.727056,83.148575 79.620098,83.1962 74.889348,80.089992 71.619098,77.941575 71.11639,74.269159 71.10316,70.73168 l 2.809875,-0.944563 q -0.116416,0.592667 0.251355,0.695854 4.108979,1.145646 8.204729,2.304521 c 0.841375,0.238125 2.870729,-0.455083 4.064,-0.881063 1.698625,-0.60325 3.368145,-0.918104 5.093229,-1.365249 q 0.336021,-0.08731 0.404812,-0.259292 0.0979,-0.230188 -0.113771,-0.568854 z"
       id="path608"
       style="stroke-width:0.264583" />
    <path
       fill="#119e92"
       d="m 71.10316,70.73168 c 0.01323,3.537479 0.515938,7.209895 3.786188,9.358312 4.73075,3.106208 13.837708,3.058583 17.721791,-1.553104 1.7145,-2.034646 2.148417,-5.08 2.516188,-7.757583 l 1.852083,0.724958 q -0.769937,4.616979 0.134938,9.017 c 1.656291,4.164541 2.8575,7.006166 0.489479,11.157479 q -2.386542,0.968375 -5.394854,0.587375 c -3.831167,-0.481542 -7.633229,-1.320271 -11.567583,-0.944563 -3.98198,0.381 -8.106834,2.061104 -12.038542,0.391584 -0.719667,-0.306917 -1.177396,-1.508125 -1.651,-2.169584 -1.574271,-4.741333 2.315104,-8.720666 2.323042,-13.472583 l -0.0979,-4.669896 z"
       id="path614"
       style="stroke-width:0.264583" />
    <path
       fill="#fbb0a0"
       d="m 69.176994,71.401075 0.0979,4.669896 q -0.889,1.243542 -1.391709,2.717271 -0.22225,0.653521 -0.600604,1.095375 -0.436562,0.508 -0.883708,1.008062 c -0.478896,0.534459 -1.217083,1.158875 -1.672167,1.960563 -0.706437,1.23825 -1.571625,2.217208 -2.129896,3.532187 -0.489479,1.156229 -1.172104,2.124604 -1.608666,3.331104 q -0.833438,2.307167 -1.629834,4.624917 -0.02117,0.06879 -0.142875,0.171979 -0.100541,0.08731 -0.14552,0.214313 -1.256771,3.582458 -2.323042,7.228418 c -0.306917,1.04775 -0.460375,2.30716 -0.783167,3.45016 -0.169333,0.60061 -0.06085,1.25148 -0.473604,1.89178 a 0.3175,0.34395833 61.2 0 0 -0.05292,0.15875 c -0.05556,1.10595 -0.53975,2.40241 -1.648355,2.80722 q -0.03704,0.0132 -0.03704,-0.0238 -0.0026,-0.0582 -0.02646,-0.0979 -0.0344,-0.0582 -0.04763,0.008 l -0.150812,0.7964 C 53.786182,98.367408 56.410848,84.3392 65.089181,74.607825 q 1.703917,-1.907646 4.087813,-3.20675 z"
       id="path617"
       style="stroke-width:0.264583" />
    <path
       fill="#fbb0a0"
       d="m 96.97941,71.504263 q 2.272771,1.227666 4.19365,3.376083 c 6.7945,7.606771 10.61243,17.883187 11.12572,28.008794 q 0.20903,4.15925 0.0238,8.77623 -1.6854,-2.15107 -2.18017,-4.6699 -0.0159,-0.0847 -0.10054,-0.0873 -0.0556,0 -0.11642,0 -0.0926,-0.003 -0.12171,-0.09 l -0.70114,-2.13783 q -0.0132,-0.0397 0.0159,-0.0714 0.0344,-0.0397 0.0714,-0.0741 0.0926,-0.0847 0.0635,-0.20903 c -0.72231,-3.302 -1.27,-6.506099 -2.57969,-9.654641 q -0.0503,-0.121708 -0.0238,-0.254 0.0556,-0.254 -0.11377,-0.410104 -0.0926,-0.08467 -0.14552,-0.201083 l -1.5584,-3.368146 q -0.037,-0.08202 -0.1217,-0.111125 -0.127,-0.04498 -0.17992,-0.164042 c -1.03717,-2.357437 -2.17752,-4.926541 -3.88673,-6.87652 -0.817563,-0.93398 -1.613959,-2.251605 -2.865438,-2.632605 q -0.07144,-0.02117 -0.105834,-0.08996 l -0.05556,-0.121708 q -0.06085,-0.127 -0.187854,-0.06879 l -0.314854,0.148167 q -0.904875,-4.400021 -0.134938,-9.017 z"
       id="path618"
       style="stroke-width:0.264583" />
    <path
       fill="#fd9587"
       d="m 69.27489,76.070971 c -0.0079,4.751917 -3.897313,8.73125 -2.323042,13.472583 q 0.402167,1.7145 1.217083,2.942167 -0.0344,1.701271 -0.481541,3.098271 -5.545667,8.641288 -9.519709,18.610788 -0.894291,2.24632 -0.521229,4.46882 c 0.251354,1.48166 0.304271,2.67229 0.02381,4.23597 a 0.49477083,0.49477083 0 0 1 -0.357188,0.38894 q -0.497416,0.12965 -0.669395,-0.508 -0.129646,-0.47096 -0.145521,-1.53458 -0.0053,-0.21961 -0.124354,-0.037 c -1.008063,1.55046 0.0053,2.84427 1.219729,3.81793 a 0.2460625,0.25135416 29 0 1 0.07937,0.28311 l -0.283104,0.77258 q -0.06879,0.18786 -0.243417,0.09 c -1.071563,-0.58737 -2.405063,-1.11919 -3.087688,-2.08492 -0.79375,-1.11918 -1.042458,-2.10873 -0.772583,-3.54277 0.621771,-3.31787 0.193146,-6.66221 0.240771,-9.59908 l 0.150812,-0.7964 q 0.01323,-0.0661 0.04763,-0.008 0.02381,0.0397 0.02646,0.0979 0,0.037 0.03704,0.0238 c 1.108605,-0.40481 1.592792,-1.70127 1.648355,-2.80722 a 0.3175,0.34395833 61.2 0 1 0.05292,-0.15875 c 0.41275,-0.6403 0.304271,-1.29117 0.473604,-1.89178 0.322792,-1.143 0.47625,-2.40241 0.783167,-3.45016 q 1.066271,-3.64596 2.323042,-7.228418 0.04498,-0.127 0.14552,-0.214313 0.121709,-0.103187 0.142875,-0.171979 0.796396,-2.31775 1.629834,-4.624917 c 0.436562,-1.2065 1.119187,-2.174875 1.608666,-3.331104 0.558271,-1.314979 1.423459,-2.293937 2.129896,-3.532187 0.455084,-0.801688 1.193271,-1.426104 1.672167,-1.960563 q 0.447146,-0.500062 0.883708,-1.008062 0.378354,-0.441854 0.600604,-1.095375 0.502709,-1.473729 1.391709,-2.717271 z"
       id="path621"
       style="stroke-width:0.264583" />
    <path
       fill="#fd9587"
       d="m 112.3226,111.66537 q -0.0979,1.82562 -0.36248,4.12485 -0.20109,1.75154 0.11377,5.54831 c 0.23548,2.82575 -1.59544,4.29684 -3.9714,5.25992 a 0.14552083,0.14552083 0 0 1 -0.20108,-0.12171 c -0.15346,-1.56898 0.7964,-1.40229 1.23031,-2.47385 q 0.49742,-1.22767 -0.0609,-2.48709 a 0.079375,0.079375 0 0 0 -0.15081,0.0238 l -0.19315,1.8071 a 0.39422916,0.39422916 0 0 1 -0.77787,0.0397 c -0.43128,-1.99231 -0.1958,-3.75709 0.0661,-5.76527 0.17992,-1.38377 -0.37571,-2.94217 -0.83079,-4.16719 -1.94998,-5.22288 -4.38415,-10.62038 -7.445376,-15.393458 Q 98.519285,96.158138 97.288973,94.253138 L 97.04291,92.948742 q -0.1905,-0.648229 0.560917,-1.27 c 2.368021,-4.151313 1.166812,-6.992938 -0.489479,-11.157479 l 0.314854,-0.148167 q 0.127,-0.05821 0.187854,0.06879 l 0.05556,0.121708 q 0.0344,0.06879 0.105834,0.08996 c 1.251479,0.381 2.047875,1.698625 2.86544,2.632605 1.70921,1.949979 2.84956,4.519083 3.88673,6.87652 q 0.0529,0.119063 0.17992,0.164042 0.0847,0.0291 0.1217,0.111125 l 1.5584,3.368146 q 0.0529,0.116416 0.14552,0.201083 0.16933,0.156104 0.11377,0.410104 -0.0265,0.132292 0.0238,0.254 c 1.30969,3.148542 1.85738,6.352641 2.57969,9.654641 q 0.0291,0.12436 -0.0635,0.20903 -0.037,0.0344 -0.0714,0.0741 -0.0291,0.0318 -0.0159,0.0714 l 0.70114,2.13783 q 0.0291,0.0873 0.12171,0.09 0.0609,0 0.11642,0 0.0847,0.003 0.10054,0.0873 0.49477,2.51883 2.18017,4.6699 z"
       id="path625"
       style="stroke-width:0.264583" />
    <path
       fill="#0a7c7b"
       d="m 66.951848,89.543554 c 0.473604,0.661459 0.931333,1.862667 1.651,2.169584 3.931708,1.66952 8.056562,-0.01058 12.038542,-0.391584 3.934354,-0.375708 7.736416,0.463021 11.567583,0.944563 q 3.008312,0.381 5.394854,-0.587375 -0.751417,0.621771 -0.560917,1.27 -1.251479,0.9525 -2.537354,1.860021 c -1.002771,0.706437 -2.161646,1.172104 -3.27025,0.867833 -1.762125,-0.486833 -4.138083,-1.709208 -6.143625,-2.00025 -2.659062,-0.391583 -4.852458,0.02117 -7.395104,0.936625 -2.992437,1.074208 -4.646083,2.016125 -7.445375,-0.298979 Q 69.206098,93.45145 68.168931,92.485721 67.354015,91.258054 66.951848,89.543554 Z"
       id="path632"
       style="stroke-width:0.264583" />
    <path
       fill="#119e92"
       d="m 68.168931,92.485721 q 1.037167,0.965729 2.082271,1.828271 c 2.799292,2.315104 4.452938,1.373187 7.445375,0.298979 2.542646,-0.915458 4.736042,-1.328208 7.395104,-0.936625 2.005542,0.291042 4.3815,1.513417 6.143625,2.00025 1.108604,0.304271 2.267479,-0.161396 3.27025,-0.867833 q 1.285875,-0.907521 2.537354,-1.860021 l 0.246063,1.304396 q 0.17727,1.817687 0.73025,3.497791 c 0.693208,2.100792 2.328337,3.563941 3.423707,5.468941 q 1.82563,3.17235 2.53736,6.90827 -0.20109,0.39158 -1.20915,0.0582 a 0.33602083,0.34395833 80.2 0 1 -0.1614,-0.11113 q -0.64293,-0.80169 -1.48166,-1.35731 c -0.79375,-0.52917 -1.934107,-0.50271 -2.881316,-0.73819 a 0.05027083,0.05027083 0 0 0 -0.0635,0.0476 q 0,0.0397 0,0.0767 a 0.0714375,0.07408333 0 0 1 -0.07144,0.0741 q -1.447271,0.0132 -2.838979,0.40216 -0.219604,0.0609 -0.0079,0.14288 c 0.545042,0.20637 1.103313,0.10319 1.539875,0.30162 q 0.219604,0.10055 -0.01852,0.082 -1.780645,-0.13759 -3.693583,-0.40482 c -0.931333,-0.13229 -1.748896,0.005 -2.669646,0.0609 -0.661458,0.0423 -1.733021,-0.0688 -2.622021,0.127 -2.111375,0.47096 -5.024437,0.0873 -7.246937,0.12435 -0.724958,0.0106 -1.463146,0.23283 -2.230437,0.27781 -1.807105,0.10584 -3.550709,0.45509 -5.381625,0.48419 q -0.15875,0 -0.15875,0.15875 v 0.5424 q 0,0.16933 -0.169334,0.16933 c -1.426104,0.003 -2.84427,-0.082 -4.265083,-0.0212 q -3.450167,0.15346 -6.916208,-0.082 0.714375,-4.10898 3.100916,-7.84754 0.473605,-0.74083 2.177521,-2.920998 c 0.73025,-0.939271 0.822854,-2.997729 0.976313,-4.191 q 0.447146,-1.397 0.481541,-3.098271 z"
       id="path636"
       style="stroke-width:0.264583" />
    <path
       fill="#0c8c86"
       d="m 103.98029,110.12814 c 1.19856,5.94254 0.0238,12.26079 -0.35455,17.09208 l -0.037,-0.254 a 0.01325,0.01325 0 0 0 -0.0265,0 l -0.09,1.4314 q -0.008,0.13229 -0.127,0.0741 -3.907901,-1.90235 -8.252359,-1.80446 -0.148167,0.003 -0.193146,-0.13758 l -0.05556,-0.16934 q -0.04233,-0.12964 -0.171979,-0.16139 c -0.58473,-0.15081 -1.09273,-0.39952 -1.706563,-0.37571 -2.706687,0.10054 -5.643562,-0.51065 -8.141229,-0.87842 -1.140354,-0.16933 -2.293937,-0.0714 -3.468687,-0.13229 -2.193396,-0.11112 -3.79148,-0.0106 -5.741459,0.38365 q -0.365125,0.0741 -1.979083,0.28575 c -1.894417,0.25135 -3.550708,1.26471 -5.519208,1.60337 q -0.875771,0.14817 -1.606021,0.46832 -1.177396,0.51593 -2.061104,0.78845 -0.129646,0.0397 -0.153459,0.14288 -0.02381,0.10319 -0.127,0.11377 -0.769937,0.09 -1.389062,-0.36248 -0.108479,-0.0794 -0.214313,0.003 -0.206375,0.1561 -0.489479,0.16404 c 0,-3.41048 -0.73025,-6.78656 -1.031875,-9.83456 q -0.370416,-3.77032 0.388938,-8.02482 3.466041,0.23548 6.916208,0.082 c 1.420813,-0.0609 2.838979,0.0238 4.265083,0.0212 q 0.169334,0 0.169334,-0.16933 v -0.5424 q 0,-0.15875 0.15875,-0.15875 c 1.830916,-0.0291 3.57452,-0.37835 5.381625,-0.48419 0.767291,-0.045 1.505479,-0.26723 2.230437,-0.27781 2.2225,-0.037 5.135562,0.34661 7.246937,-0.12435 0.889,-0.19579 1.960563,-0.0847 2.622021,-0.127 0.92075,-0.0556 1.738313,-0.19315 2.669646,-0.0609 q 1.912938,0.26723 3.693583,0.40482 0.238125,0.0185 0.01852,-0.082 c -0.436562,-0.19843 -0.994833,-0.0953 -1.539875,-0.30162 q -0.211666,-0.082 0.0079,-0.14288 1.391708,-0.38893 2.838979,-0.40216 a 0.0714375,0.07408333 0 0 0 0.07144,-0.0741 q 0,-0.037 0,-0.0767 a 0.05027083,0.05027083 0 0 1 0.0635,-0.0476 c 0.947209,0.23548 2.08757,0.20902 2.88132,0.73819 q 0.83873,0.55562 1.48166,1.35731 a 0.33602083,0.34395833 80.2 0 0 0.1614,0.11113 q 1.00806,0.33337 1.20915,-0.0582 z"
       id="path647"
       style="stroke-width:0.264583" />
    <path
       fill="#0a7c7b"
       d="m 103.62574,127.22022 0.64823,8.63865 a 0.17197916,0.174625 82.3 0 1 -0.14287,0.1852 l -6.278565,1.13771 q -14.927791,1.70392 -29.889979,-0.0688 l -6.262687,-0.9816 q -0.314854,-0.0476 -0.28575,-0.36777 l 0.661458,-7.36071 q 0.283104,-0.008 0.489479,-0.16404 0.105834,-0.082 0.214313,-0.003 0.619125,0.45244 1.389062,0.36248 0.103188,-0.0106 0.127,-0.11377 0.02381,-0.10319 0.153459,-0.14288 0.883708,-0.27252 2.061104,-0.78845 0.73025,-0.32015 1.606021,-0.46832 c 1.9685,-0.33866 3.624791,-1.35202 5.519208,-1.60337 q 1.613958,-0.21167 1.979083,-0.28575 c 1.949979,-0.39423 3.548063,-0.49477 5.741459,-0.38365 1.17475,0.0609 2.328333,-0.037 3.468687,0.13229 2.497667,0.36777 5.434542,0.97896 8.141229,0.87842 0.613833,-0.0238 1.121833,0.2249 1.706563,0.37571 q 0.129645,0.0318 0.171979,0.16139 l 0.05556,0.16934 q 0.04498,0.14023 0.193146,0.13758 4.344458,-0.0979 8.252361,1.80446 0.11906,0.0582 0.127,-0.0741 l 0.09,-1.4314 a 0.01325,0.01325 0 0 1 0.0265,0 z"
       id="path653"
       style="stroke-width:0.264583" />
    <path
       fill="#fd6c61"
       d="m 97.852535,137.18178 -0.5715,1.54252 c -4.442354,1.72509 -9.151937,0.93134 -13.649854,1.06892 q -0.148166,0.005 -0.15875,0.1561 -0.330729,6.12775 -0.526521,12.26609 c -0.100541,3.19087 0.187855,6.39233 0.399521,9.57791 l -1.037166,-0.008 q -0.04763,-0.635 -0.02911,-0.82021 c 0.640292,-6.96913 0.359834,-14.859 0.105834,-20.9894 a 0.15345833,0.15345833 0 0 0 -0.150813,-0.14816 c -4.918604,-0.16669 -9.374187,-0.55563 -14.078479,-1.57427 q -0.232833,-0.49213 -0.193146,-1.14036 14.962188,1.77271 29.889979,0.0688 z"
       id="path655"
       style="stroke-width:0.264583" />
    <path
       fill="#fd9587"
       d="m 68.155702,138.25335 c 4.704292,1.01864 9.159875,1.40758 14.078479,1.57427 a 0.15345833,0.15345833 0 0 1 0.150813,0.14816 c 0.254,6.1304 0.534458,14.02027 -0.105834,20.9894 q -0.01852,0.18521 0.02911,0.82021 l -11.557,-0.037 q -0.140229,0 -0.177271,-0.13494 -1.994958,-7.25752 -0.370417,-14.88017 0.28575,-1.33879 -0.238125,-2.89189 -0.936625,-2.77019 -1.80975,-5.588 z"
       id="path656"
       style="stroke-width:0.264583" />
    <path
       fill="#fd9587"
       d="m 97.281035,138.7243 c -0.902229,2.50561 -2.325687,5.36575 -1.820333,8.02217 0.98425,5.17525 0.994833,9.68904 -0.452438,14.87223 q -0.0344,0.12435 -0.161395,0.12435 l -11.501438,0.0503 c -0.211666,-3.18558 -0.500062,-6.38704 -0.399521,-9.57791 q 0.195792,-6.13834 0.526521,-12.26609 0.01058,-0.15081 0.15875,-0.1561 c 4.497917,-0.13758 9.2075,0.65617 13.649854,-1.06892 z"
       id="path657"
       style="stroke-width:0.264583" />
  </g>
</svg>
