<?xml version="1.0" encoding="UTF-8" standalone="no"?>
<!-- Created with Inkscape (http://www.inkscape.org/) -->

<svg
   width="41.933739mm"
   height="112.15688mm"
   viewBox="0 0 41.933739 112.15688"
   version="1.1"
   id="svg1"
   inkscape:version="1.3 (0e150ed6c4, 2023-07-21)"
   sodipodi:docname="overweight_male.svg"
   xmlns:inkscape="http://www.inkscape.org/namespaces/inkscape"
   xmlns:sodipodi="http://sodipodi.sourceforge.net/DTD/sodipodi-0.dtd"
   xmlns="http://www.w3.org/2000/svg"
   xmlns:svg="http://www.w3.org/2000/svg">
  <sodipodi:namedview
     id="namedview1"
     pagecolor="#505050"
     bordercolor="#ffffff"
     borderopacity="1"
     inkscape:showpageshadow="0"
     inkscape:pageopacity="0"
     inkscape:pagecheckerboard="1"
     inkscape:deskcolor="#505050"
     inkscape:document-units="mm"
     inkscape:zoom="1.4627806"
     inkscape:cx="178.76912"
     inkscape:cy="265.59007"
     inkscape:window-width="1920"
     inkscape:window-height="1017"
     inkscape:window-x="1912"
     inkscape:window-y="-8"
     inkscape:window-maximized="1"
     inkscape:current-layer="layer1" />
  <defs
     id="defs1" />
  <g
     inkscape:label="Warstwa 1"
     inkscape:groupmode="layer"
     id="layer1"
     transform="translate(-87.128698,-40.624156)">
    <path
       fill="#dd9576"
       d="m 112.53529,52.570095 c -0.51593,-0.986896 -0.32543,-1.997604 -0.38629,-2.865437 q -0.13229,-1.891771 -0.21167,-3.788834 c -0.0132,-0.309562 0.10055,-0.799041 -0.0741,-1.180041 a 0.11641667,0.11641667 0 0 0 -0.22225,0.04233 q -0.0238,0.529167 -0.51329,0.724958 c -1.46579,0.590021 -3.82323,1.328209 -5.13027,0.07673 q -0.0953,-0.0926 -0.22754,-0.116416 c -1.94732,-0.391584 -2.18015,1.558396 -2.27275,3.180291 q -0.0106,0.182563 -0.18521,0.388938 -0.93663,-0.751417 -0.9869,-1.923521 -0.0582,-1.354667 -0.23813,-2.002896 l -0.0503,-1.455208 a 0.65352083,0.64822916 76.8 0 1 0.37836,-0.616479 q 2.35215,-1.0795 4.87098,-1.674813 0.2884,-0.06615 0.008,-0.164041 -0.26459,-0.0926 -0.44979,-0.28575 -0.31486,-0.333375 0.14022,-0.277813 2.25955,0.267229 4.43707,0.907521 0.11377,0.03175 0.12964,-0.08202 l 0.0635,-0.418042 a 0.13758333,0.13758333 0 0 1 0.26459,-0.0291 l 0.49212,1.314979 a 0.1031875,0.1031875 0 0 0 0.11642,0.06615 l 0.61383,-0.119062 a 0.1666875,0.1666875 0 0 1 0.17992,0.240771 l -0.18786,0.36777 q -0.0741,0.145521 -0.0185,0.301625 1.18004,3.320521 -0.35189,6.498167 a 0.10847917,0.10847917 0 0 0 0.0635,0.150813 l 1.13506,0.383645 q 0.14817,0.05027 0.17462,0.206375 c 0.18786,1.15623 -0.0714,2.510896 -1.56104,2.148417 z"
       id="path1085"
       style="stroke-width:0.264583" />
    <path
       fill="#feb392"
       d="m 112.53529,52.570095 c -0.3466,1.092729 -0.36777,2.497667 -1.16152,3.3655 -1.0548,0.691444 -1.91382,1.084792 -2.57704,1.180042 -1.08215,0.15875 -3.20675,-0.15875 -4.18835,-1.042459 -0.18345,-0.165806 -0.40217,-0.339547 -0.65617,-0.521229 -0.20814,-1.132417 -0.53093,-2.156354 -0.96838,-3.071812 0.0512,-0.208139 0.12347,-0.457729 0.21696,-0.748771 0.20902,-0.640292 -0.0529,-1.621896 -0.0767,-2.309813 -0.004,-0.08819 0.0212,-0.167569 0.0741,-0.238125 l 0.11378,-0.150812 c 0.11641,-0.137583 0.17815,-0.267229 0.18521,-0.388938 0.0926,-1.621895 0.32543,-3.571875 2.27277,-3.180291 0.0882,0.01588 0.16404,0.05468 0.22754,0.116416 1.30704,1.25148 3.66448,0.513292 5.13027,-0.07673 0.32632,-0.130527 0.49742,-0.37218 0.51329,-0.724958 0.006,-0.121859 0.17176,-0.153408 0.22225,-0.04233 0.17463,0.381 0.0609,0.870479 0.0741,1.180041 0.0529,1.264709 0.12348,2.527653 0.21167,3.788834 0.0609,0.867833 -0.12964,1.878541 0.38629,2.865437 z"
       id="path1089"
       sodipodi:nodetypes="ccccccccccccccccccc"
       style="stroke-width:0.264583" />
    <path
       fill="#f3765c"
       d="m 102.08689,45.106199 q 0.17992,0.648229 0.23813,2.002896 0.0503,1.172104 0.9869,1.923521 l -0.11378,0.150812 q -0.0794,0.105834 -0.0741,0.238125 c 0.0238,0.687917 0.28575,1.669521 0.0767,2.309813 q -0.14023,0.436562 -0.21696,0.748771 c -1.55575,0.150812 -2.02935,-2.330979 -0.32015,-2.44475 q 0.15082,-0.01058 0.10319,-0.156104 -0.78052,-2.3495 -0.67998,-4.773084 z"
       id="path1092"
       style="stroke-width:0.264583" />
    <path
       fill="#f3765c"
       d="m 103.95221,55.551949 q 0.381,0.272521 0.65617,0.521229 c 0.9816,0.883709 3.1062,1.201209 4.18835,1.042459 q 0.99483,-0.142875 2.57704,-1.180042 -0.22489,0.645583 -0.11112,1.148292 c -0.11907,0.494771 -0.17992,0.836083 -0.64029,1.132416 -0.52917,0.336021 -1.00542,0.822855 -1.64042,0.891646 q -2.72521,0.298979 -4.50321,-1.767416 0.1905,-0.87048 -0.52652,-1.788584 z"
       id="path1124"
       style="stroke-width:0.264583" />
    <path
       fill="#feb392"
       d="m 111.26265,57.083887 q 0.32014,1.640416 1.32556,2.272771 c 0.0318,2.219854 -4.39473,2.582333 -5.97958,2.328333 q -2.38655,-0.383646 -3.45811,-2.174875 1.00277,-0.719667 1.32821,-2.169583 1.778,2.066395 4.50321,1.767416 c 0.635,-0.06879 1.11125,-0.555625 1.64042,-0.891646 0.46037,-0.296333 0.52122,-0.637645 0.64029,-1.132416 z"
       id="path1132"
       style="stroke-width:0.264583" />
    <path
       fill="#788f9f"
       d="m 126.93921,76.718616 -1.14829,0.661458 -4.20423,1.553104 c -0.067,0.02646 -0.12436,0.06703 -0.17198,0.121709 -0.0335,0.04057 -0.067,0.06438 -0.10054,0.07144 -0.16581,-2.566458 -0.32985,-5.134681 -0.49213,-7.704667 -0.0873,-1.412875 0.16669,-2.965979 0,-4.331229 -0.005,-0.144639 -0.22225,-0.136702 -0.21696,0.0079 l -0.18256,3.81 -1.19591,0.01587 -23.725196,0.05292 c -0.05997,-1.381125 -0.180798,-2.833687 -0.362479,-4.357687 -0.0053,-0.04939 -0.02822,-0.08819 -0.06879,-0.116417 -0.08467,-0.05821 -0.123473,-0.03616 -0.116416,0.06615 0.256645,3.275542 0.08202,5.699125 -0.02911,8.60425 -0.03704,0.98425 -0.283104,2.439458 -0.187854,3.688292 l -0.296333,0.02117 c -1.871485,-0.410985 -3.694464,-1.090083 -5.468938,-2.037291 -0.359833,-0.299861 -0.505354,-0.594432 -0.436562,-0.883709 1.03364,-4.335639 2.685521,-8.421687 4.955646,-12.258145 0.373943,-0.631473 0.90664,-1.087438 1.598083,-1.367896 2.704042,-1.100667 5.391329,-2.042583 8.061849,-2.82575 0.71439,1.194152 1.86709,1.91911 3.45812,2.174875 1.58485,0.254 6.01133,-0.108479 5.97958,-2.328333 1.9685,0.633235 3.89996,1.27441 5.79437,1.92352 1.6219,0.558271 3.15384,0.960438 4.00315,2.397125 1.97908,3.342569 3.49603,6.88534 4.55083,10.628313 0.22225,0.79375 0.76994,1.889125 0.003,2.413 z"
       id="path1133"
       sodipodi:nodetypes="cccccccccccccccccccccccccccc"
       style="stroke-width:0.264583" />
    <path
       fill="#0d586f"
       d="m 95.501414,70.977157 c 0.04057,0.229307 0.04586,0.346605 0.01588,0.351896 l 0.01323,5.341938 -0.182562,1.463146 -0.3175,1.158874 c -0.09349,-0.07056 -0.191381,-0.214312 -0.293688,-0.43127 -0.09525,-1.248834 0.150813,-2.704042 0.187854,-3.688292 0.111125,-2.905125 0.28575,-5.328708 0.02911,-8.60425 -0.0071,-0.102306 0.03175,-0.124354 0.116416,-0.06615 0.04057,0.02822 0.0635,0.06703 0.06879,0.116417 0.181681,1.524 0.302506,2.976562 0.362479,4.357687 z"
       id="path1139"
       sodipodi:nodetypes="ccccccccccc"
       style="stroke-width:0.264583" />
    <path
       fill="#0d586f"
       d="m 121.31417,79.126324 c -0.17639,0.04057 -0.34573,0.02117 -0.508,-0.05821 l -0.39159,-1.143 -0.0212,-1.243542 0.0291,-5.773208 0.18256,-3.81 c -0.005,-0.14464 0.21167,-0.152577 0.21696,-0.0079 0.16669,1.36525 -0.0873,2.918354 0,4.331229 0.16228,2.569986 0.32632,5.138209 0.49213,7.704667 z"
       id="path1142"
       sodipodi:nodetypes="ccccccccc"
       style="stroke-width:0.264583" />
    <path
       fill="#fdfefe"
       d="m 119.22661,70.924241 -0.27517,5.844646 -22.127109,-0.09525 -0.576792,-4.606396 c -0.01056,-0.07846 -0.07828,-0.13715 -0.15875,-0.137584 h -0.320146 c -0.11289,0 -0.17639,-0.05556 -0.1905,-0.166687 l -0.06085,-0.433917 c 0.02998,-0.0053 0.02469,-0.122589 -0.01588,-0.351896 z"
       id="path1147"
       sodipodi:nodetypes="cccccscccc"
       style="stroke-width:0.264583" />
    <path
       fill="#d2eefd"
       d="m 120.42252,70.908366 -0.0291,5.773208 -1.44198,0.08731 0.27517,-5.844646 z"
       id="path1148"
       sodipodi:nodetypes="ccccc"
       style="stroke-width:0.264583" />
    <path
       fill="#d2eefd"
       d="m 95.517289,71.329053 0.06085,0.433917 c 0.0141,0.111125 0.07761,0.166687 0.1905,0.166687 h 0.320146 c 0.08047,5.3e-4 0.148191,0.05912 0.15875,0.137584 l 0.576792,4.606396 -1.293813,-0.0026 z"
       id="path1149"
       sodipodi:nodetypes="ccsccccc"
       style="stroke-width:0.264583" />
    <path
       fill="#1d8890"
       d="m 96.824331,76.673637 22.127109,0.09525 1.44198,-0.08731 0.0212,1.243542 -1.20914,0.0979 -23.047859,0.04763 -0.809625,0.0635 0.182562,-1.463146 z"
       id="path1155"
       sodipodi:nodetypes="ccccccccc"
       style="stroke-width:0.264583" />
    <path
       fill="#feb392"
       d="m 126.93921,76.718616 c 1.13506,6.315604 2.59821,12.152312 1.97379,18.631958 -0.24077,2.505604 -1.01071,5.902856 -1.38377,8.675686 -0.32015,2.38125 -1.18798,4.826 -3.76767,5.37104 -0.2868,0.0572 -0.45303,-0.31329 -0.2196,-0.48948 1.54164,-1.12712 1.97908,-2.63525 1.31233,-4.52437 -0.0719,-0.1946 -0.3547,-0.16976 -0.39158,0.0344 -0.14552,0.83344 -0.13758,3.32581 -1.4314,2.97656 -0.09,-0.0247 -0.127,-0.0829 -0.11112,-0.17462 0.25929,-1.38995 0.50359,-2.78078 0.73289,-4.17248 0.19844,-1.19857 1.12184,-2.23044 1.09538,-3.384024 -0.0926,-4.243917 -0.73025,-7.559146 -1.33085,-11.297708 l 2.36272,-2.820458 c 0.1392,-0.166209 0.13806,-0.402188 -0.003,-0.545042 -0.03,-0.03175 -0.10319,-0.01852 -0.21961,0.03969 -0.69673,0.34925 -1.23913,0.834319 -1.62718,1.455209 -0.0538,0.08411 -0.17959,0.07324 -0.21432,-0.01852 -0.51329,-1.293813 -1.29645,-2.516188 -1.60337,-3.831167 -0.14993,-0.645583 -0.28134,-1.280583 -0.39423,-1.905 -0.0422,-0.235952 0.0546,-0.474784 0.24871,-0.613833 l 3.82323,-2.746375 z"
       id="path1157"
       sodipodi:nodetypes="cccccccccccccccccccccc"
       style="stroke-width:0.264583" />
    <path
       fill="#feb392"
       d="m 88.971497,76.845616 c 1.774474,0.947208 3.597453,1.626306 5.468938,2.037291 0.111125,0.204611 0.152577,0.355423 0.124354,0.452438 -0.645583,2.211916 -1.436687,4.400021 -2.153708,6.590771 -0.08828,0.268242 -0.440518,0.327969 -0.608542,0.103187 -0.396875,-0.52564 -0.902229,-0.881062 -1.516062,-1.066271 -0.123098,-0.04149 -0.219366,0.109789 -0.129646,0.203729 0.642937,0.714375 2.145771,2.074334 2.219854,2.936875 0.0071,0.07585 0.04851,0.11289 0.124354,0.111125 l 0.22225,-0.0079 c -0.435681,2.413 -0.846667,5.790848 -1.232958,10.133541 -0.08467,0.9525 0.02294,1.783288 0.322791,2.492378 0.73025,1.73037 1.074209,3.16971 1.071563,5.06941 -0.0019,0.066 0.01281,0.13144 0.04233,0.1905 0.14464,0.30868 0.232834,0.63059 0.264584,0.96573 0.01058,0.10936 -0.03881,0.16228 -0.148167,0.15875 -1.259417,-0.0397 -1.203854,-1.9341 -1.439333,-2.83368 -0.02945,-0.12653 -0.206,-0.13592 -0.248709,-0.0132 -0.6985,1.92616 -0.293687,3.02418 1.098021,4.40795 0.05616,0.056 0.0892,0.13065 0.0926,0.20902 0.01765,0.44274 -0.182562,0.57591 -0.600604,0.39952 -1.742716,-0.73734 -2.771061,-2.0532 -3.085035,-3.94761 -0.354541,-2.14136 -0.724077,-4.28449 -1.108604,-6.429379 -1.367895,-7.646458 -0.267229,-14.660562 1.219729,-22.164145 z"
       id="path1159"
       sodipodi:nodetypes="cccccccccccccccccccccccc"
       style="stroke-width:0.264583" />
    <path
       fill="#fe8f71"
       d="m 125.79092,77.380074 -3.82323,2.746375 c -0.19411,0.139049 -0.29087,0.377881 -0.24871,0.613833 0.11289,0.624417 0.2443,1.259417 0.39423,1.905 0.30692,1.314979 1.09008,2.537354 1.60337,3.831167 0.0347,0.09176 0.16049,0.102629 0.21432,0.01852 0.38805,-0.62089 0.93045,-1.105959 1.62718,-1.455209 0.11642,-0.05821 0.18962,-0.07144 0.21961,-0.03969 0.1407,0.142854 0.14184,0.378833 0.003,0.545042 l -2.36272,2.820458 c -0.17287,-1.402292 -0.5715,-2.694339 -1.19592,-3.876146 -0.0282,-0.435681 -0.11465,-0.717902 -0.25929,-0.846667 -0.52564,-1.488723 -0.91105,-3.013604 -1.15623,-4.574645 0.16227,0.07937 0.33161,0.09878 0.508,0.05821 0.0335,-0.0071 0.067,-0.03087 0.10054,-0.07144 0.0476,-0.05468 0.10495,-0.09525 0.17198,-0.121709 z"
       id="path1163"
       sodipodi:nodetypes="ccccccccccccccccc"
       style="stroke-width:0.264583" />
    <path
       fill="#d2eefd"
       d="m 120.41458,77.925116 0.39159,1.143 c 0.24518,1.561041 0.63059,3.085922 1.15623,4.574645 l -2.50561,0.145521 c -0.21166,-1.938514 -0.29545,-3.860271 -0.25135,-5.76527 z"
       id="path1166"
       sodipodi:nodetypes="cccccc"
       style="stroke-width:0.264583" />
    <path
       fill="#fdfefe"
       d="m 119.20544,78.023012 c -0.0441,1.904999 0.0397,3.826756 0.25135,5.76527 -7.05379,0.174625 -14.11023,0.121709 -21.166668,0.103188 -0.55386,-0.0019 -1.016,-0.08731 -1.386416,-0.256646 -0.381,-1.862667 -0.441854,-3.690938 -0.746125,-5.564187 z"
       id="path1167"
       sodipodi:nodetypes="cccccc"
       style="stroke-width:0.264583" />
    <path
       fill="#d2eefd"
       d="m 96.157581,78.070637 c 0.304271,1.873249 0.365125,3.70152 0.746125,5.564187 -1.040694,0.121708 -2.036411,0.107598 -2.987146,-0.04233 l 1.113896,-4.29948 0.3175,-1.158874 z"
       id="path1168"
       sodipodi:nodetypes="cccccc"
       style="stroke-width:0.264583" />
    <path
       fill="#f3765c"
       d="m 94.440435,78.882907 0.296333,-0.02117 c 0.102307,0.216958 0.200203,0.360714 0.293688,0.43127 l -1.113896,4.299484 -0.568854,2.233083 c -0.351015,0.723193 -0.559152,1.516943 -0.624417,2.38125 l -0.22225,0.0079 c -0.07585,0.0019 -0.117298,-0.03528 -0.124354,-0.111125 -0.07408,-0.862541 -1.576917,-2.2225 -2.219854,-2.936875 -0.08972,-0.09394 0.0065,-0.245218 0.129646,-0.203729 0.613833,0.185209 1.119187,0.540631 1.516062,1.066271 0.168024,0.224782 0.520266,0.165055 0.608542,-0.103187 0.717021,-2.19075 1.508125,-4.378855 2.153708,-6.590771 0.02822,-0.09701 -0.01323,-0.247827 -0.124354,-0.452438 z"
       id="path1172"
       sodipodi:nodetypes="cccccccccccccc"
       style="stroke-width:0.264583" />
    <path
       fill="#788f9f"
       d="m 93.91656,83.592491 c 0.950735,0.149931 1.946452,0.164041 2.987146,0.04233 0.370416,0.169333 0.832556,0.254881 1.386416,0.256646 7.056438,0.01852 14.112878,0.07144 21.166668,-0.103188 l 2.50561,-0.145521 c 0.14464,0.128765 0.23107,0.410986 0.25929,0.846667 0.11642,1.27 0.10495,2.402417 -0.0344,3.39725 -0.37747,1.494015 -0.60942,2.924527 -0.69585,4.291542 l -0.23019,0.746125 c -0.0265,0.08467 -0.0794,0.146402 -0.15875,0.185208 -0.74612,0.367771 -6.87917,2.259542 -6.93208,2.38125 -0.0396,0.09202 0.007,0.193818 0.09,0.195792 2.35126,0.04939 4.61256,-0.36248 6.78391,-1.235605 0.19198,-0.07864 0.35098,0.166132 0.20109,0.309563 l -0.762,0.740833 c -0.15093,0.153496 0.0507,0.392692 0.22754,0.269875 l 1.34937,-0.997479 0.0185,4.437063 c 0.002,0.251618 -0.19577,0.459591 -0.44714,0.470958 -4.06577,0.183443 -8.09802,0.32456 -12.09675,0.42333 -4.80484,0.11907 -9.988027,-0.206372 -14.451548,-0.507997 -0.495651,-0.03352 -0.908401,-0.01146 -1.23825,0.06615 -0.613833,-0.269875 -0.563562,-1.547812 -0.600604,-2.420937 l 2.693459,-0.0344 c 0.138334,-0.0026 0.222051,-0.153911 0.150812,-0.272521 -1.15711,-1.915583 -1.959681,-3.972277 -2.407708,-6.170083 -0.01939,-0.08996 -0.07232,-0.149048 -0.15875,-0.177271 -0.0829,-0.02646 -0.167569,-0.0062 -0.254,0.06085 l 0.07937,-4.823354 z m 4.241271,12.033249 c 6.168319,-1.326443 12.340169,-2.637014 18.515549,-3.931708 1.28852,-0.269875 3.72268,-0.933979 4.65137,-1.897062 0.076,-0.07739 -0.007,-0.203706 -0.10848,-0.164042 -1.22237,0.457729 -2.413,0.907521 -3.72004,1.164167 -6.70719,1.320271 -13.19742,3.151187 -19.817295,4.81277 -0.155223,0.03881 -0.152577,0.06174 0.0079,0.06879 0.128765,0.0053 0.28575,-0.01236 0.470959,-0.05292 z"
       id="path1174"
       sodipodi:nodetypes="ccccccccccccccccccccsccccccccccccccccc"
       style="stroke-width:0.264583" />
    <path
       fill="#116b76"
       d="m 122.18729,87.886678 c 0.26723,3.717396 0.48684,7.448021 0.33602,11.181292 -0.0123,0.280458 -0.13493,0.487714 -0.36777,0.62177 -0.0754,0.04289 -0.12264,0.122299 -0.12435,0.209021 l -0.0106,1.142999 -12.88521,0.48419 c -0.0952,0.004 -0.14464,0.0529 -0.14817,0.14816 l -0.0873,3.62215 c -0.002,0.11289 0.0538,0.17286 0.16669,0.17992 l 4.47675,0.2196 c 0.0482,0.004 0.0564,0.0715 0.0106,0.0873 l -3.96346,1.12977 c -0.23723,0.0673 -0.38921,0.29923 -0.35719,0.54504 0.381,2.90336 0.76465,5.78732 1.15094,8.65188 0.0988,0.73731 -0.0459,1.33703 -0.43392,1.79917 -0.1905,-0.1076 -0.38541,-0.10848 -0.58473,-0.003 -0.67468,-3.82323 -0.88106,-7.87665 -1.05304,-11.75015 -0.004,-0.0919 -0.0739,-0.16695 -0.16404,-0.17727 l -0.35983,-0.0423 c -0.11818,-0.0159 -0.17904,0.0362 -0.18256,0.1561 -0.13406,3.98463 -0.45244,7.94544 -0.95515,11.88244 l -0.18785,-0.0106 c -0.23284,-3.63802 0.0847,-6.76804 0.0265,-9.83192 -0.0265,-1.40493 -1.60073,-1.65364 -2.69875,-1.87325 -0.15875,-0.0141 -0.13758,-0.25223 0.0212,-0.23812 l 0.52652,-0.0106 c 0.0805,-0.002 0.12804,-0.0909 0.0847,-0.15875 -0.12171,-0.19756 -0.29986,-0.30339 -0.53446,-0.3175 -0.0767,-0.004 -0.13387,-0.0742 -0.12435,-0.15346 l 0.0159,-0.127 c 0.0124,-0.0864 0.0617,-0.12788 0.14817,-0.12435 l 4.48733,0.16139 c 0.0794,0.004 0.12171,-0.0344 0.127,-0.11377 l 0.19315,-3.50837 c 0.005,-0.0911 -0.065,-0.16895 -0.15611,-0.17463 -2.97744,-0.16757 -5.77762,-0.35013 -8.40052,-0.54769 -2.119315,-0.16139 -4.214815,-0.09 -6.318253,-0.51064 0.08643,-0.2787 0.08114,-0.536225 -0.01587,-0.772585 0.329849,-0.07761 0.742599,-0.09966 1.23825,-0.06615 4.463521,0.301625 9.646703,0.627065 14.451543,0.507995 3.99873,-0.0988 8.03098,-0.239885 12.09675,-0.423328 0.25137,-0.01138 0.44882,-0.21934 0.44714,-0.470958 l -0.0185,-4.437063 c 0.15875,-1.031875 -0.0309,-1.897062 -0.56885,-2.595562 0.0864,-1.367015 0.31838,-2.797527 0.69585,-4.291542 z"
       id="path1180"
       sodipodi:nodetypes="ccccccccccccccccccccccccccccccccccccccccscccc"
       style="stroke-width:0.264583" />
    <path
       fill="#567486"
       d="m 98.157831,95.62574 c -0.185209,0.04057 -0.342194,0.05821 -0.470959,0.05292 -0.160514,-0.0071 -0.16316,-0.02998 -0.0079,-0.06879 6.619878,-1.661583 13.110108,-3.492499 19.817298,-4.81277 1.30704,-0.256646 2.49767,-0.706438 3.72004,-1.164167 0.10099,-0.03966 0.18451,0.08665 0.10848,0.164042 -0.92869,0.963083 -3.36285,1.627187 -4.65137,1.897062 -6.17538,1.294694 -12.34723,2.605265 -18.515552,3.931708 z"
       id="path1181"
       sodipodi:nodetypes="cccccccc"
       style="stroke-width:0.264583" />
    <path
       fill="#567486"
       d="m 93.244518,97.242345 0.02381,-6.593417 c 0.08643,-0.06703 0.171098,-0.08731 0.254,-0.06085 0.08643,0.02822 0.139348,0.08731 0.15875,0.177271 0.448027,2.197806 1.250598,4.2545 2.407708,6.170083 0.07124,0.11861 -0.01249,0.269888 -0.150812,0.272521 z"
       id="path1183"
       sodipodi:nodetypes="ccccccc"
       style="stroke-width:0.264583" />
    <path
       fill="#567486"
       d="m 121.49144,92.17822 c 0.53798,0.6985 0.7276,1.563687 0.56885,2.595562 l -1.34937,0.997479 c -0.1768,0.122817 -0.37847,-0.116379 -0.22754,-0.269875 l 0.762,-0.740833 c 0.14989,-0.143431 -0.009,-0.388207 -0.20109,-0.309563 -2.17135,0.873125 -4.43265,1.284994 -6.78391,1.235605 -0.0828,-0.0019 -0.12959,-0.103773 -0.09,-0.195792 0.0529,-0.121708 6.18596,-2.013479 6.93208,-2.38125 0.0794,-0.03881 0.13229,-0.100542 0.15875,-0.185208 z"
       id="path1185"
       sodipodi:nodetypes="ccccccccccc"
       style="stroke-width:0.264583" />
    <path
       fill="#1d8890"
       d="m 93.860997,100.43586 c 2.103438,0.42069 4.198938,0.34925 6.318253,0.51065 2.6229,0.19756 5.42308,0.38012 8.40052,0.54769 0.0911,0.006 0.16063,0.0835 0.15611,0.17462 l -0.19315,3.50838 c -0.005,0.0794 -0.0476,0.1173 -0.127,0.11377 l -4.48733,-0.1614 c -0.0864,-0.004 -0.13582,0.0379 -0.14817,0.12436 l -0.0159,0.127 c -0.01,0.0793 0.0476,0.14983 0.12435,0.15346 0.2346,0.0141 0.41275,0.11994 0.53446,0.3175 0.0434,0.0678 -0.004,0.15698 -0.0847,0.15875 l -0.52652,0.0106 c -0.15875,-0.0141 -0.17992,0.22401 -0.0212,0.23812 1.09802,0.21961 2.6723,0.46831 2.69875,1.87325 0.0582,3.06388 -0.25929,6.1939 -0.0265,9.83192 -3.78532,0.14111 -7.598842,-0.0238 -11.440592,-0.49477 -0.548568,-5.63386 -0.935744,-11.31182 -1.161521,-17.03388 z"
       id="path1200"
       sodipodi:nodetypes="cccccccccccccccccc"
       style="stroke-width:0.264583" />
    <path
       fill="#1d8890"
       d="m 122.02061,101.04176 c 0.0529,5.0509 -0.58738,10.29758 -1.15888,16.6079 -3.70417,0.27516 -7.34131,0.36159 -10.91142,0.25929 0.38806,-0.46214 0.5327,-1.06186 0.43392,-1.79917 -0.38629,-2.86456 -0.76994,-5.74851 -1.15094,-8.65187 -0.032,-0.24582 0.11996,-0.47773 0.35719,-0.54505 l 3.96346,-1.12977 c 0.0458,-0.0158 0.0377,-0.0829 -0.0106,-0.0873 l -4.47675,-0.2196 c -0.11289,-0.007 -0.16846,-0.067 -0.16669,-0.17992 l 0.0873,-3.62214 c 0.004,-0.0953 0.0529,-0.14464 0.14817,-0.14817 z"
       id="path1201"
       sodipodi:nodetypes="ccccccccccccc"
       style="stroke-width:0.264583" />
    <path
       fill="#feb392"
       d="m 95.022518,117.46974 c 3.84175,0.47096 7.655272,0.63588 11.440592,0.49477 l 0.18785,0.0106 c -0.3175,1.81504 -0.58385,3.63538 -0.79904,5.461 -0.37042,3.11944 -0.0662,7.09877 -0.49477,9.8769 -0.68968,4.47145 -1.3679,8.94732 -2.03465,13.4276 l -2.22515,0.79904 -1.759478,-0.70908 c -0.733777,-4.19453 -1.562806,-8.35201 -2.487083,-12.47246 -1.132417,-5.06148 -1.320271,-10.51718 -1.772708,-15.68185 -0.03351,-0.37042 -0.05204,-0.77258 -0.05556,-1.2065 z m 1.211792,4.90008 c 1.444625,0.77788 1.669521,2.08492 3.611562,1.82034 0.838728,-0.11377 1.674808,-0.18521 2.518838,-0.30692 0.3261,-0.0437 0.37868,-0.4935 0.0714,-0.61119 -0.59003,-0.23283 -1.05569,-0.0767 -1.68011,0.2249 -2.045227,0.99219 -3.005665,-0.37836 -4.378852,-1.51871 -0.160602,-0.13791 -0.395407,0.0418 -0.304271,0.23283 0.02822,0.0635 0.08202,0.11642 0.161396,0.15875 z"
       id="path1217"
       sodipodi:nodetypes="ccccccccccccccccccc"
       style="stroke-width:0.264583" />
    <path
       fill="#feb392"
       d="m 120.86173,117.64966 -0.27517,3.65389 c -1.55575,1.08215 -3.51631,3.06652 -5.5192,2.06904 -0.20852,-0.103 -0.2005,-0.40305 0.0132,-0.49477 0.46038,-0.19843 2.82311,-0.6985 2.83105,-0.70908 0.0705,-0.0759 0.0538,-0.12083 -0.0503,-0.13494 -1.5875,-0.1905 -3.52161,0.6059 -4.94507,1.20915 -0.12878,0.0537 -0.15216,0.22615 -0.0423,0.31221 1.57956,1.22502 3.15383,1.22766 5.02708,0.76729 0.80169,-0.19844 1.23825,-0.71702 1.62984,-1.38906 0.046,-0.0789 0.14318,-0.11166 0.22754,-0.0767 0.25576,0.10406 0.48066,0.13052 0.67469,0.0794 -0.14464,4.83481 -0.72584,9.54528 -1.74361,14.13139 -0.85372,3.84704 -1.50636,6.87829 -1.95792,9.09373 -0.0229,0.11289 0.004,0.38805 0.0794,0.8255 l -0.27781,0.0661 -1.37319,0.33867 c -0.0282,-0.11465 -0.10054,-0.17727 -0.21696,-0.18786 -0.18521,-0.0159 -0.26458,0.0344 -0.23812,0.15082 -0.24519,0.0194 -0.47008,0.0873 -0.67469,0.20373 -0.0829,0.0476 -0.15522,0.0362 -0.21696,-0.0344 -0.11642,-0.12877 -0.26546,-0.16757 -0.44715,-0.11642 -0.0753,0.0201 -0.15255,-0.0251 -0.17197,-0.10054 -0.1323,-0.53093 -0.29193,-0.67469 -0.4789,-0.43127 -0.0229,-0.53093 -0.0511,-0.90664 -0.0847,-1.12712 -0.92604,-6.0034 -2.13254,-11.82952 -2.24896,-17.99431 -0.0688,-3.56129 -0.68791,-6.55638 -1.016,-9.84779 0.19932,-0.10584 0.39423,-0.10496 0.58473,0.003 3.57011,0.1023 7.20725,0.0159 10.91142,-0.2593 z m -4.55348,11.92477 c 0.83079,-0.13494 0.98161,-2.34686 1.016,-2.98979 0.005,-0.0991 -0.0468,-0.19158 -0.13229,-0.23813 l -1.03717,-0.56092 c -0.10027,-0.0523 -0.22213,0.007 -0.24077,0.11642 -0.19226,1.12183 -0.20373,2.24102 -0.0344,3.35756 0.0298,0.20625 0.22288,0.34804 0.42862,0.31486 z"
       id="path1221"
       sodipodi:nodetypes="cccccccccsccsccccccccccccccccccccccc"
       style="stroke-width:0.264583" />
    <path
       fill="#fe8f71"
       d="m 120.58656,121.30355 -0.15345,1.63248 c -0.19403,0.0511 -0.41893,0.0247 -0.67469,-0.0794 -0.0844,-0.0349 -0.18156,-0.002 -0.22754,0.0767 -0.39159,0.67204 -0.82815,1.19063 -1.62984,1.38906 -1.87325,0.46038 -3.44752,0.45773 -5.02708,-0.76729 -0.10983,-0.0861 -0.0864,-0.25851 0.0423,-0.31221 1.42346,-0.60325 3.35757,-1.39964 4.94507,-1.20914 0.10406,0.0141 0.12082,0.0591 0.0503,0.13494 -0.008,0.0106 -2.37067,0.51064 -2.83105,0.70908 -0.21372,0.0917 -0.22174,0.39176 -0.0132,0.49477 2.00289,0.99748 3.96345,-0.9869 5.5192,-2.06904 z"
       id="path1224"
       sodipodi:nodetypes="cccccccccccc"
       style="stroke-width:0.264583" />
    <path
       fill="#f3765c"
       d="m 96.23431,122.36982 c -0.07937,-0.0423 -0.133173,-0.0953 -0.161396,-0.15875 -0.09114,-0.19106 0.143669,-0.37074 0.304271,-0.23283 1.373187,1.14035 2.333625,2.5109 4.378855,1.51871 0.62442,-0.30163 1.09008,-0.45773 1.6801,-0.2249 0.30725,0.11769 0.25467,0.56753 -0.0714,0.61119 -0.84402,0.12171 -1.6801,0.19315 -2.518831,0.30692 -1.942041,0.26458 -2.166937,-1.04246 -3.611562,-1.82034 z"
       id="path1228"
       sodipodi:nodetypes="cccccccc"
       style="stroke-width:0.264583" />
    <path
       fill="#fe8f71"
       d="m 116.30825,129.57443 c -0.20574,0.0332 -0.39877,-0.10861 -0.42862,-0.31486 -0.16934,-1.11654 -0.15787,-2.23573 0.0344,-3.35756 0.0187,-0.10983 0.1405,-0.16875 0.24077,-0.11642 l 1.03717,0.56092 c 0.0855,0.0466 0.13691,0.13903 0.13229,0.23813 -0.0344,0.64293 -0.18521,2.85485 -1.016,2.98979 z"
       id="path1232"
       sodipodi:nodetypes="ccccccc"
       style="stroke-width:0.264583" />
    <path
       fill="#f3765c"
       d="m 103.3225,146.74059 0.21961,1.34938 c -0.71791,0.45685 -1.53283,0.2734 -2.44476,-0.55034 z"
       id="path1233"
       sodipodi:nodetypes="cccc"
       style="stroke-width:0.264583" />
    <path
       fill="#f3765c"
       d="m 114.70488,147.35443 c -0.46038,1.21443 -1.30969,1.13241 -2.40242,1.02393 l 0.41275,-1.50283 c 0.18697,-0.24342 0.3466,-0.0997 0.4789,0.43127 0.0194,0.0755 0.0967,0.12065 0.17197,0.10054 0.18169,-0.0512 0.33073,-0.0124 0.44715,0.11642 0.0617,0.0706 0.13406,0.082 0.21696,0.0344 0.20461,-0.11642 0.4295,-0.18433 0.67469,-0.20373 z"
       id="path1234"
       sodipodi:nodetypes="cccccccc"
       style="stroke-width:0.264583" />
    <path
       fill="#116b76"
       d="m 99.337872,146.83055 1.759478,0.70908 c 0.91193,0.82374 1.72685,1.00719 2.44476,0.55034 0.27516,1.05127 0.43391,2.22073 0.47625,3.50837 -2.15107,0.37307 -4.445008,1.03982 -6.654279,1.18269 -0.01765,-0.0564 -0.02204,-0.10936 -0.01323,-0.15875 0.01939,-0.0988 0.07937,-0.15258 0.179916,-0.1614 1.042459,-0.0794 2.051402,-0.30162 3.026833,-0.66675 0.0864,-0.0318 0.13141,-0.0944 0.13494,-0.18785 0.0529,-1.29293 -0.13053,-2.54265 -0.55034,-3.74915 0.11113,-0.13581 -0.0247,-0.19138 -0.407454,-0.16668 -0.130527,-0.19403 -0.382764,-0.3369 -0.756708,-0.42863 z"
       id="path1235"
       sodipodi:nodetypes="ccccccccccccc"
       style="stroke-width:0.264583" />
    <path
       fill="#0d586f"
       d="m 116.81096,146.98666 c 0.79551,1.00894 1.73743,1.96761 2.82575,2.87602 -0.58561,0.0353 -1.06804,-0.14641 -1.44727,-0.54505 -0.65969,-0.69673 -1.46227,-1.15975 -2.40771,-1.38906 -0.29606,-0.0722 -0.5839,0.14527 -0.59531,0.44979 l -0.11642,2.89719 c -0.0129,0.30968 0.21711,0.57666 0.52652,0.61119 0.84843,0.09 1.51959,0.34925 2.01348,0.77787 -1.49401,-0.24165 -2.91218,-0.51505 -4.2545,-0.8202 -0.39158,-0.09 -1.06098,0.045 -1.31762,-0.32015 -0.0353,-1.06186 0.0529,-2.11049 0.26458,-3.1459 1.09273,0.10848 1.94204,0.1905 2.40242,-1.02393 -0.0265,-0.11642 0.0529,-0.16669 0.23812,-0.15082 0.11642,0.0106 0.18874,0.0732 0.21696,0.18786 -0.0176,0.0212 -0.0256,0.06 -0.0238,0.11641 0.005,0.0811 0.0459,0.13494 0.12171,0.1614 0.16051,0.0564 0.28927,0.008 0.38629,-0.14552 0.0406,-0.067 0.0988,-0.0926 0.17462,-0.0767 0.35102,0.0723 0.58914,-0.0591 0.71438,-0.39423 z"
       id="path1242"
       sodipodi:nodetypes="cccccccccccccccccccc"
       style="stroke-width:0.264583" />
    <path
       fill="#dd9576"
       d="m 116.53315,147.0528 c -0.12524,0.33514 -0.36336,0.46655 -0.71438,0.39423 -0.0759,-0.0159 -0.13405,0.01 -0.17462,0.0767 -0.097,0.15346 -0.22578,0.20196 -0.38629,0.14552 -0.0759,-0.0265 -0.11642,-0.0803 -0.12171,-0.1614 -0.002,-0.0564 0.006,-0.0953 0.0238,-0.11641 z"
       id="path1245"
       sodipodi:nodetypes="ccccccc"
       style="stroke-width:0.264583" />
    <path
       fill="#084964"
       d="m 98.978039,147.26182 c 0.373944,0.0917 0.626181,0.2346 0.756708,0.42863 -0.1905,0.11112 -0.402166,0.18168 -0.635,0.21166 -0.08996,0.0124 -0.165806,0.0503 -0.227541,0.11377 -0.772584,0.81492 -1.658938,1.44639 -2.659063,1.89442 0.98425,-0.75494 1.784173,-1.58397 2.399771,-2.48708 0.04586,-0.0688 0.0926,-0.11995 0.140229,-0.15346 0.116417,-0.0847 0.191381,-0.0873 0.224896,-0.008 z"
       id="path1255"
       sodipodi:nodetypes="cccccccc"
       style="stroke-width:0.264583" />
    <path
       fill="#3f798a"
       d="m 99.734747,147.69045 c 0.382763,-0.0247 0.518583,0.0309 0.407463,0.16668 0.4198,1.2065 0.60325,2.45622 0.55033,3.74915 -0.003,0.0935 -0.0485,0.1561 -0.13494,0.18785 -0.97543,0.36513 -1.984373,0.58738 -3.026832,0.66675 -0.100541,0.009 -0.160515,0.0626 -0.179916,0.1614 -0.0088,0.0494 -0.0044,0.10231 0.01323,0.15875 -1.529292,-0.0177 -3.045354,-0.0697 -4.548188,-0.1561 -0.188735,-0.0124 -0.301625,-0.0732 -0.338666,-0.18257 -0.03704,-0.10936 -0.03969,-0.25929 -0.0079,-0.44979 1.16064,-0.85725 2.408589,-1.55134 3.743854,-2.08227 1.000125,-0.44803 1.886479,-1.0795 2.659063,-1.89442 0.06173,-0.0635 0.137583,-0.10142 0.227541,-0.11377 0.232834,-0.03 0.4445,-0.10054 0.635,-0.21166 z"
       id="path1261"
       sodipodi:nodetypes="ccccccccsccccc"
       style="stroke-width:0.264583" />
    <path
       fill="#3f798a"
       d="m 119.63671,149.86268 c 1.7145,0.7276 2.74637,1.24089 3.76767,2.25425 0.0864,0.0653 0.0864,0.18785 0,0.36777 -0.27517,-0.0794 -0.55475,-0.0882 -0.83873,-0.0265 -1.76918,0.30515 -3.42107,0.37394 -4.95565,0.20637 -0.49389,-0.42862 -1.16505,-0.68791 -2.01348,-0.77787 -0.30941,-0.0345 -0.5394,-0.30151 -0.52652,-0.61119 l 0.11642,-2.89719 c 0.0114,-0.30452 0.29925,-0.522 0.59531,-0.44979 0.94544,0.22931 1.74802,0.69233 2.40771,1.38906 0.37923,0.39864 0.86166,0.58032 1.44727,0.54505 z"
       id="path1267"
       sodipodi:nodetypes="ccccccccccc"
       style="stroke-width:0.264583" />
  </g>
</svg>
