<?xml version="1.0" encoding="UTF-8" standalone="no"?>
<!-- Created with Inkscape (http://www.inkscape.org/) -->

<svg
   width="42.178955mm"
   height="115.78188mm"
   viewBox="0 0 42.178955 115.78188"
   version="1.1"
   id="svg1"
   inkscape:version="1.3 (0e150ed6c4, 2023-07-21)"
   sodipodi:docname="underweight.svg"
   xmlns:inkscape="http://www.inkscape.org/namespaces/inkscape"
   xmlns:sodipodi="http://sodipodi.sourceforge.net/DTD/sodipodi-0.dtd"
   xmlns="http://www.w3.org/2000/svg"
   xmlns:svg="http://www.w3.org/2000/svg">
  <sodipodi:namedview
     id="namedview1"
     pagecolor="#505050"
     bordercolor="#ffffff"
     borderopacity="1"
     inkscape:showpageshadow="0"
     inkscape:pageopacity="0"
     inkscape:pagecheckerboard="1"
     inkscape:deskcolor="#505050"
     inkscape:document-units="mm"
     inkscape:zoom="0.73139029"
     inkscape:cx="182.52908"
     inkscape:cy="357.53824"
     inkscape:window-width="1920"
     inkscape:window-height="1017"
     inkscape:window-x="-8"
     inkscape:window-y="-8"
     inkscape:window-maximized="1"
     inkscape:current-layer="layer1" />
  <defs
     id="defs1" />
  <g
     inkscape:label="Warstwa 1"
     inkscape:groupmode="layer"
     id="layer1"
     transform="translate(-56.620887,-53.975004)">
    <path
       fill="#30568a"
       d="m 86.846189,65.185611 q -0.568854,-0.17198 -1.074208,0.01323 -0.513292,-0.719667 -1.264709,-0.425979 -0.134937,0.05027 -0.169333,0.1905 l -0.246062,1.00277 -2.180167,-6.376458 a 0.13758333,0.13758333 0 0 0 -0.235479,-0.04233 c -2.251604,2.770187 -5.677958,3.690937 -9.083146,4.778375 q -0.140229,0.04498 -0.354542,0.3175 -0.127,0.256646 -0.251354,0.275166 -1.447271,0.219605 -1.791229,1.47373 -0.828146,0.637645 -1.045104,1.312333 -0.216958,0.66675 -0.267229,0.98425 c -0.330729,2.092854 -0.616479,4.384146 -0.470959,6.495521 q 0.05027,0.724958 -0.410104,1.32027 -0.431271,-1.150937 -0.447146,-1.994958 -0.129645,-6.357937 1.785938,-12.702646 c 1.49225,-4.937124 4.368271,-7.86077 9.765771,-7.831666 6.257395,0.03175 7.27075,6.241521 7.739062,11.210396 z"
       id="path469"
       style="stroke-width:0.264583" />
    <path
       fill="#fbb0a0"
       d="m 84.091877,65.966131 -0.447146,3.262313 q -0.926042,2.325687 -2.341563,4.198937 l -1.516062,0.780521 c -2.563813,1.164167 -3.309938,-0.0344 -5.30225,-0.933979 q -1.367896,-1.449917 -1.965854,-3.3655 -0.04233,-0.132292 -0.153459,-0.214312 -0.280458,-0.209021 -0.41275,-0.193146 -0.15875,-2.370667 0.291042,-4.310063 c 0.03704,-0.156104 -0.0026,-0.378354 -0.0053,-0.547687 q 0.214313,-0.272521 0.354542,-0.3175 c 3.405188,-1.087438 6.831542,-2.008188 9.083146,-4.778375 a 0.13758333,0.13758333 0 0 1 0.235479,0.04233 z"
       id="path474"
       style="stroke-width:0.264583" />
    <path
       fill="#fd9587"
       d="m 72.238543,64.643215 c 0.0026,0.169333 0.04233,0.391583 0.0053,0.547687 q -0.449792,1.939396 -0.291042,4.310063 -1.680104,-1.098021 -1.756833,-3.108854 0.343958,-1.254125 1.791229,-1.47373 0.124354,-0.01852 0.251354,-0.275166 z"
       id="path479"
       style="stroke-width:0.264583" />
    <path
       fill="#fd9587"
       d="m 85.771981,65.19884 c 0.433916,1.397 -0.15875,4.167187 -2.12725,4.029604 l 0.447146,-3.262313 0.246062,-1.00277 q 0.0344,-0.14023 0.169333,-0.1905 0.751417,-0.293688 1.264709,0.425979 z"
       id="path480"
       style="stroke-width:0.264583" />
    <path
       fill="#244675"
       d="m 86.846189,65.185611 c 0.595313,3.354916 2.304521,10.347854 0.153458,13.22652 a 0.03199709,0.03199709 0 0 1 -0.05556,-0.03175 c 1.262062,-3.040062 0.423333,-6.961187 -0.0053,-10.136187 a 0.11641667,0.11641667 0 0 0 -0.177271,-0.08467 q -0.140229,0.08731 -0.100541,0.320146 c 0.381,2.209271 2.026708,10.485437 -2.114021,10.570104 q -0.486833,0.0079 -1.087438,-0.0344 L 81.78735,78.295708 a 0.75670832,0.75670832 0 0 1 -0.457729,-0.690563 l -0.02646,-4.177771 q 1.415521,-1.87325 2.341563,-4.198937 c 1.9685,0.137583 2.561166,-2.632604 2.12725,-4.029604 q 0.505354,-0.185209 1.074208,-0.01323 z"
       id="path482"
       style="stroke-width:0.264583" />
    <path
       fill="#244675"
       d="m 70.19596,66.392111 q 0.07673,2.010833 1.756833,3.108854 0.132292,-0.01587 0.41275,0.193146 0.111125,0.08202 0.153459,0.214312 0.597958,1.915583 1.965854,3.3655 -0.111125,0.195792 -0.02117,0.277812 -0.06615,0.03704 -0.103187,0.103188 -0.02646,0.04762 -0.01852,0.132292 0.166687,1.748895 0.0053,3.495145 c -0.127,1.354667 -1.325563,1.225021 -2.3495,1.7145 q -0.404813,-0.01587 -0.762,0.02117 c -1.526646,0.15875 -2.780771,-1.153583 -3.233209,-2.513542 q 0.460375,-0.595312 0.410104,-1.32027 c -0.14552,-2.111375 0.14023,-4.402667 0.470959,-6.495521 q 0.05027,-0.3175 0.267229,-0.98425 0.216958,-0.674688 1.045104,-1.312333 z"
       id="path487"
       style="stroke-width:0.264583" />
    <path
       fill="#fd6c61"
       d="m 74.484856,73.273923 c 1.992312,0.899583 2.738437,2.098146 5.30225,0.933979 -0.886354,1.389063 -2.76225,0.891646 -4.164542,0.478896 q -0.121708,-0.03704 -0.209021,-0.129646 l -0.949854,-1.005417 q -0.08996,-0.08202 0.02117,-0.277812 z"
       id="path493"
       style="stroke-width:0.264583" />
    <path
       fill="#fd9587"
       d="m 81.303168,73.427381 0.02646,4.177771 a 0.75670832,0.75670832 0 0 0 0.457729,0.690563 l 1.672166,0.719666 q 1.418167,0.817563 3.145896,0.994834 l -0.04762,0.904875 c -0.457729,0.269875 -0.886354,0.03439 -1.344083,0.11377 -1.783292,0.301625 -3.336396,0.754063 -5.042958,1.309688 -2.066396,0.672042 -2.95275,0.640292 -4.826,-0.211667 -0.05027,-0.02381 -5.233459,-2.12725 -6.4135,-1.793875 q 0.08996,-0.164041 -0.142875,-0.248708 1.740958,-0.224896 3.209396,-1.087438 c 1.023937,-0.489479 2.2225,-0.359833 2.3495,-1.7145 q 0.161395,-1.74625 -0.0053,-3.495145 -0.0079,-0.08467 0.01852,-0.132292 0.03704,-0.06615 0.103187,-0.103188 l 0.949854,1.005417 q 0.08731,0.0926 0.209021,0.129646 c 1.402292,0.41275 3.278188,0.910167 4.164542,-0.478896 z"
       id="path495"
       style="stroke-width:0.264583" />
    <path
       fill="#fd6c61"
       d="m 86.605418,80.010215 1.068917,0.338666 q 1.770062,4.765146 2.981854,9.734021 c 0.486833,1.989667 1.293813,5.201708 0.06879,6.916208 q -1.606021,3.34169 -3.309938,6.63046 -0.314854,0.60854 -0.566208,2.14577 -2.344208,0.21167 -6.114521,0.25665 -6.125104,0.0741 -10.900833,-0.20638 c -0.309563,-0.0185 -0.5715,-0.19844 -0.822854,-0.35983 q -0.420688,-1.76477 -0.79375,-2.38125 -1.592792,-2.64054 -3.14325,-5.744107 -0.746125,-1.733021 -0.6985,-3.751792 0.02646,-1.172104 0.640292,-3.132667 1.571624,-5.032375 2.865437,-10.091208 l 0.907521,-0.280458 q 0.232833,0.08467 0.142875,0.248708 -0.22225,2.704042 0.240771,5.357813 c 0.531812,3.050645 2.981854,4.003145 5.659437,4.365625 3.061229,0.415395 10.750021,0.719666 11.665479,-3.373438 q 0.523875,-2.3495 0.06085,-5.767916 z"
       id="path502"
       style="stroke-width:0.264583" />
    <path
       fill="#fbb0a0"
       d="m 86.557793,80.91509 q 0.463021,3.418416 -0.06085,5.767916 c -0.915458,4.093104 -8.60425,3.788833 -11.665479,3.373438 -2.677583,-0.36248 -5.127625,-1.31498 -5.659437,-4.365625 q -0.463021,-2.653771 -0.240771,-5.357813 c 1.180041,-0.333375 6.363229,1.770063 6.4135,1.793875 1.87325,0.851959 2.759604,0.883709 4.826,0.211667 1.706562,-0.555625 3.259666,-1.008063 5.042958,-1.309688 0.457729,-0.07937 0.886354,0.156105 1.344083,-0.11377 z"
       id="path506"
       style="stroke-width:0.264583" />
    <path
       fill="#fd9587"
       d="m 67.880856,80.364756 q -1.293813,5.058833 -2.865437,10.091208 -0.613834,1.960563 -0.640292,3.132667 -0.04763,2.018771 0.6985,3.751792 -0.627063,7.963957 -1.553104,15.684497 c -0.664104,5.53509 -1.965854,10.95111 -2.378604,16.51794 q -0.156105,2.07962 0.436562,4.3471 l 0.08996,1.07686 q -0.140229,-0.0132 -0.137583,0.0661 0.03969,1.60073 -0.0026,3.02948 c -1.090083,1.09009 -1.611312,0.12965 -1.582208,-0.91546 a 0.09265593,0.09265593 0 0 0 -0.182563,-0.0318 c -0.563562,1.76742 1.733021,1.9103 1.420813,4.00844 q -0.06879,0.46567 -0.425979,0.15875 c -0.865188,-0.74348 -2.061104,-1.21444 -2.756959,-1.98173 q -0.936625,-1.02658 -1.359958,-2.38125 -0.03969,-0.12964 -0.0026,-0.25929 c 2.153709,-7.67821 0.754063,-16.14223 1.688042,-26.16464 q 0.936625,-10.04888 1.756833,-20.110983 c 0.41275,-5.069417 1.793875,-9.670521 7.797271,-10.019771 z"
       id="path507"
       style="stroke-width:0.264583" />
    <path
       fill="#fca493"
       d="m 87.674335,80.348881 c 2.516187,0.465667 4.831291,1.068917 6.25475,3.307292 1.775354,2.783416 1.960562,6.701896 2.174875,10.517187 0.193146,3.463396 0.597958,9.15723 1.148291,13.91444 0.833438,7.22312 0.502709,14.5071 0.592667,21.71964 0.0291,2.1934 0.537104,4.23598 0.923396,6.38969 0.203729,1.14035 -0.616479,2.18281 -1.407583,2.88396 -0.822855,0.73025 -1.915584,0.89694 -2.629959,2.06639 a 0.18520833,0.18520833 0 0 1 -0.338666,-0.0608 c -0.410105,-2.07433 1.518708,-2.3151 1.156229,-4.2836 q -0.05027,-0.26988 -0.103188,0 -0.150812,0.79639 -0.484187,1.49754 -0.328084,0.69585 -0.621771,-0.0159 -0.124354,-0.29898 -0.134938,-0.57414 -0.0053,-0.0953 -0.09789,-0.10054 -0.08467,-0.003 -0.09525,0.0688 c -0.14023,0.87312 -0.17198,1.91823 -0.306917,2.81516 q -1.494896,9.94834 -3.839104,19.73263 c -0.320146,1.33879 -0.531813,2.68552 -0.746125,4.01902 -0.280458,1.74096 -0.179917,3.50308 -0.203729,5.29431 q -0.0026,0.14817 -0.148167,0.15081 l -4.146021,0.0635 q 0.0079,-0.0423 0.07408,-0.0635 0.100541,-0.0291 0.01058,-0.0847 l -0.06615,-0.0397 q -0.03969,-0.0238 -0.04498,-0.0688 c -0.351896,-4.28096 -0.719667,-8.53811 -0.552979,-12.84023 0.04762,-1.22238 -0.06085,-2.70669 0.07408,-3.94758 q 0.275167,-2.50561 0.325438,-3.74121 0.0026,-0.0476 -0.01323,-0.0847 -0.0291,-0.0714 -0.07144,-0.0953 -0.07937,-0.0503 -0.07937,-0.14287 -0.0053,-2.44475 -0.05821,-4.8895 c -0.05556,-2.55852 0.232833,-5.36046 -0.256646,-7.87665 a 0.31485416,0.3175 59.1 0 1 0.06615,-0.25665 q 0.341312,-0.4101 0.08202,-0.37306 l 10.062104,-0.20373 q 0.658813,-5.00856 0.113771,-9.21014 c -0.53975,-4.17513 -1.949979,-10.07534 -2.360083,-15.1765 q -0.537104,-6.64104 -1.071562,-13.27944 0,-0.0053 0.05027,-0.177271 0.01587,-0.05556 -0.02381,-0.119062 -0.0635,-0.100542 -0.156104,-0.08467 c 1.225021,-1.7145 0.418041,-4.926541 -0.06879,-6.916208 q -1.211792,-4.968875 -2.981854,-9.734021 z"
       id="path508"
       style="stroke-width:0.264583" />
    <path
       fill="#0c8c86"
       d="m 69.010627,105.46578 c 0.251354,0.16139 0.513291,0.34131 0.822854,0.35983 q 4.775729,0.28046 10.900833,0.20638 3.770313,-0.045 6.114521,-0.25665 -0.209021,1.39435 -0.179917,3.18294 c 0.0079,0.32808 0.179917,0.93927 0.359834,1.22502 q 2.032,3.26231 3.19352,5.28902 c 2.995084,5.22816 4.122209,11.01989 3.767667,17.31169 q -0.0291,0.52122 0.182562,2.26218 l -10.062104,0.20373 -5.405437,0.0185 -0.0291,-3.13796 q -0.0026,-0.14022 -0.142875,-0.14022 h -1.314979 q -0.124354,0 -0.124354,0.12435 l 0.02646,3.18294 -3.825875,-0.0741 q -6.482292,0.0423 -11.4935,-0.12435 -0.103187,-0.003 -0.132292,-0.13229 l -0.08996,-1.07686 q -0.07673,-4.87891 0.484188,-8.51693 c 0.87577,-5.64357 3.899958,-10.91142 6.953249,-15.54163 a 0.42333333,0.43656249 60 0 0 0.06879,-0.24077 z m 0.330729,5.06941 -0.07408,0.254 q -0.05027,0.17198 0.127,0.21432 8.376708,1.93675 16.740187,-0.0185 a 0.50270833,0.61383333 81.2 0 0 0.473604,-0.52917 q -0.0053,-0.12171 -0.264583,-0.11377 c -0.34925,0.008 -0.902229,0.3466 -1.322917,0.42333 -4.421187,0.78581 -8.620125,1.14565 -13.057187,0.39423 q -1.296459,-0.21696 -2.423584,-0.71702 a 0.14552083,0.14552083 0 0 0 -0.198437,0.0926 z"
       id="path527"
       style="stroke-width:0.264583" />
    <path
       fill="#0a7c7b"
       d="m 69.341356,110.53519 a 0.14552083,0.14552083 0 0 1 0.198437,-0.0926 q 1.127125,0.50006 2.423584,0.71702 c 4.437062,0.75142 8.636,0.39158 13.057187,-0.39423 0.420688,-0.0767 0.973667,-0.41539 1.322917,-0.42333 q 0.259291,-0.008 0.264583,0.11377 a 0.50270833,0.61383333 81.2 0 1 -0.473604,0.52917 q -8.363479,1.95527 -16.740187,0.0185 -0.177271,-0.0423 -0.127,-0.21432 z"
       id="path531"
       style="stroke-width:0.264583" />
    <path
       fill="#fca493"
       d="m 61.668439,134.96682 q 0.02911,0.12964 0.132292,0.13229 5.011208,0.16669 11.4935,0.12435 l -1.637771,0.14552 a 0.32808333,0.33072916 23.7 0 0 -0.179917,0.0714 l -0.642937,0.50271 q -0.124354,0.0979 -0.132292,0.25665 c -0.04233,1.22502 -0.433916,2.3495 -0.492125,3.52954 q -0.05556,1.10331 -0.214312,2.19604 c -0.261938,1.8071 -0.238125,3.31523 -0.02117,5.334 q 0.621771,5.76527 0.3175,11.54642 c -0.219604,4.17512 -0.293687,6.81566 -0.449792,10.2235 -0.0079,0.16933 0.0979,0.30162 -0.04763,0.53181 q -0.08467,0.13494 0.07408,0.12964 0.243416,-0.008 0.404812,0.0609 l -3.225271,-0.003 q -0.14552,0 -0.148166,-0.14816 c -0.02117,-1.52665 0.05556,-3.0824 -0.140229,-4.54025 q -0.402167,-3.01096 -0.989542,-5.55361 -2.246312,-9.73931 -3.799417,-18.45998 c -0.156104,-0.87048 0,-1.97643 -0.441854,-2.9845 q 0.04233,-1.42875 0.0026,-3.02948 -0.0026,-0.0794 0.137583,-0.0661 z"
       id="path542"
       style="stroke-width:0.264583" />
    <path
       fill="#fd9587"
       d="m 77.120106,135.29755 c 0.127,11.43264 -0.05556,22.86529 -0.08731,34.28206 a 0.17727083,0.17727083 0 0 1 -0.17727,0.17727 l -6.582834,-0.005 q -0.161396,-0.0688 -0.404812,-0.0609 -0.15875,0.005 -0.07408,-0.12964 c 0.145521,-0.23019 0.03969,-0.36248 0.04763,-0.53181 0.156105,-3.40784 0.230188,-6.04838 0.449792,-10.2235 q 0.304271,-5.78115 -0.3175,-11.54642 c -0.216958,-2.01877 -0.240771,-3.5269 0.02117,-5.334 q 0.15875,-1.09273 0.214312,-2.19604 c 0.05821,-1.18004 0.449792,-2.30452 0.492125,-3.52954 q 0.0079,-0.15875 0.132292,-0.25665 l 0.642937,-0.50271 a 0.32808333,0.33072916 23.7 0 1 0.179917,-0.0714 l 1.637771,-0.14552 z"
       id="path543"
       style="stroke-width:0.264583" />
    <path
       fill="#fd9587"
       d="m 84.110397,135.24992 q 0.259292,-0.037 -0.08202,0.37306 a 0.31485416,0.3175 59.1 0 0 -0.06615,0.25665 c 0.489479,2.51619 0.201083,5.31813 0.256646,7.87665 q 0.05292,2.44475 0.05821,4.8895 0,0.0926 0.07937,0.14287 0.04233,0.0238 0.07144,0.0953 0.01587,0.037 0.01323,0.0847 -0.05027,1.2356 -0.325438,3.74121 c -0.134937,1.24089 -0.02646,2.7252 -0.07408,3.94758 -0.166688,4.30212 0.201083,8.55927 0.552979,12.84023 q 0.0053,0.045 0.04498,0.0688 l 0.06615,0.0397 q 0.08996,0.0556 -0.01058,0.0847 -0.06615,0.0212 -0.07408,0.0635 l -5.453062,-0.003 q -0.359833,0 -0.359833,-0.35719 L 78.70496,135.26844 Z"
       id="path544"
       style="stroke-width:0.264583" />
  </g>
</svg>
