<?xml version="1.0" encoding="UTF-8" standalone="no"?>
<!-- Created with Inkscape (http://www.inkscape.org/) -->

<svg
   width="32.947372mm"
   height="112.17722mm"
   viewBox="0 0 32.947372 112.17722"
   version="1.1"
   id="svg1"
   inkscape:version="1.3 (0e150ed6c4, 2023-07-21)"
   sodipodi:docname="underweight_male.svg"
   xmlns:inkscape="http://www.inkscape.org/namespaces/inkscape"
   xmlns:sodipodi="http://sodipodi.sourceforge.net/DTD/sodipodi-0.dtd"
   xmlns="http://www.w3.org/2000/svg"
   xmlns:svg="http://www.w3.org/2000/svg">
  <sodipodi:namedview
     id="namedview1"
     pagecolor="#505050"
     bordercolor="#ffffff"
     borderopacity="1"
     inkscape:showpageshadow="0"
     inkscape:pageopacity="0"
     inkscape:pagecheckerboard="1"
     inkscape:deskcolor="#505050"
     inkscape:document-units="mm"
     inkscape:zoom="0.73139029"
     inkscape:cx="201.67071"
     inkscape:cy="471.02074"
     inkscape:window-width="1920"
     inkscape:window-height="1017"
     inkscape:window-x="1912"
     inkscape:window-y="-8"
     inkscape:window-maximized="1"
     inkscape:current-layer="layer1" />
  <defs
     id="defs1" />
  <g
     inkscape:label="Warstwa 1"
     inkscape:groupmode="layer"
     id="layer1"
     transform="translate(-51.593749,-23.812494)">
    <path
       fill="#dd9576"
       d="m 72.533001,32.826019 q -0.0926,0.04233 -0.124354,0.09525 c -0.60325,-1.651 -0.394229,-3.69623 -0.256645,-5.418667 a 0.19579166,0.1984375 89.6 0 0 -0.216959,-0.211667 q -0.0344,0.0026 -0.0635,0.01587 -0.09525,0.04233 -0.08731,0.145521 c 0.0926,1.304396 -1.767417,1.606021 -2.862792,1.783292 -1.349375,0.219604 -2.129896,-0.05556 -3.344333,-0.5715 -2.526771,-1.074209 -2.243667,2.12725 -2.479146,3.513666 q -0.22225,1.31498 0.415396,2.677584 l -0.777875,-1.27 a 0.17991666,0.17727083 58 0 0 -0.246063,-0.05821 l -0.886354,0.566209 q -0.02381,-0.851959 0.923396,-1.039813 0.169333,-0.03175 0.108479,-0.195791 -1.195917,-3.140605 -0.547687,-6.471709 a 0.206375,0.21166666 80.9 0 1 0.108479,-0.145521 q 2.251604,-1.156229 4.722812,-1.725083 a 0.12964583,0.12964583 0 0 0 0.04498,-0.235479 l -0.39952,-0.267229 a 0.0873125,0.0873125 0 0 1 0.02646,-0.15875 c 1.013354,-0.280459 4.206875,0.973666 4.699,0.396875 q 0.0635,-0.07408 0.127,-0.0026 l 0.894291,0.98425 a 0.23283333,0.2301875 24.6 0 1 0.05821,0.153458 v 0.53975 q 0,0.320146 0.134937,0.0291 0.140229,-0.298979 0.460375,-0.439208 0.209021,-0.08996 0.148167,0.129646 l -0.1905,0.685271 q -0.0344,0.121708 0.01058,0.240771 1.180042,3.204104 -0.399521,6.25475 z"
       id="path1084"
       style="stroke-width:0.264583" />
    <path
       fill="#feb392"
       d="m 72.408647,32.921269 c -0.146402,0.98425 -0.136701,1.907645 0.0291,2.770187 -0.146402,0.118181 -0.231951,0.235479 -0.256645,0.351896 -0.259292,1.28411 -0.605896,2.307166 -1.039813,3.069166 -2.702277,1.527527 -4.967993,1.411994 -6.797146,-0.346604 -1.27,-0.875771 0.05556,-2.791354 -1.76477,-3.085041 l 0.933979,-0.8255 c -0.425098,-0.908403 -0.563563,-1.800931 -0.415396,-2.677584 0.235479,-1.386416 -0.04763,-4.587875 2.479146,-3.513666 1.214437,0.515937 1.994958,0.791104 3.344333,0.5715 1.095375,-0.177271 2.955396,-0.478896 2.862792,-1.783292 -0.0053,-0.06879 0.02381,-0.117298 0.08731,-0.145521 0.0194,-0.0088 0.04057,-0.01411 0.0635,-0.01587 0.123499,-0.0119 0.22763,0.08969 0.216959,0.211667 -0.137584,1.722437 -0.346605,3.767667 0.256645,5.418667 z"
       id="path1088"
       sodipodi:nodetypes="ccccccccccccccc"
       style="stroke-width:0.264583" />
    <path
       fill="#fe8f71"
       d="m 72.533001,32.826019 0.134938,0.129645 q 0.08731,0.08467 0.211667,0.08731 c 1.666875,0.0344 1.283229,2.719917 -0.441855,2.648479 q -0.248708,-1.293812 -0.0291,-2.770187 0.03175,-0.05292 0.124354,-0.09525 z"
       id="path1112"
       style="stroke-width:0.264583" />
    <path
       fill="#fe8f71"
       d="m 63.513356,34.855373 -0.933979,0.8255 q -1.153584,-0.399521 -0.976313,-1.5875 l 0.886354,-0.566209 a 0.17991666,0.17727083 58 0 1 0.246063,0.05821 z"
       id="path1117"
       style="stroke-width:0.264583" />
    <path
       fill="#f3765c"
       d="m 64.344147,38.765914 q 2.74373,2.637896 6.797146,0.346604 -0.309562,0.973667 -0.116416,1.730375 c -0.497417,1.280584 -2.344209,2.325688 -3.489855,1.12448 a 0.37041666,0.3730625 72.9 0 0 -0.22225,-0.116417 q -1.918229,-0.291042 -2.71727,-2.256896 z"
       id="path1123"
       style="stroke-width:0.264583" />
    <path
       fill="#feb392"
       d="m 64.595502,39.59406 q 0.799041,1.965854 2.71727,2.256896 a 0.37041666,0.3730625 72.9 0 1 0.22225,0.116417 c 1.145646,1.201208 2.992438,0.156104 3.489855,-1.12448 0.08467,1.709209 0.851958,2.328334 2.487083,2.796646 5.392208,1.539875 8.146521,1.486959 8.781521,8.0645 q 0.746125,7.699375 1.767416,15.369646 c 0.928688,6.987646 0.439209,14.054666 -0.85725,21.074062 -0.351896,1.897062 -1.307041,4.090458 -3.349625,4.550833 a 0.33602083,0.33866666 21.6 0 1 -0.261937,-0.608541 c 1.103312,-0.748771 1.875896,-2.905125 0.994833,-4.037542 a 0.16404166,0.16404166 0 0 0 -0.280458,0.0344 q -0.460375,1.090083 -0.830792,2.166937 -0.0635,0.179917 -0.264583,0.296334 a 0.22754166,0.22489583 82.4 0 1 -0.330729,-0.254 q 0.481541,-1.846792 0.563562,-3.865563 c 0.04762,-1.172104 1.272646,-2.333625 1.193271,-3.704166 -0.283104,-4.93448 -0.926042,-9.818688 -1.164167,-14.755813 q 0.150813,0.232834 0.489479,0.201084 0.121709,-0.01058 0.119063,-0.129646 -0.05821,-3.225271 -0.367771,-4.368271 C 78.515231,59.231435 77.76646,55.233581 79.089376,50.777997 q 0.0344,-0.119062 0.02646,-0.214312 a 0.0714375,0.0714375 0 0 0 -0.132292,-0.0291 c -0.941917,1.526646 -1.788583,3.063875 -2.431521,4.736041 -0.264583,0.690563 -0.751416,2.211917 -1.672166,2.256896 q -3.452813,0.166688 -6.368521,-1.537229 a 0.381,0.38364583 14.1 0 1 -0.187854,-0.314854 l -0.283104,-6.421438 a 0.08466667,0.08466667 0 0 0 -0.166688,-0.01323 q -0.0291,0.137584 -0.0344,0.330729 -0.108479,3.214688 -0.105833,6.432021 0.0026,0.08467 -0.121708,0.142875 c -0.169334,-0.01852 -0.346605,-0.02646 -0.510646,0.05027 -1.087438,0.505354 -6.111875,2.301875 -6.746875,0.769938 q -1.407583,-3.394605 -3.336396,-6.802438 a 0.09260417,0.09260417 0 0 0 -0.166687,0.07408 c 1.595437,4.736042 0.658812,9.3345 -0.547688,14.036146 q -0.473604,1.844146 -0.240771,3.286125 0.07937,0.486833 0.468313,0.219604 c -0.171979,5.5245 -0.724959,9.895417 -1.016,14.859 -0.01588,0.232833 0.08996,0.473604 0.04762,0.743479 a 0.35189583,0.35189583 0 0 0 0.05556,0.243417 c 0.727604,1.066271 1.240896,2.010833 1.357313,3.373437 q 0.145521,1.677459 0.53975,3.309938 0.03175,0.132291 -0.103188,0.153458 c -1.143,0.166688 -1.240896,-1.93675 -1.513416,-2.780771 a 0.1905,0.18785416 45.7 0 0 -0.359834,-0.0053 q -0.928687,2.706687 1.182688,4.386791 a 0.32014583,0.32014583 0 0 1 -0.01058,0.510646 q -0.15875,0.113771 -0.410104,0.05292 C 54.043912,92.068865 53.2581,90.087136 52.855933,88.007511 51.366335,80.26581 51.25521,72.714601 52.20771,64.904101 q 0.846667,-6.94002 1.680104,-13.880041 c 0.333375,-2.794 1.016,-5.177896 3.995209,-6.072187 2.285999,-0.685271 4.291541,-1.121834 6.267979,-1.963209 a 0.55827083,0.56091666 79.3 0 0 0.341312,-0.497416 z m 8.798136,5.931112 a 0.1905,1.8706041 86 0 0 -1.879335,-0.05953 0.1905,1.8706041 86 0 0 -1.852771,0.320517 0.1905,1.8706041 86 0 0 1.879335,0.05953 0.1905,1.8706041 86 0 0 1.852771,-0.320516 z m -7.007622,0.348668 a 1.8626666,0.19314583 4.6 0 0 -1.841182,-0.341895 1.8626666,0.19314583 4.6 0 0 -1.872139,0.04313 1.8626666,0.19314583 4.6 0 0 1.841183,0.341895 1.8626666,0.19314583 4.6 0 0 1.872138,-0.04313 z m -3.589681,10.294858 a 0.64558333,0.41539583 0.1 0 0 -0.644869,-0.416534 0.64558333,0.41539583 0.1 0 0 -0.646298,0.414258 0.64558333,0.41539583 0.1 0 0 0.644869,0.416534 0.64558333,0.41539583 0.1 0 0 0.646298,-0.414258 z m 11.668125,-0.29218 q -0.650875,-0.166687 -1.074209,0.34925 a 0.17197916,0.17197916 0 0 0 0.07408,0.269875 l 0.690562,0.261938 q 0.243417,0.0926 0.298979,-0.161396 l 0.121709,-0.542396 A 0.1508125,0.14816666 13 0 0 74.46446,55.876518 Z m 7.503583,9.821333 -0.743479,2.20398 a 0.02133149,0.02133149 0 0 0 0.03704,0.02117 q 0.873125,-0.891646 1.050395,-2.143125 a 0.17727083,0.17727083 0 0 0 -0.343958,-0.08202 z"
       id="path1128"
       style="stroke-width:0.264583" />
    <ellipse
       fill="#f3765c"
       cx="68.168571"
       cy="50.533962"
       transform="rotate(-4)"
       rx="1.8706042"
       ry="0.19050001"
       id="ellipse1136"
       style="stroke-width:0.264583" />
    <ellipse
       fill="#f3765c"
       cx="67.988548"
       cy="40.401985"
       transform="rotate(4.6000004)"
       rx="1.8626666"
       ry="0.19314583"
       id="ellipse1137"
       style="stroke-width:0.264583" />
    <path
       fill="#fe8f71"
       d="m 79.473022,67.970622 q -0.301625,-3.114146 -1.018646,-6.17802 c -0.492125,-2.098146 -0.672041,-3.836459 -0.78052,-5.834063 q -0.0079,-0.164042 -0.129646,-0.05556 -0.0635,0.05556 -0.07673,0.169333 -0.08202,0.685271 -0.333375,1.330854 -1.942042,0.772583 -3.889375,0.555625 -2.489729,-0.275167 -4.894792,-1.389062 c -0.325437,-0.150813 -0.597958,-0.127 -0.928687,-0.06879 l 0.1905,-0.354542 q 0.124354,-0.05821 0.121708,-0.142875 -0.0026,-3.217333 0.105833,-6.432021 0.0053,-0.193145 0.0344,-0.330729 a 0.08466667,0.08466667 0 0 1 0.166688,0.01323 l 0.283104,6.421438 a 0.381,0.38364583 14.1 0 0 0.187854,0.314854 q 2.915708,1.703917 6.368521,1.537229 c 0.92075,-0.04498 1.407583,-1.566333 1.672166,-2.256896 0.642938,-1.672166 1.489604,-3.209395 2.431521,-4.736041 a 0.0714375,0.0714375 0 0 1 0.132292,0.0291 q 0.0079,0.09525 -0.02646,0.214312 c -1.322916,4.455584 -0.574145,8.453438 0.624417,12.895792 q 0.309563,1.143 0.367771,4.368271 0.0026,0.119062 -0.119063,0.129646 -0.338666,0.03175 -0.489479,-0.201084 z"
       id="path1137"
       style="stroke-width:0.264583" />
    <path
       fill="#f3765c"
       d="m 67.611752,56.146393 -0.1905,0.354542 c -2.561167,1.264708 -5.418667,1.7145 -8.273521,1.291167 l -0.801688,-2.264834 a 0.09789583,0.09789583 0 0 0 -0.1905,0.03704 c 0.211667,4.185708 -1.457854,8.048625 -1.624541,12.215812 q -0.388938,0.267229 -0.468313,-0.219604 -0.232833,-1.441979 0.240771,-3.286125 c 1.2065,-4.701646 2.143125,-9.300104 0.547688,-14.036146 a 0.09260417,0.09260417 0 0 1 0.166687,-0.07408 q 1.928813,3.407833 3.336396,6.802438 c 0.635,1.531937 5.659437,-0.264584 6.746875,-0.769938 0.164041,-0.07673 0.341312,-0.06879 0.510646,-0.05027 z"
       id="path1141"
       style="stroke-width:0.264583" />
    <ellipse
       fill="#dd9576"
       cx="62.248688"
       cy="56.059002"
       transform="rotate(0.1)"
       rx="0.64558333"
       ry="0.41539586"
       id="ellipse1149"
       style="stroke-width:0.264583" />
    <path
       fill="#dd9576"
       d="m 74.46446,55.876518 a 0.1508125,0.14816666 13 0 1 0.111125,0.177271 l -0.121709,0.542396 q -0.05556,0.254 -0.298979,0.161396 l -0.690562,-0.261938 a 0.17197916,0.17197916 0 0 1 -0.07408,-0.269875 q 0.423334,-0.515937 1.074209,-0.34925 z"
       id="path1150"
       style="stroke-width:0.264583" />
    <path
       fill="#feb392"
       d="m 67.421252,56.500935 c 0.330729,-0.05821 0.60325,-0.08202 0.928687,0.06879 q 2.405063,1.113895 4.894792,1.389062 1.947333,0.216958 3.889375,-0.555625 -2.092855,8.167687 -0.851959,16.475604 -5.916083,1.860021 -12.512145,0.910167 -2.55323,-0.367771 -3.897313,-0.838729 c 0.931333,-5.770563 0.362479,-10.263188 -0.724958,-16.158104 2.854854,0.423333 5.712354,-0.02646 8.273521,-1.291167 z m -3.738563,8.913812 -0.235479,-4.74927 q -0.0079,-0.116417 0.105833,-0.142875 2.026709,-0.473605 3.862917,-1.457855 0.209021,-0.11377 0.214312,0.124355 l 0.148167,6.442604 q 0.0079,0.320145 0.328083,0.325437 l 3.765021,0.04498 a 0.19579166,0.19579166 0 0 1 0.193146,0.203729 l -0.06879,2.360084 q 0,0.0635 0.0635,0.05556 0.03704,-0.0053 0.06879,-0.03175 0.0291,-0.02381 0.0344,-0.08202 0.388937,-4.045479 0.711729,-8.053916 a 0.2778125,0.27516666 6.3 0 0 -0.240771,-0.298979 q -2.711979,-0.359834 -4.688416,-2.217209 a 0.13229166,0.12964583 29.7 0 0 -0.216959,0.05821 l -0.127,0.439208 q -0.04762,0.164042 -0.206375,0.227542 l -4.214812,1.693333 q -0.105834,0.04233 -0.0979,0.156104 l 0.632354,7.598833 a 0.16933333,0.16933333 0 0 0 0.330729,0.0344 q 0.03175,-0.113771 0.01058,-0.309562 -0.100542,-0.841375 -0.256646,-1.730375 -0.02381,-0.137584 0.119062,-0.145521 1.711854,-0.08202 3.421063,-0.01587 0.219604,0.0079 0.272521,-0.1905 0.03175,-0.127 -0.0979,-0.127 l -3.656542,-0.04498 a 0.174625,0.17727083 89.1 0 1 -0.174625,-0.166688 z m 4.569354,4.008438 q -0.325437,-0.53975 -0.8255,-0.193146 a 0.24870833,0.24870833 0 0 0 0.0979,0.447146 l 0.489479,0.0926 a 0.2301875,0.2301875 0 0 0 0.238125,-0.346604 z m -0.312208,4.447646 c -2.8575,0.134937 -2.674938,-3.955521 -3.259667,-4.07723 q -0.132291,-0.02646 -0.113771,0.105834 c 0.26723,1.804458 0.894292,4.153958 2.976563,4.418541 2.360083,0.301625 3.659187,-1.846791 3.407833,-4.013729 a 0.07409514,0.07409514 0 0 0 -0.148166,-0.0026 c -0.322792,1.894417 -0.669396,3.468688 -2.862792,3.56923 z"
       id="path1151"
       style="stroke-width:0.264583" />
    <path
       fill="#fe8f71"
       d="m 63.857314,65.581435 3.656542,0.04498 q 0.129646,0 0.0979,0.127 -0.05292,0.198437 -0.272521,0.1905 -1.709209,-0.06615 -3.421063,0.01587 -0.142875,0.0079 -0.119062,0.145521 0.156104,0.889 0.256646,1.730375 0.02117,0.195791 -0.01058,0.309562 a 0.16933333,0.16933333 0 0 1 -0.330729,-0.0344 L 63.082093,60.51201 q -0.0079,-0.113771 0.0979,-0.156104 l 4.214812,-1.693333 q 0.15875,-0.0635 0.206375,-0.227542 l 0.127,-0.439208 a 0.13229166,0.12964583 29.7 0 1 0.216959,-0.05821 q 1.976437,1.857375 4.688416,2.217209 a 0.2778125,0.27516666 6.3 0 1 0.240771,0.298979 q -0.322792,4.008437 -0.711729,8.053916 -0.0053,0.05821 -0.0344,0.08202 -0.03175,0.02646 -0.06879,0.03175 -0.0635,0.0079 -0.0635,-0.05556 l 0.06879,-2.360084 a 0.19579166,0.19579166 0 0 0 -0.193146,-0.203729 l -3.765021,-0.04498 q -0.320145,-0.0053 -0.328083,-0.325437 L 67.63028,59.189093 q -0.0053,-0.238125 -0.214312,-0.124355 -1.836208,0.98425 -3.862917,1.457855 -0.113771,0.02646 -0.105833,0.142875 l 0.235479,4.74927 a 0.174625,0.17727083 89.1 0 0 0.174625,0.166688 z m 8.284104,-5.188479 q -2.296583,-0.206375 -4.034896,-1.698625 -0.124354,-0.105834 -0.119062,0.05821 l 0.182562,6.76275 a 0.14552083,0.14552083 0 0 0 0.148167,0.140229 l 3.579813,-0.08202 a 0.381,0.38364583 0.6 0 0 0.373062,-0.367771 l 0.185208,-4.455583 a 0.34660416,0.34395833 3.7 0 0 -0.314854,-0.357187 z"
       id="path1152"
       style="stroke-width:0.264583" />
    <path
       fill="#feb392"
       d="m 72.141418,60.392956 a 0.34660416,0.34395833 3.7 0 1 0.314854,0.357187 l -0.185208,4.455583 a 0.381,0.38364583 0.6 0 1 -0.373062,0.367771 l -3.579813,0.08202 a 0.14552083,0.14552083 0 0 1 -0.148167,-0.140229 l -0.182562,-6.76275 q -0.0053,-0.164042 0.119062,-0.05821 1.738313,1.49225 4.034896,1.698625 z"
       id="path1153"
       style="stroke-width:0.264583" />
    <path
       fill="#fe8f71"
       d="m 81.968043,65.697851 a 0.17727083,0.17727083 0 0 1 0.343958,0.08202 q -0.17727,1.251479 -1.050395,2.143125 a 0.02133149,0.02133149 0 0 1 -0.03704,-0.02117 z"
       id="path1173"
       style="stroke-width:0.264583" />
    <path
       fill="#dd9576"
       d="m 68.252043,69.423185 a 0.2301875,0.2301875 0 0 1 -0.238125,0.346604 l -0.489479,-0.0926 a 0.24870833,0.24870833 0 0 1 -0.0979,-0.447146 q 0.500063,-0.346604 0.8255,0.193146 z"
       id="path1177"
       style="stroke-width:0.264583" />
    <path
       fill="#fe8f71"
       d="m 67.939835,73.870831 c 2.193396,-0.100542 2.54,-1.674813 2.862792,-3.56923 a 0.07409514,0.07409514 0 0 1 0.148166,0.0026 c 0.251354,2.166938 -1.04775,4.315354 -3.407833,4.013729 -2.082271,-0.264583 -2.709333,-2.614083 -2.976563,-4.418541 q -0.01852,-0.132292 0.113771,-0.105834 c 0.584729,0.121709 0.402167,4.212167 3.259667,4.07723 z"
       id="path1178"
       style="stroke-width:0.264583" />
    <path
       fill="#03393e"
       d="m 76.282147,73.878768 c 0.746125,3.870854 1.505479,7.932208 1.410229,11.895667 q -0.142875,6.127749 -0.873125,12.088812 l -6.638395,0.166687 -1.264709,-9.977437 a 0.87577082,0.87577082 0 0 0 -1.738312,0 L 65.921064,98.066976 Q 62.58996,98.148997 59.330293,97.77858 58.642377,91.256601 58.364564,86.613164 c -0.243416,-4.087813 0.674688,-8.688917 1.508125,-12.662958 q 1.344083,0.470958 3.897313,0.838729 6.596062,0.949854 12.512145,-0.910167 z"
       id="path1184"
       style="stroke-width:0.264583" />
    <path
       fill="#feb392"
       d="m 59.330293,97.77858 q 3.259667,0.370417 6.590771,0.288396 l -0.635,7.281334 -0.108479,-0.12171 q -0.105833,-0.12171 -0.182563,0.0185 c -0.486833,0.89959 -1.399645,3.13796 -2.278062,3.57188 q -0.301625,0.14816 -0.357188,0.26458 -0.127,0.254 0.161396,0.51065 a 0.17197916,0.174625 49.6 0 0 0.209021,0.0159 q 0.820208,-0.52387 1.235604,-1.397 0.05821,-0.12435 0.193146,-0.10583 0.267229,0.0344 0.28575,0.26458 0.01058,0.14288 0.153458,0.15346 0.177271,0.0159 0.346605,-0.0741 c 0.137583,2.90512 0.383645,5.53243 0.127,8.6651 -0.357188,4.31535 -1.190625,8.6069 -1.603375,12.93812 a 0.365125,0.365125 0 0 0 0.05821,0.23813 q 0.523875,0.80698 0.523875,1.68275 -0.320146,-0.25929 -0.558271,-0.31485 -0.465667,-0.33603 -1.021292,-0.33073 -0.156104,0.003 -0.195791,-0.14817 -0.06615,-0.24077 -0.288396,-0.30692 -0.108479,-0.0344 -0.177271,-0.12171 -0.288396,-0.36512 -0.711729,-0.32279 -0.142875,0.0159 -0.171979,0.15875 -0.06085,0.29369 -0.322792,0.37307 -0.214312,-0.41011 -0.529167,-0.56357 c 0.103188,-0.11377 0.166688,-0.19314 0.15875,-0.35983 -0.320145,-8.25765 -1.16152,-16.34067 -0.775229,-24.80733 0.111125,-2.45798 -0.0926,-4.953 -0.127,-7.45067 z"
       id="path1212"
       style="stroke-width:0.264583" />
    <path
       fill="#feb392"
       d="m 76.819251,97.863247 q -0.267229,5.423963 -0.153458,6.955893 c 0.627063,8.40052 -0.06615,15.92792 -0.886354,25.50584 q -0.07937,0.0608 -0.174625,0.0847 l -1.248833,0.31486 q -0.129646,0.0344 -0.259292,-0.005 l -0.568854,-0.17727 -1.026584,-0.11641 c -0.230187,-4.68313 -0.97102,-9.46944 -1.381124,-13.58371 q -0.1905,-1.89971 0.15875,-8.44815 0.738187,-0.67733 1.359958,0.9578 a 0.53974999,0.53974999 0 0 0 0.751416,0.28839 q 0.439209,-0.22225 0.275167,-0.71173 a 0.127,0.127 0 0 0 -0.177271,-0.0741 l -0.240771,0.127 q -0.171979,0.0873 -0.264583,-0.0794 l -1.426104,-2.58233 q -0.04233,-0.0794 -0.129646,-0.0556 -0.251354,0.0714 -0.373062,0.27516 -0.661459,-4.24656 -0.873125,-8.508996 z m -4.331229,8.135933 c 0.915459,1.72773 3.471334,1.56105 3.450167,-0.47889 a 0.22754166,0.22754166 0 0 0 -0.425979,-0.10848 c -0.788459,1.42081 -1.751542,0.61119 -2.934229,0.45508 q -0.17198,-0.0212 -0.08996,0.13229 z"
       id="path1213"
       style="stroke-width:0.264583" />
    <path
       fill="#fe8f71"
       d="m 65.286064,105.34831 -0.341312,3.10092 q -0.169334,0.09 -0.346605,0.0741 -0.142875,-0.0106 -0.153458,-0.15346 -0.01852,-0.23019 -0.28575,-0.26458 -0.134937,-0.0185 -0.193146,0.10583 -0.415396,0.87313 -1.235604,1.397 a 0.17197916,0.174625 49.6 0 1 -0.209021,-0.0159 q -0.288396,-0.25665 -0.161396,-0.51065 0.05556,-0.11642 0.357188,-0.26458 c 0.878417,-0.43392 1.791229,-2.67229 2.278062,-3.57188 q 0.07673,-0.14023 0.182563,-0.0185 z"
       id="path1227"
       style="stroke-width:0.264583" />
    <path
       fill="#fe8f71"
       d="m 75.938189,105.52029 c 0.02117,2.03994 -2.534708,2.20662 -3.450167,0.47889 q -0.08202,-0.15345 0.08996,-0.13229 c 1.182687,0.15611 2.14577,0.96573 2.934229,-0.45508 a 0.22754166,0.22754166 0 0 1 0.425979,0.10848 z"
       id="path1229"
       style="stroke-width:0.264583" />
    <path
       fill="#fe8f71"
       d="m 71.278877,108.39366 -0.224896,-1.85473 q 0.121708,-0.20372 0.373062,-0.27516 0.08731,-0.0238 0.129646,0.0556 l 1.426104,2.58233 q 0.0926,0.16669 0.264583,0.0794 l 0.240771,-0.127 a 0.127,0.127 0 0 1 0.177271,0.0741 q 0.164042,0.48948 -0.275167,0.71173 a 0.53974999,0.53974999 0 0 1 -0.751416,-0.28839 q -0.621771,-1.63513 -1.359958,-0.9578 z"
       id="path1231"
       style="stroke-width:0.264583" />
    <path
       fill="#084964"
       d="m 75.779439,130.32498 1.420812,1.64835 q -0.04498,0.18785 -0.187854,0.21696 -0.100541,0.0185 -0.230187,-0.082 -0.722313,-0.55034 -1.473729,-1.00807 l 0.296333,-0.69056 q 0.09525,-0.0238 0.174625,-0.0847 z"
       id="path1247"
       style="stroke-width:0.264583" />
    <path
       fill="#084964"
       d="m 60.073772,130.39641 q 0.314855,0.15346 0.529167,0.56357 -0.05556,0.11377 0.134938,0.14287 l -0.486834,0.12171 q -0.127,0.0318 -0.232833,0.10319 l -2.526771,1.70656 q 1.240896,-1.143 2.201333,-2.39448 0.132292,-0.17463 0.381,-0.24342 z"
       id="path1249"
       style="stroke-width:0.264583" />
    <path
       fill="#d52515"
       d="m 63.492189,131.65848 q -1.359958,0.63235 -2.124604,-0.6694 -0.06085,-0.10848 -0.177271,-0.0635 l -0.452437,0.17727 q -0.1905,-0.0291 -0.134938,-0.14287 0.261938,-0.0794 0.322792,-0.37307 0.0291,-0.14287 0.171979,-0.15875 0.423333,-0.0423 0.711729,0.32279 0.06879,0.0873 0.177271,0.12171 0.22225,0.0661 0.288396,0.30692 0.03969,0.15081 0.195791,0.14817 0.555625,-0.005 1.021292,0.33073 z"
       id="path1250"
       style="stroke-width:0.264583" />
    <path
       fill="#f3765c"
       d="m 72.501251,130.42552 1.026584,0.11641 q -0.0026,0.77259 -0.711729,1.13771 -0.277813,0.11642 -0.804334,-0.0344 0.111125,-0.6694 0.489479,-1.21973 z"
       id="path1251"
       style="stroke-width:0.264583" />
    <path
       fill="#d52515"
       d="m 75.604814,130.40964 -0.296333,0.69056 -1.243542,0.1905 q -0.886354,0.79905 -1.248833,0.38894 0.709083,-0.36512 0.711729,-1.13771 l 0.568854,0.17727 q 0.129646,0.0397 0.259292,0.005 z"
       id="path1252"
       style="stroke-width:0.264583" />
    <path
       fill="#3f798a"
       d="m 63.492189,131.65848 q 0.238125,0.0556 0.558271,0.31485 l 0.254,2.85485 q -1.775354,0.21961 -3.529542,0.75142 c -2.066395,0.62442 -4.643437,0.39423 -6.775979,0.2249 q -0.22225,-0.0185 -0.293687,-0.127 -0.07937,-0.11907 -0.103188,-0.34132 1.825625,-1.39964 3.889375,-2.30187 l 2.526771,-1.70656 q 0.105833,-0.0714 0.232833,-0.10319 l 0.486834,-0.12171 0.452437,-0.17727 q 0.116417,-0.045 0.177271,0.0635 0.764646,1.30175 2.124604,0.6694 z"
       id="path1260"
       style="stroke-width:0.264583" />
    <path
       fill="#3f798a"
       d="m 75.308481,131.1002 q 0.751416,0.45773 1.473729,1.00807 0.129646,0.10054 0.230187,0.082 0.142875,-0.0291 0.187854,-0.21696 1.738313,1.40229 3.804709,2.42623 0.277812,0.13758 0.508,0.34131 0.288396,0.25136 0.468312,0.39423 0.195792,0.33602 0.169334,0.51594 -0.01852,0.11377 -0.134938,0.11641 l -2.312458,0.0529 q 0.134937,-0.30162 -0.275167,-0.29898 -1.994958,0.005 -3.989917,-0.0926 -0.06614,-0.003 -0.07673,-0.0688 -0.0079,-0.0423 -0.0344,-0.0741 -0.03175,-0.0344 -0.11377,-0.0317 c -0.66675,0.0212 -0.960438,-0.40216 -0.92075,-1.05568 q 0.08731,-1.42611 -0.227542,-2.90778 z"
       id="path1265"
       style="stroke-width:0.264583" />
    <path
       fill="#0d586f"
       d="m 74.064939,131.2907 q 0.314854,1.48167 0.227542,2.90778 c -0.03969,0.65352 0.254,1.07685 0.92075,1.05568 q 0.08202,-0.003 0.11377,0.0317 0.02646,0.0317 0.0344,0.0741 0.01058,0.0661 0.07673,0.0688 1.994959,0.0979 3.989917,0.0926 0.410104,-0.003 0.275167,0.29898 c -1.833563,0.16933 -3.495146,0.19579 -5.326063,-0.34396 q -1.280583,-0.37835 -2.6035,-0.54768 -0.127,-0.0159 -0.129645,-0.14288 0,-0.10583 -0.05821,-0.13229 -0.04498,-1.55575 0.425979,-3.00831 0.526521,0.15081 0.804334,0.0344 0.362479,0.41011 1.248833,-0.38894 z"
       id="path1268"
       style="stroke-width:0.264583" />
  </g>
</svg>
